<svg xmlns="http://www.w3.org/2000/svg" xmlns:xlink="http://www.w3.org/1999/xlink" width="100" zoomAndPan="magnify" viewBox="0 0 75 74.999997" height="100" preserveAspectRatio="xMidYMid meet" version="1.0"><defs><clipPath id="c4f4fcbf34"><path d="M 16.03125 7 L 58 7 L 58 35 L 16.03125 35 Z M 16.03125 7 " clip-rule="nonzero"/></clipPath><clipPath id="623b31e7a0"><path d="M 17 54 L 57 54 L 57 74.953125 L 17 74.953125 Z M 17 54 " clip-rule="nonzero"/></clipPath></defs><rect x="-7.5" width="90" fill="#ffffff" y="-7.5" height="89.999996" fill-opacity="1"/><rect x="-7.5" width="90" fill="#ffffff" y="-7.5" height="89.999996" fill-opacity="1"/><rect x="-7.5" width="90" fill="#6ffaff" y="-7.5" height="89.999996" fill-opacity="1"/><g clip-path="url(#c4f4fcbf34)"><path fill="#b76352" d="M 56.261719 18.84375 C 54.097656 13.152344 48.761719 6.703125 42.007812 7.519531 C 41.03125 7.636719 40.070312 7.941406 39.152344 8.472656 C 38.171875 9.035156 37.449219 9.816406 36.839844 10.695312 C 34.433594 8.828125 30.417969 9.171875 27.785156 10.144531 C 24.886719 11.222656 22.140625 12.519531 19.921875 14.664062 C 18.503906 16.035156 17.4375 18.71875 17.0625 20.601562 C 16.550781 23.179688 16.78125 26.007812 17.113281 28.46875 C 17.410156 30.699219 18.019531 33.605469 20.191406 34.769531 C 22.644531 36.085938 25.101562 30.652344 27.261719 29.757812 C 29.167969 28.96875 30.753906 27.664062 32.539062 26.632812 C 33.496094 26.082031 34.46875 25.488281 35.347656 24.796875 C 35.914062 25.132812 36.542969 25.371094 37.230469 25.488281 C 39.195312 25.816406 41.109375 25.988281 43.054688 26.488281 C 47.019531 27.5 49.851562 28.835938 52.910156 31.535156 C 54.890625 33.285156 56.476562 32.066406 57.308594 29.957031 C 58.757812 26.289062 57.597656 22.351562 56.261719 18.84375 " fill-opacity="1" fill-rule="nonzero"/></g><path fill="#f7c1ab" d="M 20.457031 27.816406 C 20.457031 27.816406 16.050781 40.128906 32.546875 49.683594 C 32.546875 49.683594 36.824219 51.722656 41.207031 49.878906 C 45.585938 48.035156 56.359375 40.230469 54.632812 27.691406 C 54.632812 27.691406 44 26.410156 37.105469 18.273438 C 37.105469 18.273438 26.359375 22.175781 20.457031 27.816406 " fill-opacity="1" fill-rule="nonzero"/><path fill="#f7c1ab" d="M 23.386719 70.632812 L 51.347656 70.632812 C 50.253906 63.875 44.484375 59.734375 42.316406 54.597656 C 41.613281 52.941406 41.289062 51.171875 41.621094 49.179688 L 32.941406 48.847656 C 33.28125 50.894531 32.941406 52.71875 32.214844 54.445312 C 30.035156 59.59375 24.4375 63.878906 23.386719 70.632812 " fill-opacity="1" fill-rule="nonzero"/><path fill="#f0c2a8" d="M 43.058594 29.285156 C 43.058594 29.285156 46.125 28.324219 48.609375 30.28125 " fill-opacity="1" fill-rule="nonzero"/><path fill="#b76352" d="M 43.039062 29.210938 C 43.039062 29.210938 43.054688 29.191406 43.09375 29.15625 C 43.128906 29.125 43.183594 29.074219 43.257812 29.023438 C 43.402344 28.910156 43.621094 28.773438 43.898438 28.65625 C 44.035156 28.597656 44.191406 28.542969 44.355469 28.496094 C 44.523438 28.445312 44.703125 28.417969 44.890625 28.386719 C 44.980469 28.371094 45.078125 28.367188 45.175781 28.359375 C 45.273438 28.351562 45.371094 28.34375 45.46875 28.351562 C 45.667969 28.355469 45.871094 28.359375 46.074219 28.398438 C 46.175781 28.414062 46.273438 28.429688 46.375 28.449219 C 46.472656 28.472656 46.570312 28.503906 46.667969 28.535156 C 46.863281 28.582031 47.046875 28.664062 47.21875 28.75 C 47.394531 28.824219 47.554688 28.929688 47.699219 29.027344 C 47.773438 29.078125 47.84375 29.125 47.910156 29.175781 C 47.972656 29.230469 48.03125 29.285156 48.089844 29.335938 C 48.199219 29.445312 48.300781 29.542969 48.378906 29.640625 C 48.453125 29.742188 48.511719 29.839844 48.5625 29.914062 C 48.660156 30.066406 48.703125 30.164062 48.703125 30.164062 C 48.738281 30.25 48.699219 30.347656 48.613281 30.386719 C 48.589844 30.398438 48.5625 30.402344 48.535156 30.398438 L 48.515625 30.398438 C 48.515625 30.398438 48.410156 30.390625 48.246094 30.355469 C 48.164062 30.339844 48.066406 30.324219 47.960938 30.296875 C 47.855469 30.273438 47.734375 30.25 47.601562 30.226562 C 47.539062 30.210938 47.476562 30.195312 47.410156 30.179688 C 47.34375 30.167969 47.273438 30.152344 47.199219 30.140625 C 47.058594 30.113281 46.917969 30.074219 46.765625 30.050781 C 46.691406 30.039062 46.617188 30.019531 46.539062 30.003906 C 46.464844 29.984375 46.386719 29.980469 46.308594 29.960938 C 46.230469 29.945312 46.152344 29.933594 46.074219 29.914062 L 45.835938 29.875 C 45.679688 29.84375 45.515625 29.824219 45.359375 29.792969 C 45.199219 29.761719 45.042969 29.742188 44.886719 29.710938 C 44.730469 29.691406 44.578125 29.65625 44.433594 29.636719 C 44.28125 29.609375 44.140625 29.582031 44.011719 29.558594 C 43.875 29.53125 43.753906 29.507812 43.644531 29.484375 C 43.53125 29.464844 43.429688 29.4375 43.347656 29.421875 C 43.265625 29.40625 43.199219 29.382812 43.152344 29.375 C 43.105469 29.363281 43.082031 29.355469 43.082031 29.355469 C 43.035156 29.34375 43.007812 29.296875 43.019531 29.25 C 43.023438 29.238281 43.027344 29.226562 43.035156 29.21875 L 43.039062 29.210938 " fill-opacity="1" fill-rule="nonzero"/><path fill="#f0c2a8" d="M 31.683594 29.285156 C 31.683594 29.285156 28.617188 28.324219 26.132812 30.28125 " fill-opacity="1" fill-rule="nonzero"/><path fill="#b76352" d="M 31.660156 29.355469 C 31.660156 29.355469 31.636719 29.363281 31.589844 29.375 C 31.542969 29.382812 31.476562 29.40625 31.394531 29.421875 C 31.3125 29.4375 31.210938 29.464844 31.097656 29.484375 C 30.988281 29.507812 30.867188 29.53125 30.730469 29.558594 C 30.601562 29.582031 30.460938 29.609375 30.308594 29.636719 C 30.164062 29.65625 30.011719 29.691406 29.855469 29.710938 C 29.703125 29.742188 29.542969 29.761719 29.382812 29.792969 C 29.226562 29.824219 29.0625 29.84375 28.90625 29.875 L 28.667969 29.914062 C 28.589844 29.933594 28.511719 29.945312 28.433594 29.960938 C 28.355469 29.980469 28.277344 29.984375 28.203125 30.003906 C 28.125 30.019531 28.050781 30.039062 27.976562 30.050781 C 27.824219 30.074219 27.683594 30.113281 27.542969 30.140625 C 27.46875 30.152344 27.398438 30.167969 27.332031 30.179688 C 27.265625 30.195312 27.203125 30.210938 27.140625 30.226562 C 27.007812 30.25 26.886719 30.273438 26.78125 30.296875 C 26.675781 30.324219 26.578125 30.339844 26.496094 30.355469 C 26.332031 30.390625 26.226562 30.398438 26.226562 30.398438 L 26.210938 30.398438 C 26.117188 30.40625 26.035156 30.339844 26.027344 30.246094 C 26.023438 30.214844 26.03125 30.1875 26.039062 30.164062 C 26.039062 30.164062 26.082031 30.066406 26.179688 29.914062 C 26.230469 29.839844 26.289062 29.742188 26.363281 29.640625 C 26.441406 29.542969 26.542969 29.445312 26.652344 29.335938 C 26.710938 29.285156 26.769531 29.230469 26.832031 29.175781 C 26.898438 29.125 26.96875 29.078125 27.042969 29.027344 C 27.1875 28.929688 27.347656 28.824219 27.523438 28.75 C 27.695312 28.664062 27.878906 28.582031 28.074219 28.535156 C 28.171875 28.503906 28.269531 28.472656 28.367188 28.449219 L 28.667969 28.398438 C 28.871094 28.359375 29.074219 28.355469 29.273438 28.351562 C 29.371094 28.34375 29.46875 28.351562 29.566406 28.359375 C 29.664062 28.367188 29.761719 28.371094 29.855469 28.386719 C 30.039062 28.417969 30.21875 28.445312 30.386719 28.496094 C 30.550781 28.542969 30.707031 28.597656 30.84375 28.65625 C 31.125 28.773438 31.339844 28.910156 31.484375 29.023438 C 31.558594 29.074219 31.613281 29.125 31.648438 29.15625 C 31.6875 29.191406 31.703125 29.210938 31.703125 29.210938 L 31.707031 29.21875 C 31.738281 29.253906 31.730469 29.308594 31.695312 29.339844 C 31.683594 29.347656 31.671875 29.351562 31.660156 29.355469 " fill-opacity="1" fill-rule="nonzero"/><path fill="#331a18" d="M 30.9375 33.363281 C 30.9375 34.109375 30.335938 34.707031 29.597656 34.707031 C 28.859375 34.707031 28.257812 34.109375 28.257812 33.363281 C 28.257812 32.621094 28.859375 32.015625 29.597656 32.015625 C 30.335938 32.015625 30.9375 32.621094 30.9375 33.363281 " fill-opacity="1" fill-rule="nonzero"/><path fill="#331a18" d="M 46.484375 33.363281 C 46.484375 34.109375 45.886719 34.707031 45.144531 34.707031 C 44.40625 34.707031 43.804688 34.109375 43.804688 33.363281 C 43.804688 32.621094 44.40625 32.015625 45.144531 32.015625 C 45.886719 32.015625 46.484375 32.621094 46.484375 33.363281 " fill-opacity="1" fill-rule="nonzero"/><path stroke-linecap="round" transform="matrix(0.00477403, 0, 0, -0.0047925, -13.264846, 92.081996)" fill="none" stroke-linejoin="round" d="M 10529.625509 11930.254611 C 10529.625509 11930.254611 11151.479528 11551.244446 10433.07449 11149.412163 " stroke="#ee9c9c" stroke-width="208.405" stroke-opacity="1" stroke-miterlimit="10"/><path stroke-linecap="round" transform="matrix(0.00477403, 0, 0, -0.0047925, -13.264846, 92.081996)" fill="none" stroke-linejoin="round" d="M 9754.762671 10723.942687 C 9754.762671 10723.942687 10505.896869 10153.389751 11458.315393 10723.942687 " stroke="#ee9c9c" stroke-width="208.405" stroke-opacity="1" stroke-miterlimit="10"/><path fill="#f6b2a6" d="M 48.0625 38.511719 C 48.0625 39.613281 46.945312 40.503906 45.570312 40.503906 C 44.191406 40.503906 43.078125 39.613281 43.078125 38.511719 C 43.078125 37.414062 44.191406 36.523438 45.570312 36.523438 C 46.945312 36.523438 48.0625 37.414062 48.0625 38.511719 " fill-opacity="1" fill-rule="nonzero"/><path fill="#f6b2a6" d="M 31.667969 38.511719 C 31.667969 39.613281 30.550781 40.503906 29.171875 40.503906 C 27.796875 40.503906 26.679688 39.613281 26.679688 38.511719 C 26.679688 37.414062 27.796875 36.523438 29.171875 36.523438 C 30.550781 36.523438 31.667969 37.414062 31.667969 38.511719 " fill-opacity="1" fill-rule="nonzero"/><g clip-path="url(#623b31e7a0)"><path fill="#f471b3" d="M 56.703125 74.953125 L 17.699219 74.953125 C 17.644531 74.496094 18.039062 73.921875 18.285156 72.980469 C 18.59375 71.796875 18.839844 70.535156 19.070312 69.351562 C 19.601562 66.59375 20.792969 64.390625 23.007812 62.472656 C 25.507812 60.300781 28.84375 59.074219 31.09375 56.609375 C 31.523438 55.898438 31.902344 55.183594 32.214844 54.445312 C 33.910156 55.0625 38.214844 56.277344 42.316406 54.597656 C 42.628906 55.335938 43.015625 56.050781 43.453125 56.753906 C 45.695312 59.121094 48.945312 60.34375 51.394531 62.472656 C 53.609375 64.390625 54.792969 66.59375 55.332031 69.351562 C 55.5625 70.535156 55.808594 71.796875 56.113281 72.980469 C 56.359375 73.921875 56.757812 74.496094 56.703125 74.953125 " fill-opacity="1" fill-rule="nonzero"/><path fill="#f14c55" d="M 56.703125 74.953125 L 17.699219 74.953125 C 17.644531 74.496094 18.039062 73.921875 18.285156 72.980469 C 18.59375 71.796875 18.839844 70.535156 19.070312 69.351562 C 19.601562 66.59375 20.792969 64.390625 23.007812 62.472656 C 25.402344 60.390625 28.570312 59.179688 30.804688 56.910156 C 30.90625 56.8125 31 56.710938 31.09375 56.609375 C 31.523438 55.898438 31.902344 55.183594 32.214844 54.445312 C 33.910156 55.0625 38.214844 56.277344 42.316406 54.597656 C 42.628906 55.335938 43.015625 56.050781 43.453125 56.753906 C 43.574219 56.882812 43.699219 57.007812 43.824219 57.125 C 46.042969 59.253906 49.074219 60.460938 51.394531 62.472656 C 53.609375 64.390625 54.792969 66.59375 55.332031 69.351562 C 55.5625 70.535156 55.808594 71.796875 56.113281 72.980469 C 56.359375 73.921875 56.757812 74.496094 56.703125 74.953125 " fill-opacity="1" fill-rule="nonzero"/></g><path fill="#e1464e" d="M 43.875 57.125 C 43.453125 57.25 43.039062 57.359375 42.628906 57.449219 C 42.457031 57.496094 42.292969 57.53125 42.125 57.566406 C 41.328125 57.734375 40.550781 57.847656 39.800781 57.914062 C 39.628906 57.933594 39.464844 57.949219 39.304688 57.960938 C 38.742188 58 38.199219 58.015625 37.671875 58.015625 C 37.5 58.015625 37.335938 58.011719 37.171875 58.011719 C 36.601562 57.992188 36.058594 57.957031 35.542969 57.90625 C 35.378906 57.890625 35.207031 57.871094 35.046875 57.847656 C 34.207031 57.75 33.445312 57.601562 32.773438 57.449219 C 32.601562 57.410156 32.429688 57.371094 32.273438 57.328125 C 31.71875 57.1875 31.246094 57.042969 30.855469 56.910156 C 30.953125 56.8125 31.050781 56.710938 31.144531 56.609375 C 31.570312 55.898438 31.953125 55.183594 32.265625 54.445312 C 32.542969 54.546875 32.882812 54.660156 33.277344 54.773438 C 33.429688 54.820312 33.585938 54.867188 33.753906 54.90625 C 34.210938 55.027344 34.730469 55.144531 35.292969 55.238281 C 35.453125 55.261719 35.617188 55.289062 35.789062 55.308594 C 36.242188 55.367188 36.714844 55.414062 37.210938 55.441406 C 37.375 55.445312 37.542969 55.449219 37.710938 55.449219 C 38.148438 55.453125 38.601562 55.433594 39.0625 55.390625 C 39.230469 55.378906 39.390625 55.359375 39.558594 55.335938 C 40.074219 55.269531 40.59375 55.167969 41.117188 55.019531 C 41.277344 54.980469 41.433594 54.929688 41.59375 54.875 C 41.851562 54.800781 42.109375 54.703125 42.367188 54.597656 C 42.679688 55.335938 43.0625 56.050781 43.503906 56.753906 C 43.621094 56.882812 43.746094 57.007812 43.875 57.125 " fill-opacity="1" fill-rule="nonzero"/><path fill="#f7c1ab" d="M 57.175781 34.460938 C 57.175781 36.222656 56.199219 37.652344 54.992188 37.652344 C 53.785156 37.652344 52.808594 36.222656 52.808594 34.460938 C 52.808594 32.699219 53.785156 31.273438 54.992188 31.273438 C 56.199219 31.273438 57.175781 32.699219 57.175781 34.460938 " fill-opacity="1" fill-rule="nonzero"/><path fill="#f7c1ab" d="M 21.933594 34.460938 C 21.933594 36.222656 20.957031 37.652344 19.75 37.652344 C 18.542969 37.652344 17.566406 36.222656 17.566406 34.460938 C 17.566406 32.699219 18.542969 31.273438 19.75 31.273438 C 20.957031 31.273438 21.933594 32.699219 21.933594 34.460938 " fill-opacity="1" fill-rule="nonzero"/></svg>