<svg xmlns="http://www.w3.org/2000/svg" xmlns:xlink="http://www.w3.org/1999/xlink" width="100" zoomAndPan="magnify" viewBox="0 0 75 74.999997" height="100" preserveAspectRatio="xMidYMid meet" version="1.0"><defs><clipPath id="38ab77d040"><path d="M 23 5.023438 L 56 5.023438 L 56 52 L 23 52 Z M 23 5.023438 " clip-rule="nonzero"/></clipPath><clipPath id="7eddfae41c"><path d="M 15.667969 49 L 59.167969 49 L 59.167969 75 L 15.667969 75 Z M 15.667969 49 " clip-rule="nonzero"/></clipPath><clipPath id="52758ad2ee"><path d="M 49 52 L 59.167969 52 L 59.167969 75 L 49 75 Z M 49 52 " clip-rule="nonzero"/></clipPath><clipPath id="e4463de99b"><path d="M 15.667969 64 L 22 64 L 22 75 L 15.667969 75 Z M 15.667969 64 " clip-rule="nonzero"/></clipPath><clipPath id="9e6c665010"><path d="M 23 5.023438 L 54 5.023438 L 54 31 L 23 31 Z M 23 5.023438 " clip-rule="nonzero"/></clipPath></defs><rect x="-7.5" width="90" fill="#ffffff" y="-7.5" height="89.999996" fill-opacity="1"/><rect x="-7.5" width="90" fill="#ffffff" y="-7.5" height="89.999996" fill-opacity="1"/><rect x="-7.5" width="90" fill="#6ffaff" y="-7.5" height="89.999996" fill-opacity="1"/><g clip-path="url(#38ab77d040)"><path fill="#f0c2a8" d="M 55.390625 29.921875 C 55.167969 31.144531 53.304688 32.550781 51.785156 32.746094 C 51.410156 35.148438 50.535156 37.460938 49.035156 39.347656 C 47.984375 40.65625 46.65625 41.660156 45.167969 42.386719 C 44.625 42.652344 44.0625 42.882812 43.480469 43.074219 L 42.863281 49.191406 C 42.191406 50.039062 41.34375 50.597656 40.503906 50.945312 C 39.667969 51.296875 38.835938 51.441406 38.1875 51.472656 C 36.894531 51.414062 35.484375 50.820312 34.175781 49.097656 L 34.167969 49.082031 L 34.699219 43.84375 C 34.695312 43.84375 34.695312 43.84375 34.695312 43.84375 L 34.726562 43.570312 C 30.996094 42.871094 27.53125 41.085938 25.414062 38.417969 C 23.4375 35.890625 23.535156 32.882812 24.082031 30.011719 C 23.773438 28.027344 24.160156 16.417969 24.65625 13.222656 C 25.101562 10.328125 25.605469 8.121094 29.152344 6.570312 C 32.703125 5.023438 36.9375 5.613281 42.992188 6.199219 C 49.050781 6.789062 50.242188 10.042969 51.875 12.265625 C 53.511719 14.488281 53.726562 19.597656 53.832031 24.414062 C 53.863281 25.925781 53.695312 26.933594 53.449219 27.601562 C 54.742188 27.335938 55.832031 27.859375 55.390625 29.921875 " fill-opacity="1" fill-rule="nonzero"/></g><g clip-path="url(#7eddfae41c)"><path fill="#7d8699" d="M 59.144531 85.425781 C 59.09375 80.84375 58.882812 76.152344 58.429688 71.710938 C 57.777344 65.402344 56.3125 60.945312 54.601562 57.796875 C 54.402344 57.441406 54.210938 57.097656 54.007812 56.773438 C 53.414062 55.8125 52.800781 54.992188 52.195312 54.292969 L 52.148438 54.238281 C 51.929688 53.992188 51.710938 53.753906 51.496094 53.539062 C 51.402344 53.445312 51.308594 53.355469 51.21875 53.269531 C 51.082031 53.140625 50.949219 53.015625 50.820312 52.898438 L 50.804688 52.890625 C 50.515625 52.664062 50.164062 52.410156 49.753906 52.152344 C 49.734375 52.136719 49.714844 52.125 49.691406 52.113281 C 49.683594 52.105469 49.675781 52.097656 49.664062 52.09375 C 49.621094 52.0625 49.570312 52.035156 49.527344 52.007812 C 49.457031 51.964844 49.386719 51.921875 49.3125 51.875 C 49.308594 51.871094 49.300781 51.867188 49.292969 51.863281 C 49.273438 51.851562 49.253906 51.839844 49.234375 51.828125 C 49.222656 51.820312 49.207031 51.8125 49.195312 51.804688 C 49.160156 51.785156 49.128906 51.765625 49.09375 51.746094 C 48.839844 51.601562 48.574219 51.460938 48.289062 51.328125 C 48.238281 51.300781 48.183594 51.277344 48.128906 51.253906 C 48.097656 51.238281 48.066406 51.222656 48.035156 51.210938 C 48.003906 51.195312 47.972656 51.183594 47.941406 51.167969 C 47.796875 51.105469 47.652344 51.046875 47.507812 50.984375 C 47.429688 50.953125 47.347656 50.925781 47.269531 50.898438 C 47.257812 50.890625 47.242188 50.886719 47.230469 50.882812 L 47.226562 50.882812 C 47.167969 50.859375 47.109375 50.839844 47.050781 50.816406 C 46.984375 50.792969 46.914062 50.773438 46.84375 50.75 C 46.773438 50.726562 46.695312 50.703125 46.621094 50.683594 C 46.523438 50.652344 46.429688 50.625 46.335938 50.601562 C 46.234375 50.574219 46.132812 50.546875 46.023438 50.523438 C 45.835938 50.476562 45.648438 50.441406 45.453125 50.40625 C 45.433594 50.398438 45.410156 50.398438 45.382812 50.390625 C 44.371094 49.890625 43.644531 49.554688 43.105469 49.308594 L 43.050781 49.28125 C 42.980469 49.25 42.882812 49.210938 42.863281 49.191406 C 41.519531 50.882812 39.476562 51.417969 38.1875 51.472656 C 36.894531 51.414062 35.484375 50.816406 34.175781 49.09375 L 34.167969 49.082031 L 34.164062 49.082031 C 34.164062 49.082031 32.808594 49.503906 31.1875 50.292969 C 31.121094 50.324219 31.054688 50.359375 30.988281 50.390625 C 30.738281 50.476562 30.480469 50.585938 30.222656 50.699219 C 30.058594 50.769531 29.890625 50.84375 29.726562 50.921875 L 29.726562 50.917969 C 29.34375 51.066406 28.929688 51.261719 28.480469 51.515625 C 28.480469 51.515625 28.476562 51.519531 28.476562 51.519531 L 28.464844 51.527344 C 28.0625 51.753906 27.632812 52.03125 27.1875 52.355469 C 26.96875 52.515625 26.75 52.679688 26.523438 52.863281 C 26.441406 52.929688 26.355469 53.003906 26.273438 53.074219 C 26.183594 53.148438 26.089844 53.222656 25.996094 53.304688 C 25.90625 53.386719 25.816406 53.46875 25.726562 53.554688 C 25.710938 53.566406 25.699219 53.578125 25.683594 53.59375 C 25.652344 53.621094 25.617188 53.65625 25.585938 53.6875 C 25.546875 53.71875 25.511719 53.75 25.476562 53.785156 C 25.414062 53.84375 25.355469 53.902344 25.292969 53.964844 L 25.261719 54 L 25.246094 54.015625 L 25.246094 54.019531 C 24.082031 55.175781 22.894531 56.703125 21.789062 58.730469 C 21.789062 58.75 21.789062 58.769531 21.789062 58.792969 C 20.890625 60.429688 20.042969 62.386719 19.308594 64.730469 C 18.746094 66.523438 18.246094 68.542969 17.835938 70.816406 C 17.242188 74.074219 16.78125 77.480469 16.417969 80.886719 C 16.097656 83.90625 15.855469 86.925781 15.667969 89.84375 C 15.714844 89.863281 15.769531 89.878906 15.820312 89.902344 C 15.96875 89.960938 16.121094 90.015625 16.273438 90.074219 C 16.433594 90.132812 16.59375 90.195312 16.757812 90.257812 C 16.878906 90.300781 17 90.347656 17.121094 90.390625 C 17.214844 90.425781 17.308594 90.460938 17.402344 90.496094 C 17.59375 90.5625 17.789062 90.628906 17.980469 90.695312 C 18.078125 90.730469 18.179688 90.765625 18.28125 90.800781 C 18.359375 90.828125 18.441406 90.855469 18.523438 90.882812 C 19.339844 91.160156 20.167969 91.414062 21 91.65625 C 21.125 91.695312 21.25 91.734375 21.378906 91.769531 C 21.410156 91.78125 21.445312 91.789062 21.476562 91.796875 C 21.492188 91.800781 21.507812 91.804688 21.519531 91.808594 C 21.519531 91.835938 21.519531 91.859375 21.519531 91.886719 C 21.628906 91.917969 21.734375 91.945312 21.847656 91.972656 C 22.078125 92.042969 22.316406 92.101562 22.550781 92.164062 C 22.675781 92.199219 22.800781 92.234375 22.925781 92.269531 C 23.050781 92.300781 23.175781 92.332031 23.300781 92.363281 L 23.300781 92.359375 C 23.355469 92.375 23.410156 92.386719 23.46875 92.398438 C 23.835938 92.488281 24.203125 92.574219 24.578125 92.660156 C 24.628906 92.671875 24.683594 92.683594 24.734375 92.695312 C 25.109375 92.777344 25.488281 92.851562 25.867188 92.929688 C 25.867188 92.929688 25.867188 92.933594 25.867188 92.933594 C 25.949219 92.953125 26.039062 92.972656 26.125 92.988281 C 26.125 92.984375 26.125 92.984375 26.125 92.984375 C 26.84375 93.125 27.566406 93.261719 28.296875 93.382812 C 28.3125 93.382812 28.332031 93.386719 28.347656 93.390625 C 28.472656 93.410156 28.597656 93.429688 28.722656 93.449219 C 29.285156 93.539062 29.851562 93.617188 30.417969 93.695312 C 30.503906 93.703125 30.589844 93.71875 30.675781 93.726562 C 30.753906 93.738281 30.828125 93.75 30.90625 93.757812 C 31.957031 93.886719 33.011719 93.996094 34.074219 94.078125 C 34.09375 94.078125 34.117188 94.082031 34.136719 94.082031 C 34.140625 94.082031 34.140625 94.082031 34.140625 94.082031 C 34.183594 94.085938 34.226562 94.089844 34.265625 94.089844 C 34.730469 94.125 35.195312 94.15625 35.65625 94.179688 C 35.691406 94.179688 35.726562 94.183594 35.761719 94.183594 C 35.761719 94.183594 35.765625 94.1875 35.769531 94.1875 C 35.796875 94.1875 35.828125 94.1875 35.859375 94.1875 C 36.890625 94.238281 37.921875 94.269531 38.953125 94.269531 C 39.015625 94.269531 39.078125 94.265625 39.140625 94.265625 C 39.511719 94.265625 39.882812 94.261719 40.25 94.253906 C 40.300781 94.25 40.351562 94.25 40.40625 94.25 C 40.449219 94.25 40.492188 94.246094 40.539062 94.246094 C 40.625 94.246094 40.714844 94.242188 40.800781 94.238281 C 40.835938 94.238281 40.871094 94.238281 40.90625 94.238281 C 41.121094 94.230469 41.335938 94.222656 41.550781 94.214844 C 41.710938 94.207031 41.871094 94.203125 42.027344 94.195312 C 42.050781 94.195312 42.070312 94.191406 42.09375 94.191406 C 42.179688 94.1875 42.265625 94.183594 42.351562 94.175781 C 42.457031 94.171875 42.558594 94.167969 42.660156 94.160156 C 42.8125 94.152344 42.964844 94.144531 43.117188 94.136719 C 43.203125 94.128906 43.289062 94.125 43.375 94.117188 C 43.402344 94.117188 43.429688 94.113281 43.457031 94.109375 C 43.480469 94.109375 43.5 94.109375 43.523438 94.105469 C 43.859375 94.082031 44.195312 94.054688 44.53125 94.027344 C 44.570312 94.023438 44.609375 94.019531 44.648438 94.015625 C 44.808594 94.003906 44.96875 93.988281 45.125 93.976562 C 45.230469 93.964844 45.335938 93.953125 45.4375 93.941406 C 45.640625 93.921875 45.84375 93.902344 46.046875 93.878906 C 46.078125 93.875 46.109375 93.871094 46.136719 93.867188 C 46.34375 93.847656 46.550781 93.824219 46.757812 93.800781 C 47.046875 93.765625 47.339844 93.726562 47.628906 93.6875 C 47.878906 93.652344 48.132812 93.617188 48.386719 93.582031 C 48.390625 93.582031 48.394531 93.582031 48.394531 93.582031 C 48.558594 93.558594 48.722656 93.53125 48.886719 93.507812 C 48.949219 93.496094 49.011719 93.484375 49.074219 93.476562 C 49.285156 93.445312 49.492188 93.414062 49.699219 93.378906 C 49.789062 93.363281 49.875 93.351562 49.960938 93.335938 C 50.027344 93.324219 50.09375 93.3125 50.160156 93.300781 C 50.191406 93.292969 50.21875 93.289062 50.246094 93.285156 C 50.695312 93.203125 51.140625 93.121094 51.589844 93.035156 C 51.589844 93.054688 51.59375 93.082031 51.59375 93.105469 C 51.628906 93.097656 51.660156 93.089844 51.695312 93.085938 C 51.921875 93.042969 52.222656 92.980469 52.441406 92.933594 C 52.476562 92.925781 52.511719 92.917969 52.550781 92.910156 C 52.589844 92.902344 52.632812 92.894531 52.679688 92.882812 C 53.308594 92.761719 53.914062 92.605469 54.503906 92.421875 C 56.007812 91.964844 57.429688 91.371094 58.972656 90.898438 C 58.976562 90.898438 58.980469 90.894531 58.988281 90.894531 C 59.039062 90.875 59.089844 90.863281 59.140625 90.847656 C 59.164062 89.074219 59.167969 87.257812 59.144531 85.425781 " fill-opacity="1" fill-rule="nonzero"/></g><path fill="#7d8699" d="M 21.773438 67.808594 C 21.769531 67.558594 21.769531 67.308594 21.765625 67.054688 C 21.761719 66.9375 21.761719 66.820312 21.761719 66.707031 L 21.761719 66.671875 C 21.738281 64.085938 21.738281 61.398438 21.789062 58.792969 C 20.890625 60.429688 20.042969 62.386719 19.308594 64.730469 C 20.078125 65.792969 20.90625 66.820312 21.773438 67.808594 " fill-opacity="1" fill-rule="nonzero"/><path fill="#7d8699" d="M 49.292969 51.863281 C 49.273438 51.851562 49.253906 51.839844 49.234375 51.828125 C 49.222656 51.820312 49.207031 51.8125 49.195312 51.804688 C 49.195312 51.804688 49.195312 51.808594 49.195312 51.808594 C 49.230469 51.828125 49.261719 51.84375 49.292969 51.863281 " fill-opacity="1" fill-rule="nonzero"/><g clip-path="url(#52758ad2ee)"><path fill="#7d8699" d="M 50.230469 52.46875 C 50.265625 52.496094 50.296875 52.519531 50.328125 52.542969 C 50.449219 52.628906 50.566406 52.714844 50.671875 52.792969 L 50.683594 52.800781 C 50.816406 52.917969 50.953125 53.042969 51.089844 53.175781 C 51.175781 53.257812 51.273438 53.34375 51.367188 53.4375 C 51.582031 53.65625 51.800781 53.890625 52.023438 54.136719 L 52.070312 54.191406 C 52.683594 54.882812 53.300781 55.699219 53.902344 56.65625 C 53.902344 57.644531 53.894531 58.632812 53.878906 59.621094 C 53.878906 59.746094 53.878906 59.867188 53.875 59.992188 C 53.867188 60.382812 53.859375 60.777344 53.851562 61.167969 L 53.851562 61.183594 C 53.808594 63.183594 53.753906 65.175781 53.695312 67.152344 C 53.652344 68.535156 53.609375 69.902344 53.582031 71.25 C 53.578125 71.375 53.574219 71.5 53.570312 71.621094 C 53.523438 73.820312 53.496094 75.964844 53.527344 78.023438 C 53.539062 78.921875 53.566406 79.800781 53.601562 80.660156 C 53.605469 80.769531 53.609375 80.882812 53.617188 80.992188 C 53.648438 81.683594 53.691406 82.359375 53.742188 83.027344 C 53.785156 83.546875 53.835938 84.074219 53.890625 84.613281 C 53.894531 84.65625 53.898438 84.703125 53.902344 84.746094 C 55.550781 85.050781 57.320312 85.292969 59.144531 85.425781 C 59.09375 80.84375 58.882812 76.152344 58.429688 71.710938 C 57.777344 65.402344 56.3125 60.945312 54.601562 57.796875 C 54.402344 57.441406 54.210938 57.097656 54.007812 56.777344 L 54.007812 56.773438 C 53.414062 55.8125 52.800781 54.992188 52.195312 54.292969 L 52.148438 54.238281 C 51.929688 53.992188 51.710938 53.753906 51.496094 53.539062 C 51.402344 53.445312 51.308594 53.355469 51.21875 53.269531 C 51.082031 53.140625 50.949219 53.015625 50.820312 52.898438 L 50.804688 52.890625 C 50.515625 52.664062 50.164062 52.410156 49.753906 52.152344 C 49.894531 52.242188 50.027344 52.328125 50.152344 52.417969 C 50.175781 52.433594 50.207031 52.453125 50.230469 52.46875 " fill-opacity="1" fill-rule="nonzero"/></g><g clip-path="url(#e4463de99b)"><path fill="#697386" d="M 21.5625 87.945312 C 21.566406 87.722656 21.570312 87.503906 21.574219 87.285156 C 21.574219 87.261719 21.574219 87.234375 21.574219 87.210938 C 21.617188 85.042969 21.679688 83.050781 21.785156 81.371094 C 21.785156 81.34375 21.789062 81.316406 21.789062 81.285156 C 21.796875 81.175781 21.804688 81.066406 21.8125 80.957031 C 21.824219 80.796875 21.835938 80.636719 21.847656 80.484375 C 21.847656 80.4375 21.851562 80.390625 21.855469 80.339844 C 21.855469 80.320312 21.855469 80.304688 21.859375 80.285156 C 21.859375 80.246094 21.863281 80.207031 21.863281 80.167969 C 21.867188 80.109375 21.867188 80.050781 21.871094 79.988281 C 21.871094 79.972656 21.871094 79.957031 21.871094 79.941406 C 21.894531 79.363281 21.898438 78.628906 21.898438 77.765625 C 21.898438 77.675781 21.898438 77.578125 21.898438 77.484375 C 21.894531 77.015625 21.890625 76.515625 21.882812 75.984375 C 21.882812 75.859375 21.878906 75.734375 21.878906 75.605469 C 21.871094 75 21.859375 74.359375 21.847656 73.6875 C 21.84375 73.125 21.828125 72.542969 21.832031 71.949219 C 21.808594 70.683594 21.792969 69.34375 21.777344 67.957031 C 21.777344 67.90625 21.773438 67.855469 21.773438 67.808594 C 20.90625 66.820312 20.078125 65.792969 19.308594 64.730469 C 18.746094 66.523438 18.246094 68.542969 17.835938 70.816406 C 17.242188 74.074219 16.78125 77.480469 16.417969 80.886719 C 16.097656 83.90625 15.855469 86.925781 15.667969 89.84375 C 15.714844 89.863281 15.769531 89.878906 15.820312 89.902344 C 15.96875 89.960938 16.121094 90.015625 16.273438 90.074219 C 16.433594 90.132812 16.59375 90.195312 16.757812 90.257812 C 16.878906 90.300781 17 90.347656 17.121094 90.390625 C 17.214844 90.425781 17.308594 90.460938 17.402344 90.496094 C 17.59375 90.5625 17.789062 90.628906 17.980469 90.695312 C 18.078125 90.730469 18.179688 90.765625 18.28125 90.800781 C 18.359375 90.828125 18.441406 90.855469 18.523438 90.882812 C 19.339844 91.160156 20.167969 91.414062 21 91.65625 C 21.125 91.695312 21.25 91.734375 21.378906 91.769531 C 21.410156 91.78125 21.445312 91.789062 21.476562 91.796875 C 21.492188 91.800781 21.507812 91.804688 21.519531 91.808594 C 21.53125 90.488281 21.542969 89.191406 21.5625 87.945312 " fill-opacity="1" fill-rule="nonzero"/></g><path fill="#f0c2a8" d="M 38.1875 51.472656 C 39.476562 51.417969 41.519531 50.882812 42.863281 49.191406 L 43.480469 43.074219 L 43.164062 46.210938 C 40.671875 44.378906 36.667969 43.949219 34.699219 43.84375 L 34.167969 49.082031 L 34.175781 49.097656 C 35.484375 50.820312 36.894531 51.414062 38.1875 51.472656 " fill-opacity="1" fill-rule="nonzero"/><path fill="#efaaa1" d="M 43.480469 43.074219 C 41 43.902344 38.21875 44.085938 35.523438 43.703125 C 35.253906 43.664062 34.988281 43.621094 34.726562 43.570312 L 34.695312 43.84375 C 34.699219 43.84375 34.699219 43.84375 34.699219 43.84375 C 36.667969 43.949219 40.671875 44.378906 43.164062 46.210938 L 43.480469 43.074219 " fill-opacity="1" fill-rule="nonzero"/><path fill="#7d8699" d="M 28.476562 51.519531 C 28.476562 51.519531 28.480469 51.515625 28.480469 51.515625 C 28.480469 51.515625 28.476562 51.519531 28.476562 51.519531 L 28.464844 51.527344 C 28.0625 51.753906 27.632812 52.03125 27.1875 52.355469 C 27.632812 52.03125 28.0625 51.753906 28.464844 51.527344 L 28.476562 51.519531 " fill-opacity="1" fill-rule="nonzero"/><path fill="#7d8699" d="M 48.128906 51.253906 C 48.097656 51.238281 48.066406 51.222656 48.035156 51.210938 C 48.003906 51.195312 47.972656 51.183594 47.941406 51.167969 C 47.972656 51.183594 48.003906 51.195312 48.035156 51.210938 C 48.066406 51.222656 48.097656 51.238281 48.128906 51.253906 " fill-opacity="1" fill-rule="nonzero"/><path fill="#7d8699" d="M 25.585938 53.6875 C 25.617188 53.65625 25.652344 53.625 25.683594 53.59375 C 25.652344 53.625 25.617188 53.65625 25.585938 53.6875 " fill-opacity="1" fill-rule="nonzero"/><path fill="#7d8699" d="M 26.523438 52.863281 C 26.441406 52.929688 26.355469 53.003906 26.273438 53.074219 C 26.355469 53.003906 26.441406 52.929688 26.523438 52.863281 " fill-opacity="1" fill-rule="nonzero"/><path fill="#7d8699" d="M 29.757812 50.964844 C 29.800781 51.023438 29.855469 51.089844 29.882812 51.132812 L 29.929688 51.195312 C 30.027344 51.335938 30.121094 51.472656 30.210938 51.605469 C 30.351562 51.808594 30.488281 52.003906 30.625 52.199219 C 31.3125 53.1875 31.976562 54.078125 32.832031 54.820312 C 32.902344 54.882812 32.972656 54.941406 33.046875 55.003906 C 33.597656 55.449219 34.230469 55.835938 34.996094 56.148438 C 35.523438 56.386719 36.0625 56.570312 36.597656 56.695312 C 36.683594 56.71875 36.773438 56.738281 36.859375 56.757812 C 37.84375 56.964844 38.828125 57 39.746094 56.902344 C 39.890625 56.886719 40.035156 56.867188 40.175781 56.84375 C 41.335938 56.667969 42.382812 56.277344 43.191406 55.761719 C 43.28125 55.710938 43.363281 55.652344 43.441406 55.59375 L 43.503906 55.554688 C 44.742188 54.644531 45.773438 53.316406 46.695312 51.792969 C 46.882812 51.5 47.054688 51.195312 47.230469 50.882812 C 47.242188 50.886719 47.257812 50.890625 47.269531 50.898438 C 47.257812 50.890625 47.242188 50.886719 47.230469 50.882812 L 47.226562 50.882812 C 47.167969 50.859375 47.109375 50.839844 47.050781 50.820312 C 46.984375 50.792969 46.914062 50.773438 46.84375 50.753906 C 46.773438 50.726562 46.695312 50.703125 46.621094 50.683594 C 46.523438 50.652344 46.429688 50.625 46.335938 50.601562 C 46.234375 50.574219 46.132812 50.546875 46.023438 50.523438 C 45.835938 50.476562 45.648438 50.441406 45.453125 50.40625 C 45.433594 50.398438 45.410156 50.398438 45.382812 50.390625 C 44.371094 49.890625 43.644531 49.554688 43.105469 49.308594 L 43.050781 49.28125 C 42.980469 49.253906 42.882812 49.210938 42.863281 49.195312 C 42.863281 49.195312 42.863281 49.191406 42.863281 49.191406 C 41.519531 50.882812 39.476562 51.417969 38.1875 51.472656 C 36.894531 51.414062 35.484375 50.820312 34.175781 49.097656 L 34.167969 49.082031 L 34.164062 49.082031 C 34.164062 49.082031 32.808594 49.503906 31.1875 50.292969 C 31.121094 50.324219 31.054688 50.359375 30.988281 50.390625 C 30.738281 50.476562 30.480469 50.585938 30.222656 50.699219 C 30.058594 50.769531 29.890625 50.84375 29.726562 50.921875 L 29.757812 50.964844 " fill-opacity="1" fill-rule="nonzero"/><path fill="#7d8699" d="M 25.246094 54.015625 L 25.261719 54 L 25.246094 54.015625 L 25.246094 54.019531 L 25.246094 54.015625 " fill-opacity="1" fill-rule="nonzero"/><path fill="#7d8699" d="M 50.683594 52.800781 L 50.671875 52.792969 C 50.566406 52.714844 50.449219 52.628906 50.328125 52.542969 C 50.367188 52.566406 50.402344 52.59375 50.4375 52.621094 C 50.519531 52.679688 50.597656 52.738281 50.671875 52.792969 L 50.683594 52.800781 " fill-opacity="1" fill-rule="nonzero"/><path fill="#7d8699" d="M 49.3125 51.878906 C 49.433594 51.949219 49.550781 52.019531 49.664062 52.09375 C 49.757812 52.152344 49.84375 52.210938 49.933594 52.269531 C 50.007812 52.316406 50.078125 52.367188 50.152344 52.417969 C 50.027344 52.328125 49.894531 52.242188 49.753906 52.152344 C 49.613281 52.058594 49.46875 51.96875 49.3125 51.875 C 49.308594 51.871094 49.300781 51.867188 49.292969 51.863281 C 49.261719 51.84375 49.230469 51.828125 49.195312 51.808594 C 49.234375 51.832031 49.277344 51.851562 49.3125 51.878906 " fill-opacity="1" fill-rule="nonzero"/><path fill="#f0c2a8" d="M 33.839844 17.6875 C 35.191406 17.3125 36.816406 17.472656 38.1875 17.664062 C 39.691406 17.871094 41.164062 18.222656 42.617188 18.65625 C 42.707031 18.683594 42.667969 18.820312 42.578125 18.796875 C 41.132812 18.375 39.660156 18.015625 38.164062 17.832031 C 37.402344 17.738281 36.636719 17.667969 35.871094 17.671875 C 35.195312 17.675781 34.527344 17.773438 33.851562 17.789062 C 33.792969 17.792969 33.78125 17.703125 33.839844 17.6875 Z M 40.664062 19.558594 C 39.839844 19.316406 39.003906 19.097656 38.15625 18.96875 C 37.308594 18.839844 36.488281 18.878906 35.640625 18.824219 C 35.59375 18.824219 35.578125 18.75 35.628906 18.738281 C 36.367188 18.535156 37.234375 18.660156 37.980469 18.785156 C 38.902344 18.933594 39.804688 19.164062 40.695312 19.4375 C 40.773438 19.460938 40.738281 19.582031 40.664062 19.558594 Z M 29.058594 21.59375 C 29.300781 21.46875 29.5625 21.371094 29.828125 21.289062 C 30.09375 21.210938 30.367188 21.152344 30.640625 21.113281 C 30.917969 21.078125 31.191406 21.066406 31.457031 21.066406 C 31.726562 21.070312 31.984375 21.089844 32.234375 21.132812 C 32.734375 21.210938 33.183594 21.351562 33.554688 21.519531 C 33.929688 21.683594 34.222656 21.871094 34.421875 22.023438 C 34.617188 22.175781 34.722656 22.285156 34.722656 22.285156 C 34.777344 22.34375 34.773438 22.433594 34.71875 22.488281 L 34.679688 22.515625 L 34.675781 22.515625 C 34.675781 22.515625 34.539062 22.574219 34.316406 22.660156 C 34.09375 22.742188 33.78125 22.84375 33.425781 22.9375 C 33.417969 22.941406 33.414062 22.941406 33.410156 22.945312 C 34.929688 23.582031 35.984375 25.0625 36.046875 26.769531 L 37.863281 26.902344 C 38.195312 25.082031 39.640625 23.695312 41.425781 23.410156 C 41.265625 23.3125 41.125 23.222656 41.015625 23.144531 C 40.816406 23.007812 40.699219 22.914062 40.699219 22.914062 C 40.636719 22.863281 40.625 22.773438 40.675781 22.714844 L 40.710938 22.679688 C 40.710938 22.679688 40.84375 22.601562 41.074219 22.503906 C 41.304688 22.40625 41.636719 22.296875 42.039062 22.230469 C 42.441406 22.164062 42.914062 22.136719 43.417969 22.1875 C 43.671875 22.203125 43.933594 22.25 44.195312 22.308594 C 44.457031 22.371094 44.71875 22.453125 44.980469 22.558594 C 45.238281 22.664062 45.492188 22.785156 45.734375 22.933594 C 45.980469 23.074219 46.210938 23.242188 46.417969 23.425781 C 46.519531 23.519531 46.621094 23.613281 46.710938 23.710938 C 46.796875 23.8125 46.882812 23.90625 46.960938 24.003906 C 48.316406 24.667969 49.257812 26.023438 49.371094 27.585938 L 49.96875 27.546875 C 49.5 23.496094 48.382812 16.023438 48.382812 16.015625 C 38.824219 10.074219 28.953125 13.851562 28.953125 13.851562 C 28.625 14.785156 27.148438 19.570312 25.960938 23.441406 C 26.503906 22.972656 27.160156 22.636719 27.878906 22.484375 C 28.171875 22.152344 28.582031 21.832031 29.058594 21.59375 " fill-opacity="1" fill-rule="nonzero"/><path fill="#f0c2a8" d="M 31.371094 28.691406 C 30.921875 28.691406 30.554688 28.285156 30.554688 27.777344 C 30.554688 27.273438 30.921875 26.863281 31.371094 26.863281 C 31.824219 26.863281 32.1875 27.273438 32.1875 27.777344 C 32.1875 28.285156 31.824219 28.691406 31.371094 28.691406 Z M 28.914062 27.007812 C 28.742188 26.957031 28.574219 26.894531 28.417969 26.816406 C 28.292969 26.753906 28.109375 26.679688 28.082031 26.527344 C 28.074219 26.480469 28.09375 26.421875 28.148438 26.410156 C 28.300781 26.378906 28.433594 26.5 28.5625 26.5625 C 28.703125 26.628906 28.84375 26.679688 28.992188 26.722656 C 29.171875 26.777344 29.09375 27.058594 28.914062 27.007812 Z M 28.734375 27.953125 C 28.515625 27.972656 28.296875 27.992188 28.078125 28.011719 C 27.917969 28.023438 27.765625 28.058594 27.621094 27.964844 C 27.574219 27.933594 27.558594 27.859375 27.605469 27.820312 C 27.742188 27.699219 27.902344 27.710938 28.078125 27.703125 C 28.296875 27.691406 28.515625 27.679688 28.734375 27.664062 C 28.921875 27.65625 28.917969 27.941406 28.734375 27.953125 Z M 27.871094 27.074219 C 28.140625 27.058594 28.402344 27.128906 28.671875 27.152344 C 28.859375 27.164062 28.859375 27.464844 28.671875 27.449219 C 28.390625 27.421875 28.113281 27.363281 27.839844 27.304688 C 27.707031 27.273438 27.746094 27.082031 27.871094 27.074219 Z M 35.101562 26.933594 C 35.101562 25.183594 33.753906 23.699219 31.984375 23.570312 L 30.738281 23.480469 C 30.410156 23.535156 30.085938 23.585938 29.777344 23.636719 C 29.402344 23.699219 29.046875 23.761719 28.730469 23.828125 C 28.570312 23.863281 28.417969 23.898438 28.28125 23.929688 C 28.140625 23.960938 28.023438 24 27.914062 24.027344 C 27.703125 24.085938 27.558594 24.121094 27.558594 24.121094 L 27.542969 24.125 C 27.394531 24.160156 27.242188 24.066406 27.207031 23.917969 C 27.199219 23.882812 27.199219 23.851562 27.203125 23.816406 C 27.203125 23.816406 27.207031 23.785156 27.21875 23.730469 C 26.222656 24.253906 25.507812 25.269531 25.421875 26.484375 C 25.417969 26.566406 25.414062 26.648438 25.414062 26.730469 C 25.414062 28.375 26.601562 29.78125 28.210938 30.054688 C 28.722656 29.753906 29.375 29.597656 30.070312 29.652344 C 30.75 29.707031 31.355469 29.953125 31.8125 30.3125 C 33.523438 30.28125 34.96875 28.9375 35.09375 27.179688 L 35.09375 27.183594 C 35.097656 27.097656 35.101562 27.015625 35.101562 26.933594 " fill-opacity="1" fill-rule="nonzero"/><path fill="#f0c2a8" d="M 42.472656 26.863281 C 42.921875 26.863281 43.289062 27.273438 43.289062 27.777344 C 43.289062 28.28125 42.921875 28.691406 42.472656 28.691406 C 42.023438 28.691406 41.65625 28.28125 41.65625 27.777344 C 41.65625 27.273438 42.023438 26.863281 42.472656 26.863281 Z M 44.945312 27.882812 C 45.101562 27.859375 45.257812 27.828125 45.410156 27.78125 C 45.542969 27.738281 45.695312 27.640625 45.835938 27.6875 C 45.878906 27.699219 45.917969 27.753906 45.898438 27.804688 C 45.84375 27.953125 45.679688 28 45.539062 28.046875 C 45.371094 28.101562 45.199219 28.140625 45.023438 28.164062 C 44.839844 28.191406 44.761719 27.90625 44.945312 27.882812 Z M 46.007812 28.617188 C 45.742188 28.636719 45.472656 28.660156 45.203125 28.644531 C 45.015625 28.632812 45.015625 28.332031 45.203125 28.34375 C 45.484375 28.363281 45.761719 28.332031 46.039062 28.390625 C 46.175781 28.417969 46.132812 28.609375 46.007812 28.617188 Z M 46.175781 29.152344 C 46.210938 29.195312 46.214844 29.273438 46.15625 29.296875 C 45.988281 29.375 45.839844 29.320312 45.667969 29.28125 C 45.457031 29.230469 45.242188 29.179688 45.03125 29.128906 C 44.847656 29.085938 44.925781 28.816406 45.105469 28.851562 C 45.320312 28.894531 45.535156 28.9375 45.75 28.984375 C 45.910156 29.015625 46.0625 29.023438 46.175781 29.152344 Z M 38.742188 27.691406 C 38.742188 29.378906 39.996094 30.8125 41.667969 31.03125 C 42.15625 30.78125 42.757812 30.652344 43.394531 30.703125 C 44.015625 30.753906 44.578125 30.964844 45.019531 31.277344 C 45.039062 31.277344 45.058594 31.28125 45.078125 31.28125 C 46.820312 31.28125 48.296875 29.921875 48.425781 28.144531 C 48.429688 28.0625 48.433594 27.980469 48.433594 27.898438 C 48.433594 27.066406 48.125 26.296875 47.617188 25.703125 C 47.617188 25.710938 47.617188 25.71875 47.617188 25.726562 C 47.621094 25.859375 47.601562 25.96875 47.597656 26.039062 C 47.589844 26.109375 47.582031 26.148438 47.582031 26.148438 C 47.550781 26.296875 47.402344 26.390625 47.253906 26.355469 C 47.21875 26.351562 47.1875 26.335938 47.160156 26.316406 L 47.140625 26.304688 C 47.140625 26.304688 47.019531 26.222656 46.84375 26.097656 C 46.746094 26.039062 46.65625 25.960938 46.527344 25.894531 C 46.414062 25.820312 46.28125 25.746094 46.144531 25.671875 C 46.003906 25.597656 45.855469 25.523438 45.699219 25.445312 C 45.617188 25.410156 45.539062 25.367188 45.457031 25.332031 C 45.371094 25.300781 45.292969 25.253906 45.203125 25.214844 C 44.847656 25.0625 44.46875 24.898438 44.089844 24.730469 C 43.839844 24.617188 43.578125 24.507812 43.320312 24.390625 L 42.34375 24.320312 C 42.261719 24.3125 42.179688 24.3125 42.097656 24.3125 C 40.351562 24.3125 38.878906 25.667969 38.75 27.445312 C 38.746094 27.527344 38.742188 27.609375 38.742188 27.691406 " fill-opacity="1" fill-rule="nonzero"/><path fill="#f0c2a8" d="M 35.523438 43.703125 C 38.21875 44.085938 41 43.902344 43.480469 43.074219 C 44.0625 42.882812 44.625 42.652344 45.167969 42.386719 C 46.65625 41.660156 47.984375 40.65625 49.035156 39.347656 C 50.535156 37.460938 51.410156 35.148438 51.789062 32.746094 C 51.035156 32.84375 50.367188 32.644531 50.023438 31.980469 L 50.464844 29.800781 L 50.167969 29.96875 C 50.1875 29.746094 50.148438 29.222656 50.074219 28.5 L 49.335938 28.550781 C 49.054688 30.417969 47.609375 31.863281 45.804688 32.171875 C 45.953125 32.472656 46.023438 32.800781 45.996094 33.140625 C 45.902344 34.363281 44.582031 35.261719 43.046875 35.140625 C 43.046875 35.140625 43.042969 35.140625 43.039062 35.140625 C 43.429688 35.242188 43.835938 35.328125 44.265625 35.386719 C 44.433594 37.664062 41.285156 38.316406 38.851562 37.960938 C 38.109375 38.4375 37.199219 38.695312 36.328125 38.632812 C 35.621094 38.585938 34.9375 38.355469 34.363281 37.960938 C 31.929688 38.316406 28.78125 37.664062 28.945312 35.386719 C 30.773438 35.144531 32.121094 34.429688 33.785156 33.710938 C 34.210938 33.53125 34.8125 33.308594 35.417969 33.210938 C 35.277344 33.066406 35.152344 32.929688 35.042969 32.796875 C 34.816406 32.519531 34.660156 32.265625 34.5625 32.011719 C 34.5 31.84375 34.464844 31.679688 34.464844 31.511719 C 34.464844 31.296875 34.53125 31.089844 34.636719 30.925781 C 34.738281 30.761719 34.871094 30.644531 35.007812 30.546875 C 35.28125 30.359375 35.574219 30.253906 35.808594 30.164062 C 35.960938 30.105469 36.09375 30.050781 36.144531 30.019531 C 36.320312 29.917969 36.425781 29.785156 36.511719 29.589844 C 36.59375 29.394531 36.636719 29.136719 36.636719 28.839844 L 36.636719 28.800781 C 36.632812 28.554688 36.832031 28.351562 37.078125 28.347656 C 37.324219 28.347656 37.523438 28.546875 37.527344 28.792969 L 37.527344 28.839844 C 37.527344 29.21875 37.476562 29.59375 37.332031 29.9375 C 37.191406 30.28125 36.941406 30.59375 36.589844 30.796875 C 36.488281 30.855469 36.386719 30.898438 36.285156 30.9375 C 36.183594 30.980469 36.082031 31.015625 35.980469 31.058594 C 35.78125 31.132812 35.59375 31.222656 35.488281 31.304688 C 35.414062 31.363281 35.382812 31.40625 35.371094 31.441406 C 35.363281 31.460938 35.359375 31.480469 35.359375 31.511719 C 35.359375 31.550781 35.367188 31.609375 35.398438 31.691406 C 35.429688 31.777344 35.484375 31.886719 35.574219 32.015625 C 35.753906 32.277344 36.066406 32.625 36.546875 33.050781 C 36.609375 33.101562 36.648438 33.167969 36.671875 33.238281 C 37.558594 32.996094 38.730469 33.417969 39.429688 33.710938 C 40.144531 34.019531 40.804688 34.328125 41.46875 34.597656 C 40.796875 34.140625 40.386719 33.445312 40.445312 32.703125 C 40.46875 32.375 40.585938 32.074219 40.765625 31.804688 C 39.074219 31.253906 37.867188 29.6875 37.796875 27.859375 L 35.980469 27.726562 C 35.65625 29.511719 34.257812 30.886719 32.519531 31.203125 C 32.640625 31.480469 32.695312 31.78125 32.671875 32.089844 C 32.574219 33.3125 31.253906 34.210938 29.722656 34.089844 C 28.1875 33.964844 27.027344 32.875 27.125 31.652344 C 27.144531 31.355469 27.242188 31.078125 27.394531 30.828125 C 26.027344 30.367188 24.984375 29.242188 24.609375 27.855469 C 24.46875 28.328125 24.382812 28.601562 24.382812 28.601562 L 24.082031 30.015625 C 24.082031 30.015625 24.082031 30.011719 24.082031 30.011719 C 23.539062 32.882812 23.4375 35.890625 25.417969 38.417969 C 27.53125 41.085938 30.996094 42.871094 34.726562 43.570312 C 34.988281 43.621094 35.253906 43.664062 35.523438 43.703125 " fill-opacity="1" fill-rule="nonzero"/><g clip-path="url(#9e6c665010)"><path fill="#e9e9e9" d="M 24.980469 21.171875 C 25 20.445312 25.007812 19.402344 25.109375 18.152344 C 25.214844 16.90625 25.363281 15.445312 25.75 13.914062 C 25.945312 13.148438 26.1875 12.363281 26.535156 11.601562 C 26.710938 11.222656 26.902344 10.84375 27.128906 10.484375 C 27.355469 10.121094 27.609375 9.773438 27.898438 9.453125 C 28.1875 9.136719 28.511719 8.839844 28.863281 8.59375 C 29.179688 8.347656 29.574219 8.132812 29.957031 7.9375 C 30.714844 7.566406 31.515625 7.363281 32.28125 7.195312 C 33.054688 7.023438 33.8125 6.957031 34.523438 6.894531 C 35.238281 6.847656 35.914062 6.820312 36.539062 6.816406 C 37.160156 6.804688 37.730469 6.820312 38.234375 6.839844 C 38.742188 6.855469 39.179688 6.871094 39.542969 6.882812 C 40.265625 6.914062 40.679688 6.933594 40.679688 6.933594 C 40.707031 6.933594 40.730469 6.957031 40.726562 6.984375 C 40.726562 7.011719 40.707031 7.035156 40.679688 7.035156 C 40.679688 7.035156 40.265625 7.054688 39.539062 7.070312 C 39.179688 7.078125 38.738281 7.085938 38.234375 7.097656 C 37.730469 7.109375 37.164062 7.128906 36.546875 7.15625 C 35.929688 7.179688 35.261719 7.230469 34.5625 7.300781 C 33.863281 7.386719 33.125 7.480469 32.378906 7.652344 C 31.640625 7.824219 30.878906 8.042969 30.167969 8.390625 C 29.824219 8.570312 29.492188 8.742188 29.160156 9.007812 C 28.832031 9.234375 28.542969 9.5 28.273438 9.796875 C 28.003906 10.089844 27.765625 10.414062 27.550781 10.753906 C 27.332031 11.089844 27.148438 11.445312 26.980469 11.808594 C 26.644531 12.535156 26.382812 13.285156 26.183594 14.027344 C 25.777344 15.511719 25.554688 16.949219 25.410156 18.183594 C 25.265625 19.417969 25.171875 20.453125 25.121094 21.179688 C 25.058594 21.902344 25.027344 22.316406 25.027344 22.316406 L 25 22.339844 L 24.976562 22.316406 C 24.976562 22.316406 24.972656 21.898438 24.980469 21.171875 Z M 44.363281 9.164062 C 44.960938 9.328125 45.542969 9.527344 46.082031 9.777344 C 46.625 10.023438 47.125 10.308594 47.566406 10.628906 C 48.015625 10.941406 48.398438 11.292969 48.730469 11.628906 C 48.886719 11.808594 49.050781 11.96875 49.179688 12.144531 C 49.304688 12.320312 49.4375 12.476562 49.539062 12.640625 C 49.640625 12.804688 49.738281 12.957031 49.824219 13.097656 C 49.902344 13.242188 49.972656 13.378906 50.035156 13.5 C 50.105469 13.621094 50.15625 13.730469 50.195312 13.832031 C 50.234375 13.929688 50.269531 14.015625 50.296875 14.082031 C 50.355469 14.21875 50.386719 14.289062 50.386719 14.289062 C 50.394531 14.316406 50.382812 14.34375 50.359375 14.355469 C 50.332031 14.367188 50.304688 14.355469 50.292969 14.332031 L 50.292969 14.328125 C 50.292969 14.328125 50.253906 14.261719 50.183594 14.132812 C 50.109375 14.011719 50.027344 13.816406 49.875 13.589844 C 49.804688 13.476562 49.726562 13.351562 49.640625 13.214844 C 49.546875 13.082031 49.441406 12.941406 49.332031 12.792969 C 49.101562 12.5 48.816406 12.191406 48.496094 11.871094 C 48.160156 11.5625 47.78125 11.242188 47.339844 10.96875 C 46.90625 10.679688 46.414062 10.433594 45.894531 10.207031 C 45.378906 9.976562 44.8125 9.804688 44.234375 9.648438 C 43.660156 9.492188 43.058594 9.386719 42.453125 9.300781 C 41.851562 9.210938 41.242188 9.164062 40.640625 9.128906 C 40.035156 9.101562 39.441406 9.085938 38.867188 9.089844 C 37.714844 9.101562 36.636719 9.148438 35.714844 9.222656 C 34.789062 9.292969 34.019531 9.351562 33.480469 9.40625 C 32.9375 9.453125 32.628906 9.480469 32.628906 9.480469 L 32.601562 9.457031 L 32.625 9.429688 C 32.625 9.429688 32.925781 9.367188 33.460938 9.269531 C 33.996094 9.179688 34.757812 9.035156 35.683594 8.917969 C 36.605469 8.804688 37.6875 8.679688 38.855469 8.640625 C 39.441406 8.625 40.046875 8.609375 40.660156 8.636719 C 41.277344 8.667969 41.902344 8.707031 42.523438 8.796875 C 43.144531 8.886719 43.765625 9 44.363281 9.164062 Z M 51.121094 20.378906 C 51.167969 20.847656 51.1875 21.3125 51.210938 21.761719 C 51.246094 22.65625 51.25 23.488281 51.257812 24.199219 C 51.265625 24.910156 51.269531 25.503906 51.292969 25.917969 C 51.308594 26.332031 51.320312 26.570312 51.320312 26.570312 C 51.324219 26.601562 51.300781 26.625 51.273438 26.625 C 51.246094 26.625 51.222656 26.609375 51.21875 26.582031 C 51.21875 26.582031 51.210938 26.523438 51.1875 26.414062 C 51.167969 26.304688 51.136719 26.140625 51.109375 25.933594 C 51.050781 25.519531 50.972656 24.929688 50.917969 24.214844 C 50.855469 23.503906 50.808594 22.671875 50.746094 21.785156 C 50.714844 21.34375 50.671875 20.890625 50.625 20.429688 C 50.574219 19.96875 50.519531 19.5 50.4375 19.039062 C 50.359375 18.582031 50.269531 18.121094 50.140625 17.683594 C 50.011719 17.246094 49.878906 16.816406 49.695312 16.425781 C 49.515625 16.035156 49.324219 15.660156 49.09375 15.34375 C 48.871094 15.015625 48.621094 14.734375 48.375 14.492188 C 48.125 14.253906 47.878906 14.054688 47.644531 13.890625 C 47.527344 13.8125 47.417969 13.738281 47.3125 13.671875 C 47.203125 13.613281 47.105469 13.558594 47.015625 13.511719 C 46.839844 13.410156 46.683594 13.347656 46.585938 13.300781 C 46.484375 13.25 46.429688 13.226562 46.429688 13.226562 L 46.417969 13.191406 L 46.449219 13.179688 C 46.449219 13.179688 46.507812 13.195312 46.613281 13.230469 C 46.714844 13.265625 46.875 13.296875 47.070312 13.382812 C 47.167969 13.425781 47.273438 13.46875 47.390625 13.519531 C 47.507812 13.574219 47.625 13.640625 47.757812 13.707031 C 48.015625 13.847656 48.296875 14.03125 48.578125 14.261719 C 48.71875 14.378906 48.859375 14.511719 49 14.648438 C 49.132812 14.792969 49.277344 14.941406 49.402344 15.113281 C 49.667969 15.441406 49.898438 15.820312 50.101562 16.234375 C 50.511719 17.054688 50.769531 18.003906 50.9375 18.953125 C 51.019531 19.429688 51.074219 19.910156 51.121094 20.378906 Z M 51.613281 17.433594 C 51.625 16.941406 51.667969 16.613281 51.667969 16.613281 L 51.699219 16.589844 L 51.71875 16.609375 C 51.71875 16.609375 51.820312 16.925781 51.917969 17.40625 C 51.96875 17.648438 52.019531 17.929688 52.0625 18.230469 C 52.082031 18.382812 52.109375 18.539062 52.125 18.699219 C 52.140625 18.859375 52.160156 19.019531 52.175781 19.183594 C 52.183594 19.347656 52.1875 19.511719 52.195312 19.671875 C 52.199219 19.832031 52.195312 19.992188 52.195312 20.148438 C 52.195312 20.453125 52.1875 20.742188 52.171875 20.988281 C 52.140625 21.480469 52.082031 21.804688 52.082031 21.804688 C 52.078125 21.835938 52.050781 21.851562 52.023438 21.847656 L 51.980469 21.804688 C 51.980469 21.804688 51.898438 21.480469 51.828125 20.996094 C 51.792969 20.753906 51.757812 20.472656 51.730469 20.171875 C 51.722656 20.019531 51.703125 19.867188 51.695312 19.707031 C 51.6875 19.546875 51.679688 19.386719 51.671875 19.226562 C 51.660156 19.0625 51.648438 18.902344 51.636719 18.742188 C 51.625 18.582031 51.625 18.421875 51.617188 18.269531 C 51.605469 17.964844 51.605469 17.679688 51.613281 17.433594 Z M 38.980469 11.378906 L 38.976562 11.378906 C 38.976562 11.378906 38.707031 11.375 38.234375 11.359375 C 37.996094 11.351562 37.710938 11.34375 37.382812 11.332031 C 37.054688 11.316406 36.679688 11.339844 36.277344 11.339844 C 35.875 11.347656 35.433594 11.332031 34.976562 11.371094 C 34.515625 11.398438 34.03125 11.429688 33.53125 11.460938 C 33.027344 11.519531 32.507812 11.582031 31.976562 11.644531 C 31.917969 11.652344 31.828125 11.660156 31.792969 11.667969 L 31.601562 11.707031 L 31.214844 11.789062 C 30.960938 11.84375 30.710938 11.933594 30.460938 12.003906 C 29.972656 12.1875 29.484375 12.382812 29.066406 12.675781 C 28.84375 12.804688 28.660156 12.976562 28.460938 13.128906 C 28.367188 13.214844 28.285156 13.304688 28.195312 13.390625 L 28.066406 13.523438 C 28.023438 13.566406 27.988281 13.617188 27.949219 13.664062 C 27.875 13.761719 27.800781 13.855469 27.726562 13.949219 C 27.660156 14.050781 27.597656 14.152344 27.535156 14.25 C 27.398438 14.441406 27.3125 14.660156 27.203125 14.859375 C 27.109375 15.066406 27.035156 15.273438 26.957031 15.472656 C 26.894531 15.679688 26.828125 15.878906 26.773438 16.070312 C 26.730469 16.265625 26.683594 16.453125 26.644531 16.632812 C 26.609375 16.8125 26.582031 16.984375 26.550781 17.148438 C 26.496094 17.472656 26.472656 17.757812 26.441406 17.992188 C 26.402344 18.46875 26.382812 18.738281 26.382812 18.738281 L 26.355469 18.761719 L 26.332031 18.738281 C 26.332031 18.738281 26.316406 18.464844 26.304688 17.988281 C 26.316406 17.75 26.308594 17.457031 26.335938 17.121094 C 26.351562 16.957031 26.367188 16.777344 26.382812 16.589844 C 26.410156 16.402344 26.441406 16.207031 26.476562 16 C 26.519531 15.796875 26.574219 15.585938 26.625 15.367188 C 26.695312 15.152344 26.765625 14.929688 26.851562 14.707031 C 26.953125 14.488281 27.035156 14.25 27.171875 14.035156 C 27.238281 13.925781 27.300781 13.8125 27.367188 13.703125 C 27.445312 13.597656 27.523438 13.492188 27.601562 13.382812 C 27.644531 13.332031 27.679688 13.277344 27.722656 13.222656 L 27.859375 13.074219 C 27.953125 12.976562 28.042969 12.875 28.140625 12.78125 C 28.351562 12.605469 28.554688 12.410156 28.792969 12.265625 C 29.25 11.9375 29.773438 11.71875 30.296875 11.519531 C 30.566406 11.445312 30.832031 11.355469 31.101562 11.296875 L 31.507812 11.214844 L 31.710938 11.171875 C 31.804688 11.15625 31.851562 11.15625 31.921875 11.144531 C 32.453125 11.09375 32.976562 11.042969 33.480469 10.996094 C 33.992188 10.96875 34.492188 10.96875 34.960938 10.957031 C 35.433594 10.933594 35.875 10.980469 36.285156 10.996094 C 36.691406 11.019531 37.066406 11.027344 37.394531 11.074219 C 37.726562 11.113281 38.011719 11.148438 38.25 11.175781 C 38.71875 11.238281 38.988281 11.277344 38.988281 11.277344 C 39.015625 11.28125 39.035156 11.308594 39.03125 11.335938 C 39.027344 11.359375 39.003906 11.378906 38.980469 11.378906 Z M 24.382812 28.601562 C 24.382812 28.601562 24.46875 28.328125 24.609375 27.855469 C 24.515625 27.496094 24.460938 27.117188 24.460938 26.730469 C 24.460938 26.625 24.464844 26.519531 24.472656 26.414062 C 24.558594 25.214844 25.121094 24.167969 25.960938 23.441406 C 27.148438 19.570312 28.625 14.785156 28.953125 13.851562 C 28.953125 13.851562 38.824219 10.074219 48.382812 16.011719 C 48.382812 16.023438 49.5 23.496094 49.96875 27.546875 L 52.671875 27.355469 C 52.890625 27.339844 53.085938 27.476562 53.152344 27.675781 C 53.253906 27.648438 53.351562 27.625 53.449219 27.601562 C 53.695312 26.933594 53.863281 25.925781 53.828125 24.414062 C 53.726562 19.597656 53.511719 14.488281 51.875 12.265625 C 50.242188 10.042969 49.046875 6.789062 42.992188 6.199219 C 36.9375 5.613281 32.703125 5.023438 29.152344 6.570312 C 25.601562 8.117188 25.101562 10.328125 24.65625 13.222656 C 24.160156 16.417969 23.773438 28.027344 24.082031 30.011719 C 24.082031 30.011719 24.082031 30.015625 24.082031 30.015625 L 24.382812 28.601562 " fill-opacity="1" fill-rule="nonzero"/></g><path fill="#e9e9e9" d="M 51.679688 28.386719 L 50.074219 28.5 C 50.148438 29.222656 50.183594 29.746094 50.167969 29.96875 L 50.464844 29.800781 L 50.519531 29.535156 C 50.785156 29.113281 51.203125 28.714844 51.679688 28.386719 " fill-opacity="1" fill-rule="nonzero"/><path fill="#f0c2a8" d="M 53.179688 27.800781 C 53.199219 28.066406 53 28.292969 52.738281 28.3125 L 51.679688 28.386719 C 51.203125 28.714844 50.785156 29.113281 50.519531 29.535156 L 50.464844 29.800781 L 50.023438 31.980469 C 50.367188 32.644531 51.035156 32.84375 51.789062 32.746094 C 53.308594 32.550781 55.167969 31.144531 55.390625 29.921875 C 55.832031 27.859375 54.742188 27.339844 53.449219 27.605469 C 53.351562 27.625 53.253906 27.648438 53.152344 27.675781 C 53.167969 27.714844 53.179688 27.757812 53.179688 27.800781 " fill-opacity="1" fill-rule="nonzero"/><path fill="#f5ad98" d="M 41.667969 31.035156 C 41.730469 31.042969 41.796875 31.050781 41.863281 31.058594 L 44.832031 31.273438 C 44.894531 31.277344 44.957031 31.277344 45.019531 31.277344 C 44.578125 30.964844 44.015625 30.753906 43.394531 30.703125 C 42.757812 30.65625 42.15625 30.78125 41.667969 31.035156 " fill-opacity="1" fill-rule="nonzero"/><path fill="#f5ad98" d="M 44.765625 32.226562 L 41.792969 32.011719 C 41.4375 31.988281 41.09375 31.914062 40.765625 31.808594 C 40.585938 32.074219 40.46875 32.375 40.445312 32.703125 C 40.386719 33.445312 40.796875 34.140625 41.46875 34.597656 C 41.980469 34.804688 42.496094 34.992188 43.039062 35.140625 C 43.042969 35.140625 43.042969 35.140625 43.046875 35.140625 C 44.582031 35.261719 45.902344 34.363281 45.996094 33.140625 C 46.023438 32.804688 45.953125 32.472656 45.804688 32.175781 C 45.566406 32.214844 45.324219 32.238281 45.078125 32.238281 C 44.972656 32.238281 44.867188 32.234375 44.765625 32.226562 " fill-opacity="1" fill-rule="nonzero"/><path fill="#f5ad98" d="M 28.210938 30.054688 C 28.316406 30.070312 28.421875 30.085938 28.53125 30.09375 L 31.503906 30.308594 C 31.585938 30.3125 31.667969 30.316406 31.75 30.316406 C 31.769531 30.316406 31.789062 30.3125 31.8125 30.3125 C 31.355469 29.953125 30.75 29.707031 30.070312 29.65625 C 29.375 29.601562 28.722656 29.753906 28.210938 30.054688 " fill-opacity="1" fill-rule="nonzero"/><path fill="#f5ad98" d="M 31.433594 31.261719 L 28.464844 31.046875 C 28.089844 31.023438 27.734375 30.945312 27.394531 30.828125 C 27.242188 31.078125 27.144531 31.355469 27.125 31.652344 C 27.027344 32.875 28.1875 33.964844 29.722656 34.089844 C 31.253906 34.210938 32.574219 33.3125 32.671875 32.089844 C 32.695312 31.78125 32.640625 31.480469 32.519531 31.203125 C 32.269531 31.25 32.011719 31.273438 31.75 31.273438 C 31.644531 31.273438 31.539062 31.269531 31.433594 31.261719 " fill-opacity="1" fill-rule="nonzero"/><path fill="#f7987e" d="M 36.605469 33.253906 C 36.628906 33.246094 36.652344 33.242188 36.671875 33.238281 C 36.648438 33.167969 36.609375 33.101562 36.546875 33.050781 C 36.066406 32.625 35.753906 32.277344 35.574219 32.015625 C 35.484375 31.886719 35.429688 31.777344 35.398438 31.691406 C 35.367188 31.609375 35.359375 31.550781 35.359375 31.511719 C 35.359375 31.480469 35.363281 31.460938 35.371094 31.441406 C 35.382812 31.40625 35.414062 31.363281 35.488281 31.304688 C 35.59375 31.222656 35.78125 31.132812 35.980469 31.054688 C 36.082031 31.015625 36.183594 30.980469 36.285156 30.9375 C 36.386719 30.898438 36.488281 30.855469 36.589844 30.796875 C 36.941406 30.59375 37.191406 30.28125 37.332031 29.9375 C 37.476562 29.59375 37.527344 29.21875 37.527344 28.839844 L 37.527344 28.792969 C 37.523438 28.546875 37.324219 28.347656 37.078125 28.347656 C 36.832031 28.351562 36.632812 28.554688 36.636719 28.800781 L 36.636719 28.839844 C 36.636719 29.136719 36.59375 29.394531 36.511719 29.589844 C 36.425781 29.785156 36.320312 29.917969 36.144531 30.019531 C 36.09375 30.050781 35.960938 30.105469 35.808594 30.164062 C 35.574219 30.253906 35.28125 30.359375 35.007812 30.546875 C 34.871094 30.644531 34.738281 30.765625 34.636719 30.925781 C 34.53125 31.089844 34.464844 31.296875 34.464844 31.511719 C 34.464844 31.679688 34.5 31.84375 34.5625 32.011719 C 34.660156 32.261719 34.816406 32.515625 35.042969 32.796875 C 35.152344 32.929688 35.277344 33.066406 35.417969 33.210938 C 35.832031 33.144531 36.246094 33.140625 36.605469 33.253906 " fill-opacity="1" fill-rule="nonzero"/><path fill="#e9e9e9" d="M 34.316406 22.660156 C 34.539062 22.574219 34.675781 22.515625 34.675781 22.515625 L 34.679688 22.515625 L 34.71875 22.488281 C 34.773438 22.433594 34.777344 22.34375 34.722656 22.285156 C 34.722656 22.285156 34.617188 22.175781 34.421875 22.019531 C 34.222656 21.871094 33.929688 21.683594 33.554688 21.519531 C 33.183594 21.351562 32.734375 21.210938 32.234375 21.132812 C 31.984375 21.089844 31.726562 21.070312 31.457031 21.066406 C 31.191406 21.066406 30.917969 21.078125 30.640625 21.113281 C 30.367188 21.148438 30.09375 21.210938 29.828125 21.289062 C 29.5625 21.371094 29.300781 21.46875 29.058594 21.59375 C 28.582031 21.832031 28.171875 22.152344 27.878906 22.484375 C 28.167969 22.421875 28.464844 22.386719 28.769531 22.386719 C 28.871094 22.386719 28.976562 22.390625 29.082031 22.398438 L 32.050781 22.613281 C 32.535156 22.648438 32.988281 22.765625 33.410156 22.941406 C 33.414062 22.941406 33.417969 22.941406 33.425781 22.9375 C 33.78125 22.84375 34.09375 22.738281 34.316406 22.660156 " fill-opacity="1" fill-rule="nonzero"/><path fill="#e9e9e9" d="M 27.207031 23.917969 C 27.242188 24.066406 27.394531 24.160156 27.542969 24.125 L 27.558594 24.121094 C 27.558594 24.121094 27.703125 24.085938 27.914062 24.027344 C 28.023438 24 28.140625 23.960938 28.28125 23.929688 C 28.417969 23.894531 28.570312 23.863281 28.730469 23.828125 C 29.046875 23.761719 29.402344 23.699219 29.777344 23.636719 C 30.085938 23.585938 30.410156 23.53125 30.738281 23.480469 L 29.011719 23.355469 C 28.929688 23.351562 28.851562 23.347656 28.769531 23.347656 C 28.214844 23.347656 27.6875 23.484375 27.21875 23.730469 C 27.207031 23.785156 27.203125 23.816406 27.203125 23.816406 C 27.199219 23.847656 27.199219 23.882812 27.207031 23.917969 " fill-opacity="1" fill-rule="nonzero"/><path fill="#e9e9e9" d="M 46.417969 23.425781 C 46.210938 23.242188 45.980469 23.074219 45.734375 22.929688 C 45.492188 22.78125 45.238281 22.664062 44.980469 22.558594 C 44.71875 22.453125 44.457031 22.371094 44.195312 22.308594 C 43.933594 22.25 43.671875 22.203125 43.421875 22.183594 C 42.914062 22.136719 42.441406 22.164062 42.039062 22.230469 C 41.636719 22.296875 41.304688 22.40625 41.074219 22.503906 C 40.84375 22.601562 40.710938 22.679688 40.710938 22.679688 L 40.675781 22.714844 C 40.628906 22.773438 40.636719 22.863281 40.699219 22.914062 C 40.699219 22.914062 40.816406 23.007812 41.015625 23.144531 C 41.125 23.222656 41.265625 23.3125 41.425781 23.410156 C 41.644531 23.375 41.867188 23.351562 42.097656 23.351562 C 42.203125 23.351562 42.304688 23.355469 42.410156 23.363281 L 45.386719 23.578125 C 45.949219 23.617188 46.480469 23.769531 46.960938 24.003906 C 46.882812 23.90625 46.796875 23.808594 46.710938 23.710938 C 46.621094 23.613281 46.519531 23.519531 46.417969 23.425781 " fill-opacity="1" fill-rule="nonzero"/><path fill="#e9e9e9" d="M 45.203125 25.214844 C 45.292969 25.253906 45.371094 25.300781 45.457031 25.332031 C 45.539062 25.371094 45.617188 25.410156 45.699219 25.445312 C 45.855469 25.519531 46.003906 25.597656 46.144531 25.671875 C 46.28125 25.746094 46.414062 25.820312 46.527344 25.894531 C 46.652344 25.960938 46.746094 26.039062 46.84375 26.097656 C 47.019531 26.222656 47.140625 26.304688 47.140625 26.304688 L 47.160156 26.316406 C 47.1875 26.335938 47.21875 26.347656 47.253906 26.359375 C 47.402344 26.390625 47.550781 26.296875 47.582031 26.148438 C 47.582031 26.148438 47.589844 26.109375 47.597656 26.039062 C 47.601562 25.96875 47.621094 25.859375 47.617188 25.726562 C 47.617188 25.71875 47.617188 25.710938 47.617188 25.699219 C 47.054688 25.042969 46.246094 24.601562 45.316406 24.535156 L 43.320312 24.390625 C 43.578125 24.503906 43.839844 24.617188 44.089844 24.730469 C 44.46875 24.894531 44.847656 25.0625 45.203125 25.214844 " fill-opacity="1" fill-rule="nonzero"/><path fill="#f4959d" d="M 34.363281 37.960938 C 34.9375 38.355469 35.617188 38.585938 36.328125 38.632812 C 37.199219 38.695312 38.109375 38.4375 38.851562 37.960938 C 37.925781 37.824219 37.105469 37.546875 36.605469 37.152344 C 36.109375 37.546875 35.289062 37.824219 34.363281 37.960938 " fill-opacity="1" fill-rule="nonzero"/><path fill="#f7987e" d="M 33.851562 17.789062 C 34.527344 17.773438 35.195312 17.675781 35.871094 17.671875 C 36.636719 17.671875 37.402344 17.738281 38.164062 17.832031 C 39.660156 18.015625 41.132812 18.375 42.578125 18.796875 C 42.667969 18.820312 42.707031 18.683594 42.617188 18.65625 C 41.164062 18.226562 39.6875 17.871094 38.1875 17.664062 C 36.8125 17.472656 35.191406 17.3125 33.839844 17.6875 C 33.78125 17.703125 33.792969 17.792969 33.851562 17.789062 " fill-opacity="1" fill-rule="nonzero"/><path fill="#f7987e" d="M 40.695312 19.4375 C 39.804688 19.164062 38.902344 18.933594 37.980469 18.78125 C 37.234375 18.660156 36.367188 18.535156 35.628906 18.738281 C 35.578125 18.75 35.59375 18.824219 35.640625 18.824219 C 36.488281 18.878906 37.308594 18.839844 38.15625 18.96875 C 39.003906 19.097656 39.839844 19.316406 40.664062 19.558594 C 40.738281 19.582031 40.773438 19.460938 40.695312 19.4375 " fill-opacity="1" fill-rule="nonzero"/><path fill="#f7987e" d="M 28.992188 26.722656 C 28.84375 26.679688 28.703125 26.628906 28.5625 26.5625 C 28.433594 26.5 28.300781 26.378906 28.148438 26.410156 C 28.09375 26.421875 28.074219 26.480469 28.082031 26.527344 C 28.109375 26.679688 28.292969 26.753906 28.417969 26.816406 C 28.574219 26.894531 28.742188 26.957031 28.914062 27.007812 C 29.09375 27.058594 29.171875 26.777344 28.992188 26.722656 " fill-opacity="1" fill-rule="nonzero"/><path fill="#f7987e" d="M 27.839844 27.304688 C 28.113281 27.363281 28.390625 27.421875 28.671875 27.449219 C 28.859375 27.464844 28.859375 27.167969 28.671875 27.152344 C 28.402344 27.128906 28.140625 27.058594 27.871094 27.074219 C 27.746094 27.082031 27.707031 27.273438 27.839844 27.304688 " fill-opacity="1" fill-rule="nonzero"/><path fill="#f7987e" d="M 28.734375 27.667969 C 28.515625 27.679688 28.296875 27.691406 28.078125 27.703125 C 27.902344 27.710938 27.742188 27.699219 27.605469 27.820312 C 27.558594 27.859375 27.574219 27.933594 27.621094 27.964844 C 27.765625 28.058594 27.917969 28.027344 28.078125 28.011719 C 28.296875 27.992188 28.515625 27.972656 28.734375 27.957031 C 28.917969 27.941406 28.921875 27.65625 28.734375 27.667969 " fill-opacity="1" fill-rule="nonzero"/><path fill="#f7987e" d="M 45.023438 28.164062 C 45.199219 28.140625 45.371094 28.101562 45.539062 28.046875 C 45.679688 28 45.84375 27.953125 45.898438 27.804688 C 45.917969 27.753906 45.878906 27.699219 45.835938 27.6875 C 45.695312 27.640625 45.542969 27.738281 45.410156 27.78125 C 45.257812 27.828125 45.101562 27.859375 44.945312 27.882812 C 44.761719 27.90625 44.839844 28.191406 45.023438 28.164062 " fill-opacity="1" fill-rule="nonzero"/><path fill="#f7987e" d="M 45.203125 28.644531 C 45.472656 28.660156 45.742188 28.636719 46.007812 28.617188 C 46.132812 28.609375 46.175781 28.417969 46.039062 28.390625 C 45.761719 28.332031 45.484375 28.363281 45.203125 28.347656 C 45.015625 28.332031 45.015625 28.632812 45.203125 28.644531 " fill-opacity="1" fill-rule="nonzero"/><path fill="#f7987e" d="M 45.105469 28.851562 C 44.925781 28.816406 44.847656 29.089844 45.03125 29.128906 C 45.242188 29.179688 45.453125 29.230469 45.667969 29.28125 C 45.839844 29.320312 45.988281 29.375 46.15625 29.300781 C 46.210938 29.273438 46.210938 29.195312 46.171875 29.152344 C 46.0625 29.023438 45.90625 29.015625 45.75 28.984375 C 45.535156 28.9375 45.320312 28.894531 45.105469 28.851562 " fill-opacity="1" fill-rule="nonzero"/><path fill="#ffffff" d="M 45.078125 31.28125 C 45.058594 31.28125 45.039062 31.277344 45.019531 31.277344 C 44.957031 31.277344 44.894531 31.277344 44.832031 31.273438 L 41.863281 31.054688 C 41.796875 31.050781 41.730469 31.042969 41.667969 31.035156 C 39.996094 30.8125 38.742188 29.378906 38.742188 27.691406 C 38.742188 27.609375 38.746094 27.527344 38.75 27.445312 C 38.878906 25.667969 40.351562 24.3125 42.097656 24.3125 C 42.179688 24.3125 42.261719 24.3125 42.34375 24.320312 L 43.320312 24.390625 L 45.316406 24.535156 C 46.246094 24.601562 47.054688 25.042969 47.617188 25.699219 C 48.125 26.296875 48.433594 27.066406 48.433594 27.898438 C 48.433594 27.980469 48.429688 28.0625 48.425781 28.144531 C 48.296875 29.921875 46.820312 31.28125 45.078125 31.28125 Z M 35.09375 27.179688 C 34.96875 28.9375 33.523438 30.28125 31.8125 30.3125 C 31.789062 30.3125 31.769531 30.316406 31.75 30.316406 C 31.667969 30.316406 31.585938 30.3125 31.503906 30.308594 L 28.53125 30.09375 C 28.421875 30.085938 28.316406 30.070312 28.210938 30.054688 C 26.601562 29.78125 25.414062 28.375 25.414062 26.730469 C 25.414062 26.648438 25.417969 26.566406 25.421875 26.484375 L 25.421875 26.480469 C 25.507812 25.269531 26.222656 24.253906 27.21875 23.730469 C 27.6875 23.484375 28.214844 23.347656 28.769531 23.347656 C 28.851562 23.347656 28.929688 23.347656 29.011719 23.355469 L 30.738281 23.480469 L 31.984375 23.570312 C 33.753906 23.699219 35.101562 25.183594 35.101562 26.933594 C 35.101562 27.015625 35.097656 27.097656 35.09375 27.179688 Z M 53.15625 27.675781 C 53.085938 27.476562 52.890625 27.339844 52.671875 27.355469 L 49.96875 27.546875 L 49.371094 27.585938 C 49.257812 26.023438 48.320312 24.667969 46.960938 24.003906 C 46.480469 23.769531 45.949219 23.617188 45.386719 23.578125 L 42.410156 23.363281 C 42.304688 23.355469 42.203125 23.351562 42.097656 23.351562 C 41.867188 23.351562 41.644531 23.375 41.425781 23.410156 C 39.640625 23.695312 38.195312 25.082031 37.863281 26.902344 L 36.046875 26.769531 C 35.984375 25.0625 34.929688 23.582031 33.410156 22.941406 C 32.988281 22.765625 32.535156 22.648438 32.050781 22.613281 L 29.082031 22.398438 C 28.976562 22.390625 28.871094 22.386719 28.769531 22.386719 C 28.464844 22.386719 28.167969 22.421875 27.878906 22.484375 C 27.160156 22.636719 26.503906 22.972656 25.960938 23.441406 C 25.121094 24.167969 24.558594 25.214844 24.472656 26.414062 C 24.464844 26.519531 24.460938 26.625 24.460938 26.730469 C 24.460938 27.117188 24.515625 27.496094 24.609375 27.855469 C 24.984375 29.242188 26.027344 30.367188 27.394531 30.828125 C 27.734375 30.945312 28.089844 31.023438 28.464844 31.046875 L 31.433594 31.261719 C 31.539062 31.269531 31.644531 31.273438 31.75 31.273438 C 32.011719 31.273438 32.269531 31.25 32.519531 31.203125 C 34.257812 30.886719 35.65625 29.511719 35.980469 27.726562 L 37.796875 27.859375 C 37.867188 29.6875 39.074219 31.253906 40.765625 31.808594 C 41.09375 31.914062 41.4375 31.988281 41.792969 32.011719 L 44.765625 32.226562 C 44.871094 32.234375 44.972656 32.238281 45.078125 32.238281 C 45.324219 32.238281 45.566406 32.214844 45.804688 32.171875 C 47.609375 31.863281 49.054688 30.417969 49.335938 28.550781 L 50.074219 28.5 L 51.679688 28.386719 L 52.738281 28.3125 C 53 28.292969 53.199219 28.066406 53.183594 27.800781 C 53.179688 27.757812 53.167969 27.714844 53.15625 27.675781 " fill-opacity="1" fill-rule="nonzero"/><path fill="#bfa07f" d="M 21.761719 66.671875 C 23.097656 65.214844 24.4375 63.761719 25.789062 62.3125 C 25.726562 59.472656 25.628906 56.628906 25.476562 53.785156 C 25.414062 53.84375 25.355469 53.902344 25.292969 53.964844 L 25.261719 54 L 25.246094 54.015625 L 25.246094 54.019531 C 24.082031 55.175781 22.894531 56.707031 21.789062 58.730469 C 21.789062 58.75 21.789062 58.773438 21.789062 58.792969 C 21.738281 61.398438 21.738281 64.085938 21.761719 66.671875 " fill-opacity="1" fill-rule="nonzero"/><path fill="#bfa07f" d="M 53.902344 56.65625 C 53.300781 55.699219 52.683594 54.882812 52.070312 54.191406 L 52.023438 54.136719 C 51.800781 53.890625 51.582031 53.65625 51.367188 53.4375 C 51.273438 53.34375 51.175781 53.257812 51.089844 53.175781 C 50.953125 53.042969 50.816406 52.917969 50.683594 52.800781 L 50.671875 52.792969 C 50.597656 52.738281 50.519531 52.679688 50.4375 52.621094 C 50.28125 52.785156 50.128906 52.949219 49.972656 53.113281 C 49.996094 53.578125 50.019531 54.042969 50.035156 54.507812 C 50.148438 57.429688 50.195312 60.351562 50.210938 63.269531 C 51.429688 62.050781 52.652344 60.832031 53.878906 59.621094 C 53.894531 58.632812 53.902344 57.644531 53.902344 56.65625 " fill-opacity="1" fill-rule="nonzero"/><path fill="#bfa07f" d="M 53.695312 67.152344 C 53.753906 65.175781 53.808594 63.183594 53.851562 61.183594 L 53.851562 61.167969 C 53.859375 60.777344 53.867188 60.382812 53.875 59.992188 C 52.648438 61.203125 51.429688 62.417969 50.210938 63.636719 C 50.226562 67.285156 50.179688 70.933594 50.125 74.585938 C 51.277344 73.472656 52.425781 72.363281 53.582031 71.25 C 53.609375 69.902344 53.652344 68.535156 53.695312 67.152344 " fill-opacity="1" fill-rule="nonzero"/><path fill="#bfa07f" d="M 53.570312 71.621094 C 52.421875 72.734375 51.269531 73.839844 50.121094 74.953125 C 50.097656 76.503906 50.070312 78.054688 50.042969 79.605469 C 50.023438 81.023438 50.003906 82.433594 49.992188 83.851562 C 50.117188 83.878906 50.242188 83.910156 50.367188 83.9375 C 51.4375 82.835938 52.515625 81.742188 53.601562 80.660156 C 53.566406 79.800781 53.539062 78.921875 53.527344 78.023438 C 53.496094 75.964844 53.523438 73.820312 53.570312 71.621094 " fill-opacity="1" fill-rule="nonzero"/><path fill="#bfa07f" d="M 21.832031 71.949219 C 21.828125 72.542969 21.84375 73.125 21.847656 73.6875 C 21.859375 74.359375 21.871094 75 21.878906 75.605469 C 21.871094 75 21.859375 74.359375 21.847656 73.6875 C 21.84375 73.125 21.828125 72.542969 21.832031 71.949219 " fill-opacity="1" fill-rule="nonzero"/><path fill="#bfa07f" d="M 21.777344 67.957031 C 22.933594 69.25 24.171875 70.46875 25.476562 71.625 C 25.609375 71.476562 25.746094 71.328125 25.878906 71.179688 C 25.875 68.347656 25.855469 65.515625 25.796875 62.683594 C 24.445312 64.136719 23.101562 65.59375 21.765625 67.054688 C 21.769531 67.308594 21.769531 67.558594 21.773438 67.808594 C 21.773438 67.855469 21.777344 67.90625 21.777344 67.957031 " fill-opacity="1" fill-rule="nonzero"/><path fill="#bfa07f" d="M 48.738281 64.738281 C 49.140625 64.332031 49.550781 63.929688 49.957031 63.523438 C 49.945312 60.140625 49.882812 56.757812 49.730469 53.378906 C 47.640625 55.625 45.597656 57.90625 43.566406 60.195312 C 43.636719 63.4375 43.671875 66.675781 43.675781 69.914062 C 45.351562 68.179688 47.039062 66.453125 48.738281 64.738281 " fill-opacity="1" fill-rule="nonzero"/><path fill="#bfa07f" d="M 48.039062 65.8125 C 46.574219 67.296875 45.121094 68.792969 43.679688 70.296875 C 43.683594 73.824219 43.65625 77.351562 43.613281 80.878906 C 45.695312 78.863281 47.777344 76.847656 49.863281 74.835938 C 49.886719 73.332031 49.910156 71.832031 49.925781 70.328125 C 49.949219 68.183594 49.964844 66.035156 49.960938 63.890625 C 49.316406 64.53125 48.675781 65.167969 48.039062 65.8125 " fill-opacity="1" fill-rule="nonzero"/><path fill="#bfa07f" d="M 31.332031 76.066406 C 32.699219 76.953125 34.109375 77.777344 35.558594 78.539062 C 36.164062 77.882812 36.765625 77.226562 37.375 76.574219 C 37.351562 75.425781 37.324219 74.269531 37.292969 73.121094 C 37.238281 71.230469 37.171875 69.34375 37.097656 67.453125 C 35.167969 69.605469 33.230469 71.757812 31.292969 73.90625 C 31.308594 74.628906 31.320312 75.347656 31.332031 76.066406 " fill-opacity="1" fill-rule="nonzero"/><path fill="#bfa07f" d="M 37.085938 67.078125 C 36.992188 64.769531 36.890625 62.460938 36.773438 60.152344 C 35.71875 61.191406 34.667969 62.238281 33.632812 63.296875 C 32.753906 64.195312 31.882812 65.101562 31.019531 66.015625 C 31.132812 68.523438 31.222656 71.035156 31.28125 73.546875 C 33.230469 71.398438 35.160156 69.242188 37.085938 67.078125 " fill-opacity="1" fill-rule="nonzero"/><path fill="#bfa07f" d="M 46.695312 51.792969 C 45.773438 53.316406 44.742188 54.644531 43.503906 55.554688 L 43.441406 55.59375 C 43.488281 57 43.527344 58.402344 43.558594 59.808594 C 44.566406 58.683594 45.570312 57.558594 46.582031 56.4375 C 47.613281 55.292969 48.660156 54.152344 49.710938 53.019531 C 49.699219 52.710938 49.683594 52.402344 49.664062 52.09375 C 49.550781 52.019531 49.433594 51.949219 49.3125 51.878906 C 49.277344 51.851562 49.234375 51.832031 49.195312 51.808594 C 49.195312 51.808594 49.195312 51.804688 49.195312 51.804688 C 49.160156 51.785156 49.128906 51.765625 49.09375 51.746094 C 48.839844 51.601562 48.574219 51.460938 48.289062 51.328125 C 48.238281 51.300781 48.183594 51.277344 48.128906 51.253906 C 48.097656 51.238281 48.066406 51.222656 48.035156 51.210938 C 48.003906 51.195312 47.972656 51.183594 47.941406 51.167969 C 47.796875 51.105469 47.652344 51.046875 47.507812 50.988281 C 47.429688 50.957031 47.347656 50.925781 47.269531 50.898438 C 47.257812 50.890625 47.242188 50.886719 47.230469 50.882812 C 47.054688 51.195312 46.882812 51.5 46.695312 51.792969 " fill-opacity="1" fill-rule="nonzero"/><path fill="#bfa07f" d="M 25.785156 54.683594 C 25.902344 57.136719 25.984375 59.589844 26.039062 62.042969 C 26.433594 61.617188 26.824219 61.191406 27.21875 60.769531 C 28.25 59.667969 29.277344 58.5625 30.3125 57.460938 C 30.191406 55.371094 30.058594 53.285156 29.929688 51.195312 L 29.882812 51.132812 C 29.855469 51.089844 29.800781 51.023438 29.757812 50.964844 L 29.726562 50.921875 L 29.726562 50.917969 C 29.34375 51.066406 28.929688 51.261719 28.480469 51.515625 C 28.480469 51.515625 28.476562 51.519531 28.476562 51.519531 L 28.464844 51.527344 C 28.0625 51.753906 27.632812 52.03125 27.1875 52.355469 C 26.96875 52.515625 26.75 52.679688 26.523438 52.863281 C 26.441406 52.929688 26.355469 53.003906 26.273438 53.074219 C 26.183594 53.152344 26.089844 53.222656 25.996094 53.304688 C 25.90625 53.386719 25.816406 53.46875 25.726562 53.554688 C 25.746094 53.929688 25.765625 54.304688 25.785156 54.683594 " fill-opacity="1" fill-rule="nonzero"/><path fill="#bfa07f" d="M 25.882812 71.5625 C 25.8125 71.640625 25.742188 71.71875 25.667969 71.796875 C 25.738281 71.859375 25.8125 71.921875 25.882812 71.984375 C 25.882812 71.84375 25.882812 71.703125 25.882812 71.5625 " fill-opacity="1" fill-rule="nonzero"/><path fill="#bfa07f" d="M 30.757812 65.914062 C 30.640625 63.222656 30.496094 60.527344 30.335938 57.835938 C 29.9375 58.257812 29.542969 58.675781 29.144531 59.097656 C 28.109375 60.199219 27.078125 61.304688 26.046875 62.414062 C 26.109375 65.238281 26.136719 68.066406 26.140625 70.894531 C 27.667969 69.21875 29.203125 67.558594 30.757812 65.914062 " fill-opacity="1" fill-rule="nonzero"/><path fill="#bfa07f" d="M 31.042969 74.183594 C 30.726562 74.535156 30.40625 74.886719 30.089844 75.234375 C 30.414062 75.457031 30.742188 75.679688 31.070312 75.894531 C 31.0625 75.324219 31.054688 74.753906 31.042969 74.183594 " fill-opacity="1" fill-rule="nonzero"/><path fill="#bfa07f" d="M 43.429688 70.554688 C 41.472656 72.601562 39.53125 74.667969 37.605469 76.746094 C 37.625 77.691406 37.632812 78.640625 37.648438 79.585938 C 39.3125 80.375 41.015625 81.085938 42.75 81.71875 C 42.953125 81.523438 43.15625 81.324219 43.359375 81.125 C 43.40625 77.605469 43.433594 74.082031 43.429688 70.554688 " fill-opacity="1" fill-rule="nonzero"/><path fill="#bfa07f" d="M 30.75 74.136719 C 30.84375 74.035156 30.9375 73.925781 31.03125 73.824219 C 30.976562 71.308594 30.886719 68.792969 30.777344 66.277344 C 29.214844 67.929688 27.671875 69.597656 26.140625 71.277344 C 26.140625 71.585938 26.140625 71.894531 26.140625 72.203125 C 27.335938 73.222656 28.585938 74.183594 29.882812 75.089844 C 30.171875 74.773438 30.460938 74.457031 30.75 74.136719 " fill-opacity="1" fill-rule="nonzero"/><path fill="#bfa07f" d="M 30.625 52.199219 C 30.488281 52.003906 30.351562 51.808594 30.210938 51.605469 C 30.296875 52.953125 30.382812 54.300781 30.464844 55.648438 C 30.496094 56.164062 30.523438 56.683594 30.554688 57.203125 C 31.308594 56.40625 32.066406 55.609375 32.832031 54.820312 C 31.976562 54.078125 31.3125 53.1875 30.625 52.199219 " fill-opacity="1" fill-rule="nonzero"/><path fill="#bfa07f" d="M 43.429688 70.171875 C 43.425781 66.9375 43.394531 63.703125 43.324219 60.46875 L 43.320312 60.476562 C 41.335938 62.714844 39.339844 64.949219 37.34375 67.179688 C 37.457031 70.230469 37.539062 73.28125 37.601562 76.332031 C 39.527344 74.261719 41.472656 72.210938 43.429688 70.171875 " fill-opacity="1" fill-rule="nonzero"/><path fill="#bfa07f" d="M 49.933594 52.269531 C 49.945312 52.433594 49.953125 52.59375 49.960938 52.757812 C 50.050781 52.660156 50.140625 52.566406 50.230469 52.46875 C 50.207031 52.453125 50.175781 52.433594 50.152344 52.417969 C 50.078125 52.367188 50.007812 52.316406 49.933594 52.269531 " fill-opacity="1" fill-rule="nonzero"/><path fill="#bfa07f" d="M 36.859375 56.757812 C 36.910156 57.695312 36.957031 58.628906 37.003906 59.566406 C 37.917969 58.675781 38.832031 57.789062 39.746094 56.902344 C 38.828125 57 37.84375 56.964844 36.859375 56.757812 " fill-opacity="1" fill-rule="nonzero"/><path fill="#bfa07f" d="M 33.046875 55.003906 C 32.21875 55.859375 31.398438 56.71875 30.578125 57.582031 C 30.738281 60.269531 30.882812 62.957031 31.007812 65.648438 C 31.757812 64.859375 32.515625 64.066406 33.277344 63.285156 C 34.421875 62.113281 35.589844 60.960938 36.757812 59.8125 C 36.707031 58.773438 36.652344 57.734375 36.597656 56.695312 C 36.0625 56.570312 35.523438 56.386719 34.996094 56.148438 C 34.230469 55.835938 33.597656 55.449219 33.046875 55.003906 " fill-opacity="1" fill-rule="nonzero"/><path fill="#bfa07f" d="M 40.175781 56.84375 C 39.121094 57.863281 38.070312 58.882812 37.023438 59.910156 C 37.101562 61.507812 37.179688 63.101562 37.246094 64.699219 C 37.277344 65.402344 37.300781 66.101562 37.328125 66.804688 C 39.324219 64.5625 41.316406 62.316406 43.316406 60.078125 C 43.285156 58.640625 43.242188 57.199219 43.191406 55.761719 C 42.382812 56.277344 41.335938 56.667969 40.175781 56.84375 " fill-opacity="1" fill-rule="nonzero"/><path fill="#e9e9e9" d="M 39.429688 33.710938 C 38.730469 33.417969 37.558594 32.996094 36.671875 33.238281 C 36.652344 33.242188 36.628906 33.25 36.605469 33.253906 C 36.246094 33.140625 35.832031 33.148438 35.417969 33.210938 C 34.8125 33.308594 34.210938 33.53125 33.785156 33.710938 C 32.121094 34.429688 30.773438 35.144531 28.945312 35.386719 C 28.78125 37.664062 31.929688 38.316406 34.363281 37.960938 C 35.289062 37.824219 36.109375 37.542969 36.605469 37.152344 C 37.105469 37.546875 37.925781 37.824219 38.851562 37.960938 C 41.285156 38.3125 44.433594 37.664062 44.265625 35.386719 C 43.835938 35.328125 43.429688 35.242188 43.039062 35.140625 C 42.496094 34.992188 41.980469 34.804688 41.46875 34.597656 C 40.804688 34.328125 40.144531 34.019531 39.429688 33.710938 " fill-opacity="1" fill-rule="nonzero"/><path fill="#dad9d9" d="M 25 22.339844 L 25.027344 22.316406 C 25.027344 22.316406 25.058594 21.902344 25.117188 21.179688 C 25.171875 20.453125 25.265625 19.417969 25.410156 18.183594 C 25.554688 16.949219 25.777344 15.515625 26.183594 14.027344 C 26.382812 13.285156 26.644531 12.535156 26.980469 11.808594 C 27.148438 11.445312 27.332031 11.089844 27.550781 10.75 C 27.765625 10.414062 28.003906 10.089844 28.273438 9.796875 C 28.542969 9.5 28.832031 9.234375 29.160156 9.007812 C 29.492188 8.742188 29.824219 8.570312 30.167969 8.390625 C 30.878906 8.042969 31.636719 7.824219 32.378906 7.652344 C 33.125 7.480469 33.863281 7.386719 34.5625 7.300781 C 35.261719 7.230469 35.929688 7.179688 36.546875 7.15625 C 37.164062 7.128906 37.730469 7.109375 38.234375 7.097656 C 38.738281 7.085938 39.179688 7.078125 39.539062 7.070312 C 40.265625 7.054688 40.679688 7.035156 40.679688 7.035156 C 40.703125 7.035156 40.726562 7.011719 40.726562 6.988281 C 40.730469 6.957031 40.707031 6.933594 40.679688 6.933594 C 40.679688 6.933594 40.265625 6.914062 39.542969 6.882812 C 39.179688 6.871094 38.742188 6.855469 38.234375 6.839844 C 37.730469 6.824219 37.160156 6.804688 36.539062 6.816406 C 35.914062 6.820312 35.238281 6.847656 34.523438 6.894531 C 33.8125 6.957031 33.054688 7.023438 32.28125 7.195312 C 31.515625 7.363281 30.714844 7.570312 29.957031 7.9375 C 29.574219 8.132812 29.179688 8.347656 28.863281 8.59375 C 28.511719 8.839844 28.1875 9.136719 27.898438 9.453125 C 27.609375 9.773438 27.355469 10.121094 27.128906 10.484375 C 26.902344 10.84375 26.710938 11.222656 26.535156 11.601562 C 26.1875 12.363281 25.945312 13.148438 25.75 13.914062 C 25.363281 15.445312 25.214844 16.90625 25.109375 18.152344 C 25.007812 19.402344 25 20.445312 24.980469 21.171875 C 24.972656 21.898438 24.976562 22.316406 24.976562 22.316406 L 25 22.339844 " fill-opacity="1" fill-rule="nonzero"/><path fill="#dad9d9" d="M 38.855469 8.640625 C 37.6875 8.679688 36.605469 8.804688 35.683594 8.917969 C 34.757812 9.035156 33.996094 9.179688 33.460938 9.269531 C 32.925781 9.367188 32.625 9.429688 32.625 9.429688 L 32.601562 9.457031 L 32.628906 9.480469 C 32.628906 9.480469 32.9375 9.453125 33.480469 9.40625 C 34.019531 9.351562 34.789062 9.292969 35.714844 9.222656 C 36.636719 9.148438 37.714844 9.101562 38.867188 9.089844 C 39.441406 9.085938 40.035156 9.101562 40.640625 9.128906 C 41.238281 9.164062 41.851562 9.210938 42.453125 9.300781 C 43.058594 9.386719 43.660156 9.492188 44.234375 9.648438 C 44.8125 9.804688 45.378906 9.976562 45.894531 10.207031 C 46.414062 10.433594 46.90625 10.679688 47.339844 10.96875 C 47.78125 11.242188 48.160156 11.5625 48.496094 11.871094 C 48.816406 12.191406 49.101562 12.5 49.332031 12.792969 C 49.441406 12.941406 49.546875 13.082031 49.640625 13.214844 C 49.726562 13.351562 49.804688 13.476562 49.875 13.589844 C 50.027344 13.816406 50.109375 14.011719 50.183594 14.136719 C 50.253906 14.261719 50.292969 14.332031 50.292969 14.332031 L 50.292969 14.335938 C 50.304688 14.355469 50.332031 14.367188 50.359375 14.355469 C 50.382812 14.34375 50.394531 14.316406 50.386719 14.289062 C 50.386719 14.289062 50.355469 14.21875 50.296875 14.082031 C 50.269531 14.015625 50.234375 13.929688 50.195312 13.832031 C 50.15625 13.730469 50.105469 13.621094 50.035156 13.5 C 49.972656 13.378906 49.902344 13.242188 49.824219 13.097656 C 49.738281 12.957031 49.640625 12.804688 49.539062 12.640625 C 49.4375 12.476562 49.304688 12.320312 49.179688 12.144531 C 49.050781 11.96875 48.886719 11.808594 48.730469 11.628906 C 48.398438 11.292969 48.015625 10.941406 47.566406 10.628906 C 47.125 10.308594 46.625 10.023438 46.082031 9.777344 C 45.542969 9.527344 44.960938 9.328125 44.363281 9.164062 C 43.765625 9 43.144531 8.886719 42.523438 8.796875 C 41.902344 8.707031 41.277344 8.667969 40.660156 8.636719 C 40.046875 8.609375 39.441406 8.625 38.855469 8.640625 " fill-opacity="1" fill-rule="nonzero"/><path fill="#dad9d9" d="M 49.402344 15.109375 C 49.277344 14.941406 49.132812 14.792969 49 14.648438 C 48.859375 14.511719 48.71875 14.378906 48.578125 14.261719 C 48.296875 14.027344 48.015625 13.847656 47.757812 13.707031 C 47.625 13.640625 47.507812 13.570312 47.390625 13.519531 C 47.273438 13.46875 47.167969 13.425781 47.070312 13.382812 C 46.878906 13.296875 46.71875 13.265625 46.613281 13.226562 C 46.507812 13.195312 46.449219 13.179688 46.449219 13.179688 L 46.417969 13.191406 L 46.429688 13.226562 C 46.429688 13.226562 46.484375 13.25 46.585938 13.296875 C 46.683594 13.347656 46.839844 13.410156 47.015625 13.511719 C 47.105469 13.558594 47.203125 13.613281 47.3125 13.671875 C 47.417969 13.738281 47.527344 13.8125 47.644531 13.890625 C 47.878906 14.050781 48.125 14.253906 48.375 14.492188 C 48.621094 14.734375 48.871094 15.015625 49.09375 15.339844 C 49.324219 15.660156 49.515625 16.03125 49.695312 16.425781 C 49.878906 16.816406 50.011719 17.246094 50.140625 17.683594 C 50.269531 18.121094 50.359375 18.582031 50.4375 19.039062 C 50.519531 19.5 50.574219 19.96875 50.625 20.425781 C 50.671875 20.890625 50.714844 21.34375 50.746094 21.785156 C 50.808594 22.671875 50.855469 23.503906 50.917969 24.214844 C 50.972656 24.925781 51.050781 25.519531 51.109375 25.933594 C 51.136719 26.140625 51.171875 26.304688 51.1875 26.414062 C 51.210938 26.523438 51.21875 26.582031 51.21875 26.582031 C 51.226562 26.605469 51.246094 26.625 51.273438 26.625 C 51.300781 26.625 51.324219 26.597656 51.320312 26.570312 C 51.320312 26.570312 51.308594 26.332031 51.292969 25.917969 C 51.269531 25.503906 51.265625 24.910156 51.257812 24.199219 C 51.25 23.488281 51.246094 22.65625 51.210938 21.757812 C 51.1875 21.3125 51.167969 20.847656 51.121094 20.378906 C 51.074219 19.910156 51.023438 19.429688 50.9375 18.953125 C 50.769531 18.003906 50.511719 17.054688 50.101562 16.234375 C 49.898438 15.820312 49.667969 15.4375 49.402344 15.109375 " fill-opacity="1" fill-rule="nonzero"/><path fill="#dad9d9" d="M 51.636719 18.742188 C 51.648438 18.898438 51.660156 19.0625 51.671875 19.226562 C 51.679688 19.386719 51.6875 19.546875 51.695312 19.707031 C 51.703125 19.863281 51.722656 20.019531 51.730469 20.171875 C 51.757812 20.472656 51.792969 20.753906 51.828125 20.996094 C 51.898438 21.480469 51.980469 21.804688 51.980469 21.804688 L 52.023438 21.847656 C 52.050781 21.851562 52.078125 21.835938 52.082031 21.804688 C 52.082031 21.804688 52.140625 21.480469 52.171875 20.988281 C 52.1875 20.742188 52.195312 20.453125 52.195312 20.148438 C 52.195312 19.992188 52.199219 19.832031 52.195312 19.671875 C 52.1875 19.511719 52.183594 19.347656 52.175781 19.183594 C 52.160156 19.019531 52.140625 18.859375 52.125 18.699219 C 52.109375 18.539062 52.082031 18.382812 52.0625 18.230469 C 52.019531 17.929688 51.96875 17.648438 51.917969 17.40625 C 51.820312 16.925781 51.71875 16.605469 51.71875 16.605469 L 51.699219 16.589844 L 51.667969 16.613281 C 51.667969 16.613281 51.625 16.941406 51.613281 17.433594 C 51.605469 17.679688 51.605469 17.964844 51.617188 18.269531 C 51.625 18.421875 51.625 18.582031 51.636719 18.742188 " fill-opacity="1" fill-rule="nonzero"/><path fill="#dad9d9" d="M 38.988281 11.277344 C 38.988281 11.277344 38.71875 11.238281 38.25 11.175781 C 38.011719 11.148438 37.726562 11.113281 37.394531 11.074219 C 37.066406 11.027344 36.691406 11.019531 36.285156 10.996094 C 35.875 10.980469 35.433594 10.933594 34.960938 10.957031 C 34.492188 10.96875 33.992188 10.96875 33.480469 10.996094 C 32.976562 11.042969 32.453125 11.09375 31.921875 11.144531 C 31.851562 11.15625 31.804688 11.15625 31.710938 11.171875 L 31.507812 11.210938 L 31.101562 11.296875 C 30.832031 11.355469 30.566406 11.445312 30.296875 11.519531 C 29.773438 11.722656 29.25 11.941406 28.792969 12.265625 C 28.554688 12.410156 28.351562 12.605469 28.140625 12.78125 C 28.042969 12.875 27.953125 12.980469 27.859375 13.078125 L 27.722656 13.222656 C 27.679688 13.277344 27.644531 13.332031 27.601562 13.382812 C 27.523438 13.492188 27.445312 13.597656 27.367188 13.703125 C 27.300781 13.8125 27.238281 13.925781 27.171875 14.035156 C 27.035156 14.253906 26.953125 14.488281 26.851562 14.707031 C 26.765625 14.929688 26.695312 15.152344 26.625 15.367188 C 26.574219 15.585938 26.519531 15.796875 26.476562 16 C 26.441406 16.207031 26.410156 16.402344 26.382812 16.589844 C 26.367188 16.777344 26.351562 16.957031 26.335938 17.121094 C 26.308594 17.457031 26.316406 17.75 26.304688 17.988281 C 26.316406 18.464844 26.332031 18.738281 26.332031 18.738281 L 26.355469 18.761719 L 26.382812 18.738281 C 26.382812 18.738281 26.402344 18.46875 26.441406 17.992188 C 26.472656 17.757812 26.496094 17.472656 26.550781 17.148438 C 26.582031 16.984375 26.609375 16.8125 26.644531 16.632812 C 26.683594 16.453125 26.730469 16.265625 26.773438 16.070312 C 26.828125 15.878906 26.894531 15.679688 26.957031 15.472656 C 27.035156 15.273438 27.109375 15.066406 27.203125 14.859375 C 27.3125 14.660156 27.398438 14.441406 27.535156 14.25 C 27.597656 14.152344 27.660156 14.050781 27.726562 13.949219 C 27.800781 13.855469 27.875 13.761719 27.949219 13.664062 C 27.988281 13.617188 28.023438 13.570312 28.066406 13.523438 L 28.195312 13.390625 C 28.285156 13.304688 28.367188 13.214844 28.460938 13.128906 C 28.660156 12.976562 28.84375 12.804688 29.066406 12.675781 C 29.484375 12.382812 29.972656 12.1875 30.460938 12.003906 C 30.710938 11.933594 30.960938 11.84375 31.214844 11.789062 L 31.601562 11.707031 L 31.792969 11.667969 C 31.828125 11.660156 31.917969 11.652344 31.976562 11.644531 C 32.507812 11.582031 33.027344 11.519531 33.53125 11.460938 C 34.03125 11.429688 34.515625 11.398438 34.976562 11.371094 C 35.433594 11.332031 35.871094 11.347656 36.277344 11.339844 C 36.679688 11.339844 37.050781 11.316406 37.378906 11.332031 C 37.710938 11.34375 37.996094 11.351562 38.234375 11.363281 C 38.707031 11.375 38.976562 11.378906 38.976562 11.378906 L 38.980469 11.378906 C 39.003906 11.378906 39.027344 11.363281 39.03125 11.335938 C 39.035156 11.308594 39.015625 11.28125 38.988281 11.277344 " fill-opacity="1" fill-rule="nonzero"/><path fill="#2e2a29" d="M 42.472656 28.695312 C 42.921875 28.695312 43.289062 28.285156 43.289062 27.777344 C 43.289062 27.273438 42.921875 26.863281 42.472656 26.863281 C 42.023438 26.863281 41.65625 27.273438 41.65625 27.777344 C 41.65625 28.285156 42.023438 28.695312 42.472656 28.695312 " fill-opacity="1" fill-rule="nonzero"/><path fill="#2e2a29" d="M 31.371094 26.863281 C 30.921875 26.863281 30.554688 27.273438 30.554688 27.777344 C 30.554688 28.285156 30.921875 28.695312 31.371094 28.695312 C 31.824219 28.695312 32.1875 28.285156 32.1875 27.777344 C 32.1875 27.273438 31.824219 26.863281 31.371094 26.863281 " fill-opacity="1" fill-rule="nonzero"/><path fill="#a4886f" d="M 25.84375 89.304688 C 25.835938 86.171875 25.851562 83.039062 25.863281 79.910156 C 24.445312 81.476562 23.035156 83.050781 21.640625 84.636719 C 21.640625 84.503906 21.648438 84.367188 21.652344 84.234375 C 23.046875 82.652344 24.453125 81.082031 25.867188 79.519531 C 25.875 77.007812 25.882812 74.496094 25.882812 71.984375 C 25.8125 71.921875 25.738281 71.859375 25.667969 71.796875 C 25.53125 71.949219 25.394531 72.097656 25.253906 72.25 C 24.128906 73.492188 23.007812 74.738281 21.882812 75.984375 C 21.890625 76.515625 21.894531 77.015625 21.898438 77.484375 C 21.898438 77.578125 21.898438 77.675781 21.898438 77.765625 C 21.898438 78.628906 21.894531 79.363281 21.871094 79.941406 C 21.871094 79.957031 21.871094 79.972656 21.871094 79.988281 C 21.867188 80.050781 21.867188 80.109375 21.863281 80.167969 C 21.863281 80.207031 21.859375 80.246094 21.859375 80.285156 C 21.855469 80.304688 21.855469 80.320312 21.855469 80.339844 C 21.851562 80.386719 21.847656 80.4375 21.847656 80.484375 C 21.835938 80.636719 21.824219 80.796875 21.8125 80.957031 C 21.804688 81.066406 21.796875 81.175781 21.789062 81.285156 C 21.789062 81.316406 21.785156 81.34375 21.785156 81.371094 C 21.679688 83.050781 21.617188 85.042969 21.574219 87.210938 C 21.574219 87.234375 21.574219 87.261719 21.574219 87.285156 C 21.570312 87.503906 21.566406 87.722656 21.5625 87.945312 C 21.542969 89.214844 21.53125 90.535156 21.519531 91.886719 C 21.628906 91.917969 21.734375 91.945312 21.847656 91.972656 C 22.078125 92.042969 22.316406 92.101562 22.550781 92.164062 C 22.675781 92.203125 22.800781 92.234375 22.925781 92.269531 C 23.050781 92.300781 23.175781 92.332031 23.300781 92.363281 C 23.253906 92.351562 23.207031 92.339844 23.160156 92.328125 C 24.054688 91.320312 24.949219 90.3125 25.84375 89.304688 " fill-opacity="1" fill-rule="nonzero"/><path fill="#a4886f" d="M 21.777344 67.957031 C 21.792969 69.34375 21.808594 70.683594 21.832031 71.949219 C 21.828125 72.542969 21.84375 73.125 21.847656 73.6875 C 21.859375 74.359375 21.871094 75 21.878906 75.605469 C 22.890625 74.484375 23.894531 73.367188 24.910156 72.25 C 25.097656 72.039062 25.285156 71.832031 25.476562 71.625 C 24.171875 70.46875 22.933594 69.25 21.777344 67.957031 " fill-opacity="1" fill-rule="nonzero"/><path fill="#a4886f" d="M 29.882812 75.089844 C 28.585938 74.183594 27.335938 73.222656 26.140625 72.203125 C 26.144531 74.546875 26.136719 76.890625 26.125 79.234375 C 27.375 77.847656 28.628906 76.46875 29.882812 75.089844 " fill-opacity="1" fill-rule="nonzero"/><path fill="#8a5d4a" d="M 43.441406 91.152344 C 43.5 88.109375 43.554688 85.066406 43.597656 82.019531 C 43.601562 81.761719 43.605469 81.503906 43.609375 81.242188 C 45.6875 79.226562 47.773438 77.214844 49.859375 75.203125 C 49.816406 77.75 49.773438 80.296875 49.738281 82.84375 C 49.734375 83.160156 49.730469 83.472656 49.726562 83.789062 C 49.722656 84.0625 49.71875 84.332031 49.714844 84.605469 C 47.609375 86.773438 45.515625 88.953125 43.441406 91.152344 Z M 42.75 81.71875 C 41.066406 83.351562 39.386719 84.988281 37.710938 86.628906 C 37.703125 84.28125 37.679688 81.933594 37.648438 79.585938 C 37.632812 78.640625 37.625 77.691406 37.605469 76.746094 C 39.53125 74.667969 41.472656 72.601562 43.429688 70.554688 C 43.433594 74.082031 43.40625 77.605469 43.359375 81.125 C 43.15625 81.324219 42.953125 81.523438 42.75 81.71875 Z M 30.945312 93.308594 C 31.160156 90.078125 31.285156 86.847656 31.335938 83.609375 C 32.828125 81.960938 34.324219 80.316406 35.828125 78.679688 C 36.34375 78.117188 36.859375 77.550781 37.378906 76.992188 C 37.394531 77.820312 37.40625 78.648438 37.417969 79.476562 C 37.445312 81.945312 37.453125 84.417969 37.445312 86.886719 C 35.269531 89.019531 33.101562 91.15625 30.945312 93.308594 Z M 26.101562 89.011719 C 26.09375 85.882812 26.109375 82.75 26.125 79.621094 C 26.519531 79.179688 26.917969 78.738281 27.320312 78.296875 C 28.242188 77.277344 29.167969 76.253906 30.089844 75.234375 C 30.40625 74.886719 30.726562 74.535156 31.042969 74.183594 C 31.054688 74.753906 31.0625 75.324219 31.070312 75.894531 C 31.109375 78.414062 31.117188 80.929688 31.082031 83.445312 C 29.414062 85.296875 27.757812 87.152344 26.101562 89.011719 Z M 26.140625 71.277344 C 27.671875 69.597656 29.214844 67.929688 30.777344 66.277344 C 30.886719 68.792969 30.976562 71.308594 31.03125 73.824219 C 30.9375 73.925781 30.84375 74.035156 30.75 74.136719 C 30.460938 74.457031 30.171875 74.773438 29.882812 75.089844 C 28.628906 76.46875 27.375 77.847656 26.125 79.234375 C 26.136719 76.890625 26.144531 74.546875 26.140625 72.203125 C 26.140625 71.894531 26.140625 71.585938 26.140625 71.277344 Z M 26.046875 62.414062 C 27.078125 61.304688 28.109375 60.199219 29.144531 59.097656 C 29.542969 58.675781 29.9375 58.257812 30.335938 57.835938 C 30.496094 60.527344 30.640625 63.222656 30.757812 65.914062 C 29.203125 67.558594 27.667969 69.21875 26.140625 70.894531 C 26.136719 68.066406 26.109375 65.238281 26.046875 62.414062 Z M 33.632812 63.296875 C 34.667969 62.238281 35.71875 61.191406 36.773438 60.152344 C 36.890625 62.460938 36.992188 64.769531 37.085938 67.078125 C 35.160156 69.242188 33.230469 71.398438 31.28125 73.546875 C 31.222656 71.035156 31.132812 68.523438 31.019531 66.015625 C 31.882812 65.101562 32.753906 64.195312 33.632812 63.296875 Z M 37.292969 73.121094 C 37.324219 74.269531 37.351562 75.425781 37.375 76.574219 C 36.765625 77.226562 36.164062 77.882812 35.558594 78.539062 C 34.175781 80.042969 32.792969 81.546875 31.425781 83.066406 C 31.394531 83.097656 31.371094 83.125 31.34375 83.15625 C 31.375 80.792969 31.367188 78.429688 31.332031 76.066406 C 31.320312 75.347656 31.308594 74.628906 31.292969 73.90625 C 33.230469 71.757812 35.167969 69.605469 37.097656 67.453125 C 37.171875 69.34375 37.238281 71.230469 37.292969 73.121094 Z M 43.320312 60.476562 L 43.324219 60.46875 C 43.394531 63.703125 43.425781 66.9375 43.429688 70.171875 C 41.472656 72.210938 39.527344 74.261719 37.601562 76.332031 C 37.539062 73.28125 37.457031 70.230469 37.34375 67.179688 C 39.339844 64.949219 41.335938 62.714844 43.320312 60.476562 Z M 49.730469 53.378906 C 49.882812 56.757812 49.945312 60.140625 49.957031 63.523438 C 49.550781 63.929688 49.140625 64.332031 48.738281 64.738281 C 47.039062 66.453125 45.351562 68.179688 43.675781 69.914062 C 43.671875 66.675781 43.636719 63.4375 43.566406 60.195312 C 45.597656 57.90625 47.640625 55.625 49.730469 53.378906 Z M 49.863281 74.835938 C 47.777344 76.847656 45.695312 78.863281 43.613281 80.878906 C 43.65625 77.351562 43.683594 73.824219 43.679688 70.296875 C 45.121094 68.792969 46.574219 67.296875 48.039062 65.8125 C 48.675781 65.167969 49.316406 64.53125 49.960938 63.890625 C 49.964844 66.035156 49.949219 68.183594 49.925781 70.328125 C 49.910156 71.832031 49.886719 73.332031 49.863281 74.835938 Z M 49.949219 91.703125 C 49.945312 89.371094 49.957031 87.042969 49.980469 84.710938 C 50.210938 84.476562 50.441406 84.238281 50.671875 84 C 51.238281 83.417969 51.800781 82.835938 52.367188 82.257812 C 52.78125 81.832031 53.199219 81.414062 53.617188 80.992188 C 53.609375 80.882812 53.605469 80.769531 53.601562 80.660156 C 52.515625 81.742188 51.4375 82.835938 50.367188 83.9375 C 50.242188 84.066406 50.113281 84.195312 49.984375 84.328125 C 49.988281 84.167969 49.988281 84.007812 49.992188 83.851562 C 50.003906 82.433594 50.023438 81.023438 50.042969 79.605469 C 50.070312 78.054688 50.097656 76.503906 50.121094 74.953125 C 51.269531 73.839844 52.421875 72.734375 53.570312 71.621094 C 53.574219 71.5 53.578125 71.375 53.582031 71.25 C 52.425781 72.363281 51.277344 73.472656 50.125 74.585938 C 50.179688 70.933594 50.226562 67.285156 50.210938 63.636719 C 51.429688 62.417969 52.648438 61.203125 53.875 59.992188 C 53.878906 59.867188 53.878906 59.746094 53.878906 59.621094 C 52.652344 60.832031 51.429688 62.050781 50.210938 63.269531 C 50.195312 60.351562 50.148438 57.429688 50.035156 54.507812 C 50.019531 54.042969 49.996094 53.578125 49.972656 53.113281 C 50.128906 52.949219 50.28125 52.785156 50.4375 52.621094 C 50.402344 52.59375 50.367188 52.566406 50.328125 52.542969 C 50.296875 52.519531 50.265625 52.496094 50.230469 52.46875 C 50.140625 52.566406 50.050781 52.660156 49.960938 52.757812 C 49.953125 52.59375 49.945312 52.433594 49.933594 52.269531 C 49.84375 52.210938 49.757812 52.152344 49.664062 52.09375 C 49.683594 52.402344 49.699219 52.710938 49.710938 53.019531 C 48.660156 54.152344 47.613281 55.292969 46.582031 56.4375 C 45.570312 57.558594 44.566406 58.683594 43.558594 59.808594 C 43.527344 58.402344 43.488281 57 43.441406 55.59375 C 43.363281 55.652344 43.28125 55.710938 43.191406 55.761719 C 43.242188 57.199219 43.285156 58.640625 43.316406 60.078125 C 41.316406 62.316406 39.324219 64.5625 37.328125 66.804688 C 37.300781 66.101562 37.277344 65.402344 37.246094 64.699219 C 37.179688 63.101562 37.101562 61.507812 37.023438 59.910156 C 38.070312 58.882812 39.121094 57.863281 40.175781 56.84375 C 40.035156 56.867188 39.890625 56.886719 39.746094 56.902344 C 38.832031 57.789062 37.917969 58.675781 37.003906 59.566406 C 36.957031 58.628906 36.910156 57.695312 36.859375 56.757812 C 36.773438 56.738281 36.683594 56.71875 36.597656 56.695312 C 36.652344 57.734375 36.707031 58.773438 36.757812 59.8125 C 35.589844 60.960938 34.421875 62.113281 33.277344 63.285156 C 32.515625 64.066406 31.757812 64.859375 31.007812 65.648438 C 30.882812 62.957031 30.738281 60.269531 30.578125 57.582031 C 31.398438 56.71875 32.21875 55.859375 33.046875 55.003906 C 32.972656 54.941406 32.902344 54.882812 32.832031 54.820312 C 32.066406 55.609375 31.308594 56.40625 30.554688 57.203125 C 30.523438 56.683594 30.496094 56.164062 30.464844 55.648438 C 30.382812 54.300781 30.296875 52.953125 30.210938 51.605469 C 30.121094 51.472656 30.027344 51.335938 29.929688 51.195312 C 30.058594 53.285156 30.191406 55.371094 30.3125 57.460938 C 29.277344 58.5625 28.25 59.667969 27.21875 60.769531 C 26.824219 61.191406 26.433594 61.617188 26.039062 62.042969 C 25.984375 59.589844 25.902344 57.136719 25.785156 54.683594 C 25.765625 54.304688 25.746094 53.929688 25.726562 53.554688 C 25.710938 53.566406 25.699219 53.582031 25.683594 53.59375 C 25.652344 53.625 25.617188 53.65625 25.585938 53.6875 C 25.546875 53.71875 25.511719 53.753906 25.476562 53.785156 C 25.628906 56.628906 25.726562 59.472656 25.789062 62.3125 C 24.4375 63.761719 23.097656 65.214844 21.761719 66.671875 L 21.761719 66.707031 C 21.761719 66.820312 21.761719 66.9375 21.765625 67.054688 C 23.101562 65.59375 24.445312 64.136719 25.796875 62.683594 C 25.855469 65.515625 25.875 68.347656 25.878906 71.179688 C 25.746094 71.328125 25.609375 71.476562 25.476562 71.625 C 25.285156 71.832031 25.097656 72.039062 24.910156 72.25 C 23.894531 73.367188 22.890625 74.484375 21.878906 75.605469 C 21.878906 75.734375 21.882812 75.859375 21.882812 75.984375 C 23.007812 74.738281 24.128906 73.492188 25.253906 72.25 C 25.394531 72.097656 25.53125 71.949219 25.667969 71.796875 C 25.742188 71.71875 25.8125 71.640625 25.882812 71.5625 C 25.882812 71.703125 25.882812 71.84375 25.882812 71.984375 C 25.882812 74.496094 25.875 77.007812 25.867188 79.519531 C 24.453125 81.082031 23.046875 82.652344 21.652344 84.234375 C 21.648438 84.367188 21.640625 84.503906 21.640625 84.636719 C 23.035156 83.050781 24.445312 81.476562 25.863281 79.910156 C 25.851562 83.039062 25.835938 86.171875 25.84375 89.304688 C 24.949219 90.3125 24.054688 91.320312 23.160156 92.328125 C 23.207031 92.339844 23.253906 92.351562 23.300781 92.363281 C 23.355469 92.375 23.410156 92.386719 23.46875 92.398438 C 24.257812 91.507812 25.050781 90.617188 25.84375 89.726562 C 25.847656 90.792969 25.855469 91.863281 25.867188 92.933594 C 25.949219 92.953125 26.039062 92.972656 26.125 92.988281 C 26.113281 91.804688 26.109375 90.621094 26.101562 89.4375 C 27.753906 87.589844 29.410156 85.742188 31.074219 83.898438 C 31.019531 87.128906 30.890625 90.355469 30.667969 93.578125 C 30.625 93.625 30.578125 93.664062 30.535156 93.710938 C 30.660156 93.726562 30.785156 93.742188 30.90625 93.757812 L 30.914062 93.707031 C 33.082031 91.546875 35.261719 89.390625 37.445312 87.25 C 37.4375 89.582031 37.417969 91.914062 37.390625 94.246094 C 37.449219 94.25 37.507812 94.25 37.5625 94.25 C 37.59375 94.25 37.628906 94.253906 37.660156 94.253906 C 37.683594 92.9375 37.714844 91.617188 37.714844 90.300781 C 37.714844 89.195312 37.714844 88.09375 37.714844 86.988281 C 39.476562 85.257812 41.25 83.539062 43.023438 81.816406 C 43.132812 81.707031 43.242188 81.601562 43.351562 81.492188 C 43.351562 81.640625 43.347656 81.785156 43.347656 81.929688 C 43.300781 85.097656 43.242188 88.265625 43.175781 91.433594 C 42.292969 92.371094 41.414062 93.308594 40.539062 94.246094 C 40.625 94.246094 40.714844 94.242188 40.800781 94.238281 C 40.835938 94.238281 40.871094 94.238281 40.90625 94.238281 C 40.90625 94.238281 40.90625 94.238281 40.90625 94.234375 C 41.65625 93.429688 42.414062 92.625 43.167969 91.820312 C 43.152344 92.589844 43.136719 93.359375 43.117188 94.132812 C 43.117188 94.132812 43.117188 94.132812 43.117188 94.136719 C 43.203125 94.128906 43.289062 94.125 43.375 94.117188 C 43.375 94.117188 43.375 94.117188 43.375 94.113281 C 43.398438 93.257812 43.414062 92.398438 43.433594 91.539062 C 43.53125 91.433594 43.632812 91.328125 43.730469 91.222656 C 45.707031 89.128906 47.707031 87.054688 49.710938 84.992188 C 49.667969 87.785156 49.632812 90.582031 49.699219 93.375 C 49.699219 93.375 49.699219 93.378906 49.699219 93.378906 C 49.789062 93.363281 49.875 93.351562 49.960938 93.335938 C 49.960938 93.335938 49.960938 93.332031 49.960938 93.332031 C 49.953125 92.789062 49.949219 92.242188 49.949219 91.703125 " fill-opacity="1" fill-rule="nonzero"/><path fill="#f0c2a8" d="M 58.097656 54.117188 C 58.105469 54.121094 58.117188 54.128906 58.125 54.132812 C 58.113281 54.128906 58.101562 54.121094 58.09375 54.117188 C 58.082031 54.109375 58.074219 54.101562 58.066406 54.09375 C 58.074219 54.101562 58.085938 54.109375 58.097656 54.117188 " fill-opacity="1" fill-rule="nonzero"/></svg>