<svg xmlns="http://www.w3.org/2000/svg" xmlns:xlink="http://www.w3.org/1999/xlink" width="100" zoomAndPan="magnify" viewBox="0 0 75 74.999997" height="100" preserveAspectRatio="xMidYMid meet" version="1.0"><defs><clipPath id="f7962fa0d3"><path d="M 47 55 L 64.351562 55 L 64.351562 75 L 47 75 Z M 47 55 " clip-rule="nonzero"/></clipPath><clipPath id="f6c82126fb"><path d="M 45 55 L 64.351562 55 L 64.351562 75 L 45 75 Z M 45 55 " clip-rule="nonzero"/></clipPath><clipPath id="47ad117d1d"><path d="M 10.351562 55 L 29 55 L 29 75 L 10.351562 75 Z M 10.351562 55 " clip-rule="nonzero"/></clipPath></defs><rect x="-7.5" width="90" fill="#ffffff" y="-7.5" height="89.999996" fill-opacity="1"/><rect x="-7.5" width="90" fill="#ffffff" y="-7.5" height="89.999996" fill-opacity="1"/><rect x="-7.5" width="90" fill="#6ffaff" y="-7.5" height="89.999996" fill-opacity="1"/><path fill="#f1b6af" d="M 11.4375 69.65625 C 11.371094 69.9375 11.308594 70.214844 11.246094 70.484375 C 11.222656 70.582031 11.199219 70.703125 11.175781 70.835938 C 11.199219 70.703125 11.222656 70.585938 11.246094 70.488281 C 11.308594 70.21875 11.371094 69.9375 11.4375 69.65625 " fill-opacity="1" fill-rule="nonzero"/><path fill="#f1b6af" d="M 24.035156 56.363281 C 24.660156 56.199219 25.378906 56.03125 26.136719 55.835938 C 25.378906 56.027344 24.660156 56.195312 24.035156 56.359375 C 20.457031 57.296875 16.105469 59.074219 14.074219 62.207031 C 13.207031 63.546875 12.613281 65.167969 12.152344 66.796875 C 12.613281 65.167969 13.207031 63.546875 14.074219 62.210938 C 16.105469 59.078125 20.453125 57.300781 24.035156 56.363281 " fill-opacity="1" fill-rule="nonzero"/><path fill="#f1b6af" d="M 37.222656 59.613281 C 37.222656 59.613281 42.199219 58.785156 46.148438 55.09375 C 46.15625 55.097656 46.167969 55.097656 46.179688 55.101562 C 45.5 54.863281 44.84375 54.585938 44.25 54.25 C 43.972656 54.097656 43.710938 53.929688 43.46875 53.75 C 43.382812 53.683594 43.304688 53.613281 43.222656 53.546875 C 43.074219 52.382812 42.945312 51.25 42.851562 50.25 C 42.820312 49.886719 42.789062 49.535156 42.753906 49.183594 C 41 49.964844 39.378906 50.484375 37.449219 50.90625 C 35.632812 51.308594 33.914062 51.550781 32.140625 51.582031 C 32.144531 51.574219 32.144531 51.566406 32.144531 51.558594 C 32.074219 52.125 31.988281 52.707031 31.890625 53.300781 C 31.738281 53.445312 31.582031 53.582031 31.410156 53.710938 C 31.164062 53.898438 30.894531 54.074219 30.613281 54.234375 C 29.957031 54.605469 29.21875 54.910156 28.460938 55.167969 C 28.523438 55.148438 28.585938 55.128906 28.648438 55.109375 C 30.300781 56.792969 32.972656 58.605469 37.222656 59.613281 " fill-opacity="1" fill-rule="nonzero"/><g clip-path="url(#f7962fa0d3)"><path fill="#f1b6af" d="M 63.585938 70.484375 C 62.976562 67.859375 62.300781 64.585938 60.757812 62.207031 C 58.726562 59.074219 54.375 57.296875 50.796875 56.359375 C 49.777344 56.089844 48.492188 55.816406 47.210938 55.4375 C 47.886719 55.640625 48.566406 55.816406 49.203125 55.96875 C 49.777344 56.105469 50.316406 56.234375 50.796875 56.363281 C 54.371094 57.300781 58.726562 59.078125 60.757812 62.210938 C 62.300781 64.589844 62.976562 67.863281 63.585938 70.488281 C 63.886719 71.761719 64.308594 76.421875 63.863281 78.527344 C 64.308594 76.425781 63.886719 71.757812 63.585938 70.484375 " fill-opacity="1" fill-rule="nonzero"/></g><g clip-path="url(#f6c82126fb)"><path fill="#b76352" d="M 63.585938 70.488281 C 62.976562 67.863281 62.300781 64.589844 60.757812 62.210938 C 58.726562 59.078125 54.371094 57.300781 50.796875 56.363281 C 50.316406 56.234375 49.777344 56.105469 49.203125 55.96875 L 45.597656 79.5 L 63.40625 79.5 C 63.613281 79.359375 63.761719 79.011719 63.863281 78.527344 C 64.308594 76.421875 63.886719 71.761719 63.585938 70.488281 " fill-opacity="1" fill-rule="nonzero"/></g><g clip-path="url(#47ad117d1d)"><path fill="#b76352" d="M 26.136719 55.835938 C 25.378906 56.03125 24.660156 56.199219 24.035156 56.363281 C 20.453125 57.300781 16.105469 59.078125 14.074219 62.210938 C 13.207031 63.546875 12.613281 65.167969 12.152344 66.796875 C 11.875 67.765625 11.648438 68.738281 11.4375 69.65625 C 11.371094 69.9375 11.308594 70.21875 11.246094 70.488281 C 11.222656 70.585938 11.199219 70.703125 11.175781 70.835938 C 10.816406 72.867188 10.390625 78.804688 11.425781 79.5 L 28.75 79.5 L 26.566406 55.726562 C 26.421875 55.765625 26.28125 55.800781 26.136719 55.835938 " fill-opacity="1" fill-rule="nonzero"/></g><path fill="#f0a0a8" d="M 37.449219 50.90625 C 39.378906 50.484375 41 49.964844 42.753906 49.183594 C 42.730469 48.902344 42.707031 48.628906 42.683594 48.355469 C 40.976562 49.347656 38.90625 50.136719 36.996094 50.175781 C 36.109375 50.191406 35.054688 50.007812 34.242188 49.644531 C 33.550781 49.339844 32.902344 48.980469 32.292969 48.578125 C 32.257812 49.667969 32.203125 50.691406 32.144531 51.558594 C 32.144531 51.566406 32.144531 51.574219 32.140625 51.582031 C 33.914062 51.550781 35.632812 51.308594 37.449219 50.90625 " fill-opacity="1" fill-rule="nonzero"/><path fill="#f1b6af" d="M 50.039062 30.664062 C 50.039062 30.613281 50.035156 30.5625 50.03125 30.511719 C 50.003906 30.585938 49.972656 30.660156 49.945312 30.734375 C 49.976562 30.710938 50.007812 30.6875 50.039062 30.664062 " fill-opacity="1" fill-rule="nonzero"/><path fill="#f1b6af" d="M 37.382812 44.414062 C 38.621094 44.449219 40.664062 44.21875 41.457031 45.152344 C 41.460938 45.152344 41.460938 45.148438 41.464844 45.148438 C 41.359375 44.875 41.382812 44.460938 41.355469 44.261719 C 41.300781 43.414062 41.351562 42.777344 41.109375 42.320312 C 41.089844 42.597656 40.574219 43.003906 40.40625 43.113281 C 39.695312 43.578125 38.988281 43.972656 38.117188 43.945312 C 37.960938 43.941406 37.800781 43.945312 37.644531 43.945312 C 37.558594 43.945312 37.476562 43.945312 37.394531 43.945312 C 37.328125 43.945312 37.269531 43.945312 37.203125 43.945312 C 37.0625 43.945312 36.917969 43.941406 36.773438 43.945312 C 35.910156 43.972656 35.199219 43.578125 34.488281 43.113281 C 34.367188 43.035156 34.050781 42.789062 33.886719 42.554688 C 33.707031 42.792969 33.574219 43.058594 33.515625 43.34375 C 33.464844 43.613281 33.601562 44.746094 33.566406 45.507812 C 34.09375 44.613281 35.421875 44.316406 37.382812 44.414062 " fill-opacity="1" fill-rule="nonzero"/><path fill="#f1b6af" d="M 40.9375 42.082031 C 40.792969 41.921875 40.589844 41.792969 40.300781 41.6875 C 40.46875 41.769531 40.613281 41.847656 40.757812 41.953125 C 40.796875 41.984375 40.871094 42.03125 40.9375 42.082031 " fill-opacity="1" fill-rule="nonzero"/><path fill="#f1b6af" d="M 37.898438 41.210938 C 37.519531 41.179688 37.148438 41.160156 36.816406 41.160156 C 37.027344 41.207031 37.230469 41.308594 37.449219 41.34375 C 37.601562 41.316406 37.75 41.257812 37.898438 41.210938 " fill-opacity="1" fill-rule="nonzero"/><path fill="#f1b6af" d="M 31.113281 39.128906 C 29.527344 39.128906 28.242188 38.425781 28.242188 37.5625 C 28.242188 36.699219 29.527344 35.996094 31.113281 35.996094 C 32.699219 35.996094 33.984375 36.699219 33.984375 37.5625 C 33.984375 38.425781 32.699219 39.128906 31.113281 39.128906 Z M 33.84375 32.441406 C 33.84375 32.441406 32.632812 33.867188 31.203125 33.8125 C 29.777344 33.761719 28.671875 32.25 28.671875 32.25 C 28.671875 32.25 29.882812 30.828125 31.3125 30.878906 C 32.742188 30.933594 33.84375 32.441406 33.84375 32.441406 Z M 27.476562 29.824219 C 27.28125 29.875 27.160156 29.894531 27.160156 29.894531 L 27.144531 29.894531 C 27.078125 29.90625 27.015625 29.859375 27.003906 29.792969 C 26.996094 29.757812 27.007812 29.71875 27.027344 29.691406 C 27.027344 29.691406 27.105469 29.597656 27.253906 29.449219 C 27.402344 29.296875 27.625 29.078125 27.9375 28.886719 C 28.089844 28.785156 28.257812 28.671875 28.453125 28.59375 C 28.648438 28.511719 28.84375 28.394531 29.070312 28.339844 C 29.292969 28.277344 29.523438 28.195312 29.765625 28.167969 C 30.003906 28.125 30.253906 28.09375 30.5 28.089844 C 30.746094 28.078125 30.996094 28.089844 31.234375 28.117188 C 31.480469 28.128906 31.710938 28.1875 31.9375 28.230469 C 32.378906 28.351562 32.78125 28.488281 33.101562 28.667969 C 33.429688 28.828125 33.675781 29.011719 33.839844 29.148438 C 34.003906 29.28125 34.085938 29.378906 34.085938 29.378906 C 34.109375 29.40625 34.105469 29.445312 34.078125 29.46875 L 34.03125 29.484375 C 34.03125 29.484375 33.914062 29.472656 33.710938 29.445312 C 33.507812 29.421875 33.226562 29.390625 32.894531 29.359375 C 32.730469 29.34375 32.554688 29.328125 32.367188 29.3125 C 32.179688 29.292969 31.984375 29.296875 31.785156 29.28125 C 31.585938 29.285156 31.378906 29.261719 31.171875 29.269531 C 30.964844 29.273438 30.757812 29.269531 30.550781 29.289062 C 30.339844 29.289062 30.132812 29.316406 29.929688 29.335938 C 29.722656 29.34375 29.527344 29.390625 29.332031 29.414062 C 29.132812 29.429688 28.949219 29.484375 28.769531 29.511719 C 28.585938 29.542969 28.417969 29.585938 28.261719 29.625 C 28.105469 29.667969 27.949219 29.6875 27.820312 29.726562 C 27.691406 29.769531 27.574219 29.796875 27.476562 29.824219 Z M 36.277344 39.351562 C 36.3125 39.222656 36.445312 39.152344 36.574219 39.1875 C 36.886719 39.28125 37.179688 39.3125 37.433594 39.3125 C 37.730469 39.3125 37.964844 39.269531 38.113281 39.238281 C 38.113281 39.125 38.109375 38.964844 38.101562 38.765625 C 38.085938 38.351562 38.058594 37.769531 38.003906 37.09375 C 37.890625 35.742188 37.664062 34.007812 37.21875 32.511719 C 37.179688 32.382812 37.253906 32.25 37.378906 32.210938 C 37.503906 32.175781 37.640625 32.246094 37.675781 32.375 C 38.136719 33.925781 38.363281 35.679688 38.480469 37.054688 C 38.59375 38.425781 38.59375 39.414062 38.59375 39.417969 C 38.59375 39.519531 38.527344 39.609375 38.433594 39.644531 C 38.417969 39.652344 38.019531 39.792969 37.433594 39.792969 C 37.140625 39.792969 36.800781 39.757812 36.4375 39.648438 C 36.3125 39.609375 36.238281 39.476562 36.277344 39.351562 Z M 40.753906 29.320312 C 40.753906 29.320312 40.835938 29.226562 41 29.09375 C 41.167969 28.957031 41.414062 28.78125 41.742188 28.621094 C 42.066406 28.449219 42.46875 28.3125 42.914062 28.199219 C 43.140625 28.160156 43.375 28.097656 43.617188 28.089844 C 43.859375 28.066406 44.105469 28.058594 44.351562 28.074219 C 44.601562 28.078125 44.847656 28.113281 45.085938 28.15625 C 45.328125 28.1875 45.558594 28.273438 45.777344 28.339844 C 46.003906 28.394531 46.203125 28.511719 46.394531 28.597656 C 46.589844 28.679688 46.753906 28.792969 46.90625 28.898438 C 47.21875 29.09375 47.4375 29.3125 47.582031 29.464844 C 47.730469 29.621094 47.804688 29.714844 47.804688 29.714844 C 47.847656 29.769531 47.839844 29.847656 47.785156 29.890625 C 47.757812 29.914062 47.71875 29.921875 47.6875 29.917969 L 47.671875 29.914062 C 47.671875 29.914062 47.550781 29.894531 47.359375 29.839844 C 47.261719 29.8125 47.144531 29.785156 47.015625 29.742188 C 46.886719 29.699219 46.730469 29.679688 46.574219 29.632812 C 46.417969 29.59375 46.25 29.546875 46.066406 29.511719 C 45.886719 29.484375 45.703125 29.429688 45.507812 29.40625 C 45.308594 29.386719 45.117188 29.335938 44.910156 29.324219 C 44.703125 29.304688 44.5 29.273438 44.289062 29.269531 C 44.082031 29.25 43.875 29.25 43.667969 29.246094 C 43.460938 29.234375 43.257812 29.253906 43.054688 29.25 C 42.855469 29.265625 42.660156 29.257812 42.472656 29.273438 C 42.285156 29.289062 42.109375 29.300781 41.945312 29.316406 C 41.613281 29.34375 41.332031 29.371094 41.128906 29.394531 C 40.921875 29.414062 40.808594 29.425781 40.808594 29.425781 C 40.773438 29.433594 40.742188 29.40625 40.738281 29.371094 Z M 40.996094 32.441406 C 40.996094 32.441406 42.097656 30.933594 43.527344 30.878906 C 44.957031 30.828125 46.167969 32.25 46.167969 32.25 C 46.167969 32.25 45.0625 33.761719 43.636719 33.8125 C 42.207031 33.867188 40.996094 32.441406 40.996094 32.441406 Z M 43.71875 39.128906 C 42.136719 39.128906 40.851562 38.425781 40.851562 37.5625 C 40.851562 36.699219 42.136719 35.996094 43.71875 35.996094 C 45.304688 35.996094 46.589844 36.699219 46.589844 37.5625 C 46.589844 38.425781 45.304688 39.128906 43.71875 39.128906 Z M 32.734375 43.078125 C 33.054688 41.394531 34.675781 40.421875 36.238281 40.128906 C 36.746094 40.019531 37.285156 39.960938 37.800781 39.953125 C 38.738281 39.933594 39.804688 40.058594 40.621094 40.558594 C 41.535156 41.125 41.9375 42.308594 42.078125 43.332031 C 42.105469 43.546875 42.234375 44.167969 42.226562 44.679688 C 43.710938 43.601562 45.371094 41.65625 46.167969 40.296875 C 47.066406 38.769531 47.175781 36.898438 47.746094 35.246094 C 47.980469 34.558594 48.230469 33.9375 48.445312 33.195312 C 48.425781 32.652344 48.359375 32.113281 48.277344 31.570312 C 48.085938 30.332031 47.804688 29.097656 47.804688 27.867188 C 47.796875 25.199219 48.175781 23.058594 47.183594 20.789062 C 46.972656 20.410156 46.742188 20.039062 46.539062 19.65625 C 46.457031 19.5 46.363281 19.351562 46.265625 19.210938 C 45.078125 17.632812 43.246094 17.3125 41.882812 15.945312 C 41.792969 15.855469 41.6875 15.734375 41.570312 15.597656 C 41.53125 15.550781 41.492188 15.5 41.453125 15.449219 C 41.308594 15.898438 41.050781 16.285156 40.605469 16.527344 C 39.527344 17.136719 37.300781 17.136719 36.085938 17.070312 C 34.691406 17.019531 33.296875 16.492188 31.875 16.351562 C 30.03125 16.859375 29.324219 18.980469 28.242188 20.570312 C 27.640625 21.625 26.394531 24.386719 25.535156 26.308594 C 25.707031 27.660156 25.960938 29.011719 25.960938 30.433594 C 25.960938 31.050781 25.976562 31.644531 26.007812 32.226562 C 26.027344 32.589844 26.054688 32.949219 26.089844 33.308594 L 26.226562 33.75 C 26.324219 34.46875 26.417969 35.195312 26.550781 35.910156 C 26.554688 35.9375 26.558594 35.964844 26.566406 35.992188 C 26.566406 35.992188 26.566406 35.996094 26.566406 35.996094 C 26.644531 36.398438 26.730469 36.796875 26.839844 37.1875 C 26.839844 37.191406 26.839844 37.195312 26.84375 37.199219 C 26.878906 37.332031 26.917969 37.460938 26.960938 37.59375 C 27.488281 39.210938 28.636719 40.660156 29.585938 42.054688 C 30.464844 43.335938 31.453125 44.652344 32.8125 45.441406 C 32.769531 45.167969 32.753906 44.882812 32.730469 44.707031 C 32.671875 44.191406 32.636719 43.613281 32.734375 43.078125 " fill-opacity="1" fill-rule="nonzero"/><path fill="#f1b6af" d="M 49.351562 32.277344 C 49.320312 32.367188 49.238281 32.628906 49.148438 32.953125 C 49.355469 33.613281 49.566406 34.527344 49.550781 35.195312 C 49.535156 35.824219 49.507812 36.453125 49.460938 37.078125 C 50.324219 37.03125 51.316406 35.855469 51.796875 34.226562 C 52.335938 32.394531 52.023438 30.683594 51.097656 30.410156 C 50.765625 30.308594 50.398438 30.410156 50.039062 30.664062 C 50.007812 30.6875 49.976562 30.710938 49.945312 30.734375 C 49.742188 31.25 49.527344 31.757812 49.351562 32.277344 " fill-opacity="1" fill-rule="nonzero"/><path fill="#f1b6af" d="M 25.246094 34.597656 C 25.246094 34.15625 25.242188 33.078125 25.320312 32.402344 C 25.179688 31.644531 24.984375 30.972656 24.609375 30.636719 L 24.472656 30.707031 C 24.507812 30.6875 24.519531 30.617188 24.523438 30.503906 C 24.253906 30.375 23.984375 30.335938 23.738281 30.410156 C 22.808594 30.683594 22.496094 32.394531 23.035156 34.226562 C 23.480469 35.726562 24.355469 36.84375 25.167969 37.050781 C 25.167969 36.21875 25.296875 35.453125 25.246094 34.597656 " fill-opacity="1" fill-rule="nonzero"/><path fill="#ffffff" d="M 42.320312 32.347656 C 42.320312 31.667969 42.886719 31.117188 43.582031 31.117188 C 44.277344 31.117188 44.84375 31.667969 44.84375 32.347656 C 44.84375 33.027344 44.277344 33.578125 43.582031 33.578125 C 42.886719 33.578125 42.320312 33.027344 42.320312 32.347656 Z M 46.167969 32.25 C 46.167969 32.25 44.957031 30.828125 43.527344 30.878906 C 42.097656 30.933594 40.996094 32.441406 40.996094 32.441406 C 40.996094 32.441406 42.207031 33.867188 43.636719 33.8125 C 45.0625 33.761719 46.167969 32.25 46.167969 32.25 " fill-opacity="1" fill-rule="nonzero"/><path fill="#2d272a" d="M 44.84375 32.347656 C 44.84375 31.667969 44.277344 31.117188 43.582031 31.117188 C 42.886719 31.117188 42.320312 31.667969 42.320312 32.347656 C 42.320312 33.027344 42.886719 33.578125 43.582031 33.578125 C 44.277344 33.578125 44.84375 33.027344 44.84375 32.347656 " fill-opacity="1" fill-rule="nonzero"/><path fill="#2d272a" d="M 40.808594 29.429688 C 40.808594 29.429688 40.921875 29.414062 41.128906 29.394531 C 41.332031 29.371094 41.613281 29.34375 41.945312 29.316406 C 42.109375 29.300781 42.285156 29.289062 42.472656 29.273438 C 42.660156 29.257812 42.855469 29.265625 43.054688 29.25 C 43.257812 29.253906 43.460938 29.234375 43.667969 29.246094 C 43.875 29.25 44.082031 29.25 44.289062 29.269531 C 44.5 29.273438 44.703125 29.304688 44.910156 29.324219 C 45.113281 29.335938 45.308594 29.386719 45.507812 29.410156 C 45.703125 29.429688 45.886719 29.480469 46.066406 29.511719 C 46.25 29.546875 46.417969 29.59375 46.574219 29.632812 C 46.730469 29.679688 46.886719 29.699219 47.015625 29.742188 C 47.144531 29.785156 47.261719 29.8125 47.359375 29.839844 C 47.550781 29.894531 47.671875 29.914062 47.671875 29.914062 L 47.6875 29.917969 C 47.71875 29.921875 47.757812 29.914062 47.785156 29.890625 C 47.839844 29.847656 47.847656 29.769531 47.804688 29.714844 C 47.804688 29.714844 47.730469 29.621094 47.582031 29.46875 C 47.4375 29.3125 47.21875 29.09375 46.90625 28.898438 C 46.753906 28.792969 46.589844 28.679688 46.394531 28.597656 C 46.203125 28.515625 46.003906 28.394531 45.777344 28.339844 C 45.554688 28.273438 45.328125 28.1875 45.085938 28.160156 C 44.84375 28.113281 44.601562 28.078125 44.351562 28.074219 C 44.105469 28.058594 43.859375 28.066406 43.617188 28.089844 C 43.375 28.101562 43.140625 28.160156 42.914062 28.199219 C 42.46875 28.3125 42.066406 28.449219 41.742188 28.621094 C 41.414062 28.78125 41.167969 28.957031 41 29.09375 C 40.835938 29.226562 40.753906 29.320312 40.753906 29.320312 L 40.738281 29.371094 C 40.742188 29.40625 40.773438 29.433594 40.808594 29.429688 " fill-opacity="1" fill-rule="nonzero"/><path fill="#f0a0a8" d="M 36.4375 39.648438 C 36.800781 39.757812 37.140625 39.792969 37.433594 39.792969 C 38.019531 39.792969 38.417969 39.652344 38.433594 39.644531 C 38.53125 39.609375 38.59375 39.519531 38.59375 39.417969 C 38.59375 39.414062 38.59375 38.425781 38.476562 37.054688 C 38.363281 35.679688 38.136719 33.925781 37.675781 32.375 C 37.636719 32.246094 37.503906 32.175781 37.378906 32.210938 C 37.253906 32.25 37.179688 32.382812 37.21875 32.511719 C 37.664062 34.007812 37.890625 35.742188 38.003906 37.09375 C 38.058594 37.769531 38.085938 38.351562 38.101562 38.765625 C 38.109375 38.964844 38.113281 39.125 38.113281 39.238281 C 37.964844 39.269531 37.730469 39.3125 37.433594 39.3125 C 37.179688 39.3125 36.882812 39.28125 36.574219 39.1875 C 36.445312 39.152344 36.3125 39.222656 36.277344 39.351562 C 36.238281 39.476562 36.3125 39.613281 36.4375 39.648438 " fill-opacity="1" fill-rule="nonzero"/><path fill="#ffffff" d="M 31.257812 33.578125 C 30.5625 33.578125 29.996094 33.027344 29.996094 32.347656 C 29.996094 31.667969 30.5625 31.117188 31.257812 31.117188 C 31.953125 31.117188 32.519531 31.667969 32.519531 32.347656 C 32.519531 33.027344 31.953125 33.578125 31.257812 33.578125 Z M 31.3125 30.878906 C 29.882812 30.828125 28.671875 32.25 28.671875 32.25 C 28.671875 32.25 29.777344 33.761719 31.203125 33.8125 C 32.632812 33.867188 33.84375 32.441406 33.84375 32.441406 C 33.84375 32.441406 32.742188 30.933594 31.3125 30.878906 " fill-opacity="1" fill-rule="nonzero"/><path fill="#2d272a" d="M 31.257812 31.117188 C 30.5625 31.117188 29.996094 31.667969 29.996094 32.347656 C 29.996094 33.027344 30.5625 33.578125 31.257812 33.578125 C 31.953125 33.578125 32.519531 33.027344 32.519531 32.347656 C 32.519531 31.667969 31.953125 31.117188 31.257812 31.117188 " fill-opacity="1" fill-rule="nonzero"/><path fill="#2d272a" d="M 28.769531 29.511719 C 28.949219 29.480469 29.132812 29.429688 29.332031 29.414062 C 29.527344 29.390625 29.722656 29.34375 29.929688 29.335938 C 30.132812 29.316406 30.339844 29.289062 30.550781 29.289062 C 30.757812 29.269531 30.964844 29.273438 31.171875 29.269531 C 31.378906 29.261719 31.585938 29.285156 31.785156 29.28125 C 31.980469 29.296875 32.179688 29.292969 32.363281 29.3125 C 32.554688 29.328125 32.730469 29.34375 32.894531 29.359375 C 33.226562 29.390625 33.507812 29.421875 33.710938 29.445312 C 33.914062 29.472656 34.03125 29.484375 34.03125 29.484375 L 34.078125 29.46875 C 34.105469 29.445312 34.109375 29.40625 34.085938 29.378906 C 34.085938 29.378906 34.003906 29.28125 33.839844 29.148438 C 33.675781 29.011719 33.429688 28.828125 33.101562 28.667969 C 32.78125 28.492188 32.378906 28.351562 31.9375 28.230469 C 31.710938 28.1875 31.476562 28.128906 31.234375 28.117188 C 30.996094 28.089844 30.746094 28.078125 30.5 28.089844 C 30.253906 28.09375 30.003906 28.125 29.765625 28.167969 C 29.523438 28.195312 29.292969 28.277344 29.070312 28.339844 C 28.84375 28.394531 28.648438 28.511719 28.453125 28.59375 C 28.257812 28.671875 28.089844 28.785156 27.9375 28.886719 C 27.625 29.078125 27.402344 29.296875 27.253906 29.449219 C 27.105469 29.597656 27.027344 29.691406 27.027344 29.691406 C 27.007812 29.71875 26.996094 29.757812 27.003906 29.792969 C 27.011719 29.863281 27.078125 29.90625 27.144531 29.894531 L 27.160156 29.894531 C 27.160156 29.894531 27.28125 29.875 27.476562 29.824219 C 27.574219 29.796875 27.691406 29.769531 27.820312 29.726562 C 27.949219 29.6875 28.105469 29.667969 28.261719 29.625 C 28.417969 29.585938 28.585938 29.542969 28.769531 29.511719 " fill-opacity="1" fill-rule="nonzero"/><path fill="#f0a5aa" d="M 37.175781 42.128906 C 37.855469 42.132812 38.496094 42.027344 39.1875 42.074219 C 39.761719 42.109375 40.425781 42.28125 40.984375 42.140625 C 40.96875 42.117188 40.957031 42.097656 40.9375 42.082031 C 40.871094 42.03125 40.796875 41.984375 40.757812 41.953125 C 40.613281 41.847656 40.46875 41.769531 40.300781 41.6875 C 39.605469 41.433594 38.722656 41.28125 37.898438 41.210938 C 37.75 41.257812 37.601562 41.316406 37.449219 41.34375 C 37.230469 41.308594 37.027344 41.207031 36.816406 41.160156 C 35.953125 41.160156 34.871094 41.5625 34.179688 42.222656 C 34.636719 42.183594 35.070312 42.082031 35.535156 42.046875 C 36.09375 42.003906 36.625 42.125 37.175781 42.128906 " fill-opacity="1" fill-rule="nonzero"/><path fill="#f0a5aa" d="M 34.488281 43.113281 C 35.199219 43.578125 35.910156 43.972656 36.773438 43.945312 C 36.917969 43.941406 37.0625 43.945312 37.203125 43.945312 C 37.269531 43.945312 37.328125 43.945312 37.394531 43.945312 C 37.476562 43.945312 37.558594 43.945312 37.644531 43.945312 C 37.800781 43.945312 37.960938 43.941406 38.117188 43.945312 C 38.988281 43.972656 39.695312 43.578125 40.40625 43.113281 C 40.574219 43.003906 41.089844 42.597656 41.109375 42.320312 C 41.101562 42.304688 41.089844 42.292969 41.085938 42.28125 C 41.082031 42.28125 41.082031 42.28125 41.082031 42.28125 C 40.539062 42.4375 39.96875 42.285156 39.414062 42.246094 C 39.035156 42.222656 38.644531 42.167969 38.261719 42.195312 C 37.972656 42.214844 37.675781 42.292969 37.382812 42.289062 C 36.765625 42.285156 36.15625 42.144531 35.535156 42.203125 C 35.007812 42.257812 34.535156 42.363281 34.019531 42.390625 C 33.972656 42.445312 33.929688 42.5 33.886719 42.554688 C 34.050781 42.789062 34.367188 43.035156 34.488281 43.113281 " fill-opacity="1" fill-rule="nonzero"/><path fill="#ef92a3" d="M 37.382812 42.289062 C 37.675781 42.292969 37.972656 42.214844 38.261719 42.195312 C 38.644531 42.167969 39.035156 42.222656 39.414062 42.246094 C 39.96875 42.285156 40.539062 42.4375 41.082031 42.28125 C 41.082031 42.28125 41.082031 42.28125 41.085938 42.28125 C 41.054688 42.230469 41.023438 42.183594 40.984375 42.140625 C 40.425781 42.28125 39.761719 42.109375 39.1875 42.074219 C 38.496094 42.027344 37.855469 42.132812 37.175781 42.128906 C 36.625 42.125 36.09375 42.003906 35.535156 42.046875 C 35.070312 42.082031 34.636719 42.183594 34.179688 42.222656 C 34.125 42.277344 34.070312 42.332031 34.019531 42.390625 C 34.535156 42.363281 35.007812 42.257812 35.535156 42.203125 C 36.15625 42.144531 36.765625 42.285156 37.382812 42.289062 " fill-opacity="1" fill-rule="nonzero"/><path fill="#f1aead" d="M 43.71875 35.996094 C 42.136719 35.996094 40.851562 36.699219 40.851562 37.5625 C 40.851562 38.425781 42.136719 39.128906 43.71875 39.128906 C 45.304688 39.128906 46.589844 38.425781 46.589844 37.5625 C 46.589844 36.699219 45.304688 35.996094 43.71875 35.996094 " fill-opacity="1" fill-rule="nonzero"/><path fill="#f1aead" d="M 33.984375 37.5625 C 33.984375 36.699219 32.699219 35.996094 31.113281 35.996094 C 29.527344 35.996094 28.242188 36.699219 28.242188 37.5625 C 28.242188 38.425781 29.527344 39.128906 31.113281 39.128906 C 32.699219 39.128906 33.984375 38.425781 33.984375 37.5625 " fill-opacity="1" fill-rule="nonzero"/><path fill="#2d272a" d="M 41.46875 45.164062 C 41.464844 45.160156 41.464844 45.15625 41.464844 45.148438 C 41.460938 45.148438 41.460938 45.152344 41.457031 45.152344 C 41.460938 45.15625 41.464844 45.160156 41.46875 45.164062 " fill-opacity="1" fill-rule="nonzero"/><path fill="#2d272a" d="M 33.570312 45.507812 C 33.601562 44.746094 33.464844 43.613281 33.515625 43.34375 C 33.574219 43.058594 33.707031 42.792969 33.886719 42.554688 C 33.929688 42.5 33.972656 42.445312 34.019531 42.390625 C 34.070312 42.332031 34.125 42.277344 34.179688 42.222656 C 34.871094 41.5625 35.953125 41.160156 36.816406 41.160156 C 37.148438 41.160156 37.519531 41.179688 37.898438 41.210938 C 38.722656 41.28125 39.605469 41.433594 40.300781 41.6875 C 40.589844 41.792969 40.792969 41.921875 40.9375 42.082031 C 40.957031 42.097656 40.96875 42.117188 40.984375 42.140625 C 41.023438 42.183594 41.054688 42.230469 41.085938 42.277344 C 41.089844 42.292969 41.101562 42.304688 41.109375 42.320312 C 41.351562 42.777344 41.300781 43.410156 41.355469 44.261719 C 41.382812 44.460938 41.359375 44.875 41.464844 45.148438 C 41.464844 45.15625 41.464844 45.160156 41.46875 45.164062 C 41.464844 45.160156 41.460938 45.15625 41.457031 45.152344 C 40.664062 44.21875 38.621094 44.449219 37.382812 44.414062 C 35.421875 44.316406 34.09375 44.613281 33.570312 45.507812 Z M 29.585938 42.054688 C 28.636719 40.660156 27.488281 39.210938 26.960938 37.59375 C 26.917969 37.460938 26.878906 37.332031 26.84375 37.199219 C 26.839844 37.195312 26.839844 37.191406 26.839844 37.1875 C 26.730469 36.796875 26.640625 36.398438 26.566406 35.988281 C 26.558594 35.964844 26.554688 35.9375 26.550781 35.910156 C 26.417969 35.195312 26.324219 34.46875 26.226562 33.75 L 26.089844 33.308594 C 26.054688 32.953125 26.027344 32.589844 26.007812 32.226562 C 25.976562 31.644531 25.960938 31.050781 25.960938 30.433594 C 25.960938 28.625 25.269531 26.988281 26.015625 25.230469 C 26.683594 23.660156 27.398438 22.054688 28.242188 20.570312 C 28.917969 19.382812 29.636719 17.84375 30.75 17.011719 C 32.316406 15.839844 34.363281 17.007812 36.085938 17.070312 C 37.300781 17.136719 39.527344 17.136719 40.605469 16.527344 C 41.050781 16.285156 41.308594 15.898438 41.453125 15.449219 C 41.492188 15.5 41.53125 15.550781 41.570312 15.597656 C 41.6875 15.734375 41.792969 15.855469 41.882812 15.945312 C 43.246094 17.3125 45.078125 17.632812 46.265625 19.210938 C 46.300781 19.253906 46.335938 19.296875 46.367188 19.34375 C 46.710938 19.835938 46.976562 20.316406 47.183594 20.789062 C 48.175781 23.058594 47.796875 25.199219 47.804688 27.867188 C 47.804688 29.097656 48.085938 30.332031 48.277344 31.570312 C 48.359375 32.113281 48.425781 32.652344 48.445312 33.195312 C 48.230469 33.9375 47.980469 34.558594 47.746094 35.246094 C 47.175781 36.898438 47.066406 38.769531 46.167969 40.296875 C 45.371094 41.65625 43.710938 43.601562 42.226562 44.679688 C 42.238281 44.167969 42.105469 43.546875 42.078125 43.332031 C 41.9375 42.308594 41.535156 41.125 40.617188 40.558594 C 39.804688 40.058594 38.738281 39.933594 37.804688 39.953125 C 37.285156 39.960938 36.746094 40.019531 36.238281 40.128906 C 34.675781 40.421875 33.054688 41.394531 32.734375 43.078125 C 32.636719 43.613281 32.671875 44.191406 32.730469 44.707031 C 32.753906 44.882812 32.769531 45.167969 32.8125 45.441406 C 31.453125 44.652344 30.460938 43.335938 29.585938 42.054688 Z M 36.996094 50.175781 C 38.90625 50.136719 40.976562 49.347656 42.683594 48.355469 C 42.949219 48.203125 43.207031 48.042969 43.453125 47.882812 C 45.863281 46.296875 47.863281 43.835938 48.847656 41.109375 C 49.046875 40.546875 49.117188 39.976562 49.199219 39.390625 C 49.273438 38.824219 49.347656 38.257812 49.40625 37.6875 C 49.429688 37.484375 49.445312 37.28125 49.460938 37.078125 C 49.507812 36.453125 49.535156 35.824219 49.550781 35.195312 C 49.566406 34.527344 49.355469 33.613281 49.148438 32.953125 C 49.238281 32.628906 49.320312 32.367188 49.351562 32.277344 C 49.527344 31.757812 49.742188 31.25 49.945312 30.734375 C 49.972656 30.660156 50.003906 30.585938 50.03125 30.511719 C 50.113281 30.304688 50.1875 30.09375 50.257812 29.878906 C 50.859375 28.027344 50.738281 26.070312 50.761719 24.148438 C 50.78125 22.960938 50.824219 21.773438 50.789062 20.582031 C 50.660156 16.367188 49.207031 12.3125 44.898438 10.796875 C 44.171875 10.539062 43.386719 10.363281 42.613281 10.464844 C 42.429688 10.488281 41.402344 10.808594 40.832031 11.117188 C 40.230469 10.171875 39.289062 9.285156 38.5 8.878906 C 35.792969 7.5 32.117188 8.734375 29.730469 10.253906 C 27.109375 11.921875 25.195312 14.636719 23.804688 17.382812 C 22.726562 19.507812 22.5625 21.621094 23.097656 23.925781 C 23.363281 25.078125 23.71875 26.207031 23.972656 27.359375 C 24.03125 27.636719 24.527344 29.820312 24.523438 30.503906 C 24.519531 30.617188 24.507812 30.6875 24.472656 30.707031 L 24.609375 30.636719 C 24.984375 30.972656 25.179688 31.644531 25.320312 32.402344 C 25.242188 33.078125 25.246094 34.15625 25.246094 34.597656 C 25.296875 35.453125 25.167969 36.21875 25.167969 37.046875 C 25.167969 37.382812 25.183594 37.726562 25.246094 38.089844 C 25.429688 39.199219 25.875 40.351562 26.367188 41.355469 C 27.789062 44.253906 29.664062 46.832031 32.292969 48.578125 C 32.902344 48.980469 33.550781 49.339844 34.242188 49.644531 C 35.054688 50.007812 36.109375 50.191406 36.996094 50.175781 " fill-opacity="1" fill-rule="nonzero"/><path fill="#f5dab8" d="M 47.210938 55.4375 C 47.179688 55.429688 47.148438 55.417969 47.117188 55.410156 C 47.011719 55.375 46.902344 55.34375 46.796875 55.308594 C 46.589844 55.242188 46.382812 55.175781 46.179688 55.101562 C 46.167969 55.097656 46.15625 55.097656 46.148438 55.09375 C 42.199219 58.785156 37.222656 59.613281 37.222656 59.613281 C 32.972656 58.605469 30.300781 56.792969 28.648438 55.109375 C 28.585938 55.128906 28.523438 55.148438 28.460938 55.167969 C 28.191406 55.257812 27.925781 55.34375 27.65625 55.425781 C 27.609375 55.4375 27.566406 55.453125 27.519531 55.464844 C 27.199219 55.558594 26.878906 55.644531 26.566406 55.726562 L 28.75 79.5 L 45.597656 79.5 L 49.203125 55.96875 C 48.566406 55.816406 47.886719 55.640625 47.210938 55.4375 " fill-opacity="1" fill-rule="nonzero"/></svg>