<svg xmlns="http://www.w3.org/2000/svg" xmlns:xlink="http://www.w3.org/1999/xlink" width="100" zoomAndPan="magnify" viewBox="0 0 75 74.999997" height="100" preserveAspectRatio="xMidYMid meet" version="1.0"><defs><clipPath id="e65c0aab54"><path d="M 27 4.917969 L 51 4.917969 L 51 35 L 27 35 Z M 27 4.917969 " clip-rule="nonzero"/></clipPath><clipPath id="776ed1dacf"><path d="M 44 42 L 59.609375 42 L 59.609375 63 L 44 63 Z M 44 42 " clip-rule="nonzero"/></clipPath></defs><rect x="-7.5" width="90" fill="#ffffff" y="-7.5" height="89.999996" fill-opacity="1"/><rect x="-7.5" width="90" fill="#ffffff" y="-7.5" height="89.999996" fill-opacity="1"/><rect x="-7.5" width="90" fill="#6ffaff" y="-7.5" height="89.999996" fill-opacity="1"/><path fill="#653026" d="M 30.078125 16.785156 L 30.121094 16.777344 L 30.078125 16.785156 C 29.878906 16.84375 29.730469 17.003906 29.628906 17.238281 C 29.730469 17.007812 29.878906 16.84375 30.078125 16.785156 " fill-opacity="1" fill-rule="nonzero"/><path fill="#653026" d="M 47.695312 18.003906 C 47.679688 17.375 47.46875 16.894531 47.097656 16.785156 L 47.050781 16.777344 L 47.097656 16.785156 C 47.46875 16.894531 47.679688 17.375 47.695312 18.003906 " fill-opacity="1" fill-rule="nonzero"/><path fill="#653026" d="M 46.507812 16.898438 C 46.484375 16.914062 46.460938 16.921875 46.441406 16.9375 L 46.441406 16.945312 C 46.460938 16.929688 46.484375 16.914062 46.507812 16.898438 " fill-opacity="1" fill-rule="nonzero"/><path fill="#653026" d="M 30.730469 16.941406 L 30.699219 16.921875 L 30.730469 16.945312 Z M 30.730469 16.941406 " fill-opacity="1" fill-rule="nonzero"/><path fill="#653026" d="M 48.597656 15.375 L 48.597656 15.371094 C 48.5 14.253906 48.164062 13.210938 47.65625 12.253906 C 47.894531 12.824219 48.097656 13.382812 48.261719 13.910156 C 48.40625 14.375 48.519531 14.867188 48.597656 15.375 " fill-opacity="1" fill-rule="nonzero"/><path fill="#653026" d="M 43.117188 31.414062 C 42.964844 31.328125 42.8125 31.242188 42.648438 31.164062 L 42.640625 31.160156 C 42.558594 31.113281 42.484375 31.058594 42.425781 30.988281 C 42.378906 30.929688 42.332031 30.863281 42.292969 30.796875 C 42.332031 30.863281 42.375 30.929688 42.425781 30.988281 C 42.488281 31.066406 42.566406 31.121094 42.652344 31.167969 C 42.738281 31.21875 42.832031 31.265625 42.917969 31.3125 C 42.984375 31.347656 43.050781 31.382812 43.117188 31.414062 " fill-opacity="1" fill-rule="nonzero"/><path fill="#653026" d="M 33.082031 31.757812 C 33.425781 31.628906 33.757812 31.484375 34.0625 31.3125 C 34.15625 31.257812 34.25 31.203125 34.339844 31.140625 C 34.414062 31.089844 34.484375 31.042969 34.554688 30.988281 C 34.582031 30.96875 34.609375 30.945312 34.636719 30.921875 C 33.9375 31.164062 33.328125 31.484375 32.804688 31.855469 C 32.886719 31.828125 32.96875 31.800781 33.050781 31.769531 L 33.082031 31.757812 " fill-opacity="1" fill-rule="nonzero"/><path fill="#f7c1ab" d="M 43.761719 25.722656 C 44.191406 25.203125 44.582031 24.625 44.917969 23.996094 C 44.707031 24.359375 44.519531 24.621094 44.367188 24.800781 C 44.1875 25.125 43.984375 25.433594 43.761719 25.722656 " fill-opacity="1" fill-rule="nonzero"/><path fill="#f7c1ab" d="M 30.753906 16.957031 L 30.734375 16.941406 L 30.730469 16.941406 L 30.730469 16.945312 L 30.753906 16.957031 " fill-opacity="1" fill-rule="nonzero"/><path fill="#f7c1ab" d="M 31.421875 17.785156 C 31.296875 17.542969 31.152344 17.339844 31 17.175781 C 31.152344 17.339844 31.296875 17.546875 31.421875 17.785156 " fill-opacity="1" fill-rule="nonzero"/><path fill="#f7c1ab" d="M 46.441406 16.945312 L 46.441406 16.9375 C 46.324219 17.019531 46.210938 17.128906 46.101562 17.257812 C 46.210938 17.128906 46.324219 17.023438 46.441406 16.945312 " fill-opacity="1" fill-rule="nonzero"/><path fill="#f7c1ab" d="M 31.148438 20.914062 L 31.152344 20.925781 C 31.4375 21.886719 31.726562 22.640625 31.992188 23.226562 C 31.859375 22.785156 31.761719 22.324219 31.710938 21.847656 C 31.703125 21.792969 31.699219 21.738281 31.691406 21.683594 C 31.695312 21.320312 31.953125 21.027344 32.277344 21.011719 C 32.296875 21.011719 32.316406 21.011719 32.332031 21.011719 C 32.558594 21.007812 32.792969 20.992188 32.945312 20.980469 L 32.925781 20.929688 C 32.84375 20.71875 32.71875 20.425781 32.566406 20.089844 C 32.335938 19.574219 32.03125 18.964844 31.691406 18.417969 C 31.589844 18.25 31.484375 18.089844 31.375 17.941406 C 31.339844 17.894531 31.351562 17.832031 31.398438 17.796875 L 31.421875 17.785156 C 31.296875 17.546875 31.152344 17.339844 31 17.175781 L 30.984375 17.160156 C 30.953125 17.128906 30.921875 17.101562 30.894531 17.074219 L 30.867188 17.050781 C 30.839844 17.023438 30.8125 17 30.78125 16.980469 L 30.753906 16.957031 L 30.730469 16.945312 L 30.699219 16.921875 C 30.667969 16.902344 30.636719 16.882812 30.605469 16.867188 C 30.585938 16.855469 30.5625 16.84375 30.542969 16.832031 C 30.503906 16.816406 30.460938 16.800781 30.421875 16.789062 C 30.398438 16.785156 30.375 16.78125 30.351562 16.773438 C 30.324219 16.769531 30.296875 16.765625 30.273438 16.765625 C 30.25 16.765625 30.226562 16.765625 30.207031 16.765625 C 30.175781 16.765625 30.148438 16.773438 30.121094 16.777344 L 30.078125 16.785156 C 29.878906 16.84375 29.730469 17.007812 29.628906 17.238281 C 29.429688 17.6875 29.421875 18.402344 29.640625 19.148438 C 29.660156 19.21875 29.683594 19.28125 29.703125 19.347656 C 29.714844 19.371094 29.722656 19.398438 29.734375 19.425781 C 29.746094 19.460938 29.761719 19.496094 29.773438 19.53125 C 29.789062 19.566406 29.800781 19.597656 29.816406 19.625 C 29.828125 19.65625 29.839844 19.683594 29.851562 19.710938 C 29.867188 19.742188 29.882812 19.777344 29.902344 19.808594 C 29.910156 19.832031 29.921875 19.855469 29.933594 19.875 C 29.953125 19.910156 29.972656 19.945312 29.992188 19.976562 L 30.019531 20.03125 C 30.042969 20.066406 30.0625 20.101562 30.085938 20.132812 L 30.109375 20.171875 C 30.132812 20.207031 30.160156 20.242188 30.183594 20.277344 L 30.195312 20.292969 C 30.351562 20.503906 30.519531 20.664062 30.691406 20.773438 C 30.722656 20.792969 30.757812 20.8125 30.789062 20.828125 L 30.800781 20.832031 C 30.832031 20.847656 30.863281 20.859375 30.894531 20.871094 L 30.90625 20.875 C 30.929688 20.882812 30.949219 20.886719 30.972656 20.894531 C 30.984375 20.875 31.003906 20.863281 31.023438 20.855469 C 31.074219 20.839844 31.125 20.867188 31.148438 20.914062 " fill-opacity="1" fill-rule="nonzero"/><path fill="#f7c1ab" d="M 32.253906 16.4375 C 32.253906 16.4375 32.292969 16.367188 32.371094 16.242188 C 32.417969 16.183594 32.464844 16.109375 32.535156 16.035156 C 32.605469 15.953125 32.691406 15.875 32.789062 15.792969 C 32.890625 15.714844 33.007812 15.636719 33.136719 15.566406 C 33.265625 15.5 33.40625 15.429688 33.554688 15.378906 C 33.703125 15.320312 33.859375 15.277344 34.019531 15.238281 C 34.183594 15.195312 34.347656 15.171875 34.511719 15.152344 C 34.84375 15.117188 35.179688 15.0625 35.488281 15.089844 C 35.792969 15.121094 36.066406 15.21875 36.292969 15.316406 C 36.519531 15.417969 36.695312 15.535156 36.816406 15.628906 C 36.933594 15.722656 36.996094 15.792969 36.996094 15.792969 C 37.046875 15.851562 37.039062 15.9375 36.984375 15.992188 C 36.964844 16.003906 36.945312 16.015625 36.925781 16.019531 L 36.921875 16.023438 C 36.921875 16.023438 36.835938 16.042969 36.695312 16.066406 C 36.550781 16.085938 36.355469 16.105469 36.125 16.113281 C 35.898438 16.117188 35.636719 16.117188 35.371094 16.078125 C 35.101562 16.039062 34.820312 15.945312 34.53125 15.921875 C 34.386719 15.910156 34.242188 15.90625 34.101562 15.902344 C 33.960938 15.902344 33.824219 15.90625 33.691406 15.921875 C 33.425781 15.949219 33.191406 16.023438 33.003906 16.121094 C 32.910156 16.167969 32.828125 16.21875 32.757812 16.269531 C 32.6875 16.320312 32.636719 16.375 32.589844 16.417969 C 32.507812 16.507812 32.460938 16.566406 32.460938 16.566406 L 32.457031 16.570312 C 32.414062 16.625 32.339844 16.632812 32.285156 16.589844 C 32.242188 16.554688 32.230469 16.488281 32.253906 16.4375 Z M 34.914062 19.007812 C 34.636719 19.007812 34.414062 18.636719 34.414062 18.179688 C 34.414062 17.722656 34.636719 17.351562 34.914062 17.351562 C 35.1875 17.351562 35.410156 17.722656 35.410156 18.179688 C 35.410156 18.636719 35.1875 19.007812 34.914062 19.007812 Z M 42.195312 17.351562 C 42.472656 17.351562 42.695312 17.722656 42.695312 18.179688 C 42.695312 18.636719 42.472656 19.007812 42.195312 19.007812 C 41.921875 19.007812 41.699219 18.636719 41.699219 18.179688 C 41.699219 17.722656 41.921875 17.351562 42.195312 17.351562 Z M 33.160156 20.957031 C 33.65625 20.886719 34.152344 20.75 34.589844 20.46875 C 35.324219 19.992188 36 19.449219 36.832031 19.191406 C 37.554688 18.964844 38.367188 18.90625 39.144531 19.023438 C 39.148438 18.972656 39.148438 18.925781 39.148438 18.878906 C 39.148438 18.460938 39.066406 18 38.976562 17.628906 C 38.882812 17.253906 38.789062 16.976562 38.769531 16.917969 L 38.765625 16.90625 C 38.730469 16.8125 38.777344 16.707031 38.875 16.671875 C 38.96875 16.636719 39.074219 16.6875 39.109375 16.78125 C 39.109375 16.785156 39.210938 17.066406 39.3125 17.464844 C 39.414062 17.863281 39.515625 18.382812 39.515625 18.878906 C 39.515625 18.949219 39.511719 19.019531 39.507812 19.089844 C 39.777344 19.148438 40.039062 19.230469 40.285156 19.339844 C 40.695312 19.515625 41.082031 19.738281 41.46875 19.957031 C 42.171875 20.355469 42.871094 20.753906 43.675781 20.914062 C 43.691406 20.917969 43.761719 20.925781 43.863281 20.9375 C 44.054688 20.550781 44.664062 19.351562 45.378906 18.3125 L 45.417969 18.28125 C 45.269531 17.675781 45.078125 17.101562 44.832031 16.542969 C 44.789062 16.554688 44.742188 16.539062 44.714844 16.503906 L 44.710938 16.496094 C 44.710938 16.496094 44.664062 16.441406 44.582031 16.351562 C 44.535156 16.308594 44.484375 16.253906 44.410156 16.203125 C 44.34375 16.152344 44.261719 16.101562 44.167969 16.054688 C 43.980469 15.960938 43.742188 15.886719 43.476562 15.863281 C 43.347656 15.84375 43.207031 15.839844 43.066406 15.84375 C 42.925781 15.847656 42.78125 15.851562 42.640625 15.867188 C 42.351562 15.890625 42.066406 15.984375 41.800781 16.027344 C 41.53125 16.066406 41.273438 16.066406 41.046875 16.0625 C 40.816406 16.058594 40.621094 16.042969 40.476562 16.019531 C 40.335938 16 40.25 15.980469 40.25 15.980469 L 40.246094 15.976562 C 40.167969 15.957031 40.125 15.878906 40.144531 15.804688 C 40.152344 15.785156 40.160156 15.765625 40.175781 15.75 C 40.175781 15.75 40.238281 15.679688 40.355469 15.585938 C 40.472656 15.492188 40.648438 15.375 40.871094 15.269531 C 41.097656 15.167969 41.371094 15.074219 41.679688 15.039062 C 41.984375 15.011719 42.320312 15.0625 42.652344 15.09375 C 42.816406 15.113281 42.984375 15.140625 43.144531 15.175781 C 43.304688 15.214844 43.464844 15.257812 43.613281 15.316406 C 43.761719 15.367188 43.902344 15.4375 44.03125 15.503906 C 44.160156 15.570312 44.277344 15.648438 44.378906 15.726562 C 44.410156 15.753906 44.441406 15.78125 44.472656 15.808594 C 44.261719 15.414062 44.027344 15.03125 43.761719 14.648438 C 42.796875 13.226562 41.488281 12.203125 40.234375 11.007812 C 39.421875 10.195312 38.796875 9.585938 38.410156 8.824219 L 38.40625 8.832031 C 38.015625 9.589844 37.390625 10.195312 36.582031 11.007812 C 35.332031 12.203125 34.019531 13.226562 33.054688 14.648438 C 32.359375 15.652344 31.855469 16.679688 31.527344 17.804688 L 31.542969 17.820312 C 32.308594 18.878906 32.933594 20.378906 33.160156 20.957031 " fill-opacity="1" fill-rule="nonzero"/><path fill="#f7c1ab" d="M 45.550781 18.429688 C 45.507812 18.492188 45.460938 18.558594 45.417969 18.625 C 44.835938 19.503906 44.335938 20.460938 44.113281 20.90625 C 44.101562 20.925781 44.09375 20.941406 44.085938 20.957031 C 44.261719 20.976562 44.476562 20.992188 44.675781 21 C 44.710938 21 44.746094 21.003906 44.78125 21.003906 L 44.785156 21.003906 C 45.089844 21.042969 45.328125 21.328125 45.328125 21.675781 C 45.328125 21.695312 45.328125 21.714844 45.324219 21.734375 L 45.320312 21.777344 C 45.257812 22.394531 45.121094 22.984375 44.929688 23.542969 C 45.25 22.929688 45.609375 22.078125 45.957031 20.90625 L 45.964844 20.890625 C 45.980469 20.835938 46.039062 20.804688 46.09375 20.820312 C 46.132812 20.832031 46.160156 20.863281 46.164062 20.902344 L 46.175781 20.902344 C 46.203125 20.894531 46.234375 20.886719 46.261719 20.878906 L 46.289062 20.867188 C 46.3125 20.859375 46.339844 20.847656 46.367188 20.835938 L 46.398438 20.820312 C 46.425781 20.808594 46.449219 20.792969 46.472656 20.777344 L 46.507812 20.753906 C 46.53125 20.738281 46.558594 20.722656 46.582031 20.703125 L 46.609375 20.683594 C 46.703125 20.609375 46.792969 20.519531 46.882812 20.414062 L 46.890625 20.402344 C 46.917969 20.371094 46.945312 20.335938 46.972656 20.296875 L 46.988281 20.277344 C 47.015625 20.238281 47.042969 20.203125 47.070312 20.160156 L 47.082031 20.140625 C 47.109375 20.097656 47.136719 20.054688 47.164062 20.011719 L 47.171875 19.996094 C 47.3125 19.75 47.4375 19.464844 47.53125 19.148438 C 47.652344 18.746094 47.703125 18.351562 47.695312 18.003906 C 47.679688 17.375 47.46875 16.894531 47.097656 16.785156 L 47.050781 16.777344 C 47.023438 16.773438 46.996094 16.765625 46.96875 16.765625 C 46.945312 16.765625 46.925781 16.765625 46.902344 16.765625 C 46.875 16.765625 46.851562 16.769531 46.824219 16.773438 C 46.792969 16.78125 46.765625 16.785156 46.734375 16.792969 C 46.703125 16.804688 46.667969 16.816406 46.636719 16.828125 C 46.609375 16.84375 46.578125 16.859375 46.546875 16.875 L 46.507812 16.898438 C 46.484375 16.914062 46.460938 16.929688 46.441406 16.945312 C 46.324219 17.023438 46.210938 17.128906 46.101562 17.257812 C 46.085938 17.277344 46.066406 17.296875 46.050781 17.320312 C 46.03125 17.34375 46.011719 17.371094 45.988281 17.398438 C 45.964844 17.433594 45.945312 17.464844 45.921875 17.5 C 45.90625 17.519531 45.890625 17.542969 45.878906 17.5625 C 45.796875 17.6875 45.722656 17.824219 45.65625 17.972656 L 45.652344 17.976562 C 45.617188 18.050781 45.585938 18.128906 45.554688 18.210938 L 45.550781 18.21875 C 45.542969 18.242188 45.535156 18.265625 45.527344 18.289062 C 45.570312 18.320312 45.582031 18.382812 45.550781 18.429688 " fill-opacity="1" fill-rule="nonzero"/><g clip-path="url(#e65c0aab54)"><path fill="#653026" d="M 28.5625 33.050781 L 28.570312 33.050781 C 28.660156 33.019531 28.753906 32.988281 28.847656 32.957031 C 28.921875 32.933594 28.996094 32.90625 29.070312 32.882812 C 29.113281 32.871094 29.160156 32.859375 29.203125 32.84375 C 29.257812 32.828125 29.308594 32.808594 29.363281 32.792969 C 29.394531 32.785156 29.425781 32.777344 29.453125 32.769531 C 29.632812 32.71875 29.808594 32.667969 29.980469 32.625 C 30 32.617188 30.023438 32.613281 30.046875 32.605469 L 30.066406 32.601562 L 30.097656 32.59375 C 30.335938 32.53125 30.589844 32.472656 30.859375 32.40625 C 30.894531 32.398438 30.925781 32.390625 30.960938 32.382812 L 30.960938 32.378906 C 31.925781 31.285156 33.277344 30.355469 35.167969 29.878906 C 35.261719 29.378906 35.257812 28.796875 35.300781 28.179688 C 35.308594 27.972656 35.316406 27.757812 35.324219 27.539062 C 34.273438 26.933594 33.386719 26.046875 32.746094 24.964844 C 32.546875 24.710938 32.253906 24.269531 31.914062 23.554688 C 31.613281 22.925781 31.28125 22.089844 30.953125 20.984375 C 30.945312 20.953125 30.953125 20.917969 30.972656 20.894531 C 30.949219 20.886719 30.929688 20.882812 30.90625 20.875 L 30.894531 20.871094 C 30.863281 20.859375 30.832031 20.847656 30.800781 20.832031 L 30.789062 20.828125 C 30.757812 20.8125 30.722656 20.792969 30.691406 20.773438 C 30.519531 20.664062 30.351562 20.503906 30.195312 20.292969 L 30.183594 20.277344 C 30.160156 20.242188 30.132812 20.207031 30.109375 20.171875 L 30.085938 20.132812 C 30.0625 20.101562 30.042969 20.066406 30.019531 20.03125 L 29.992188 19.976562 C 29.972656 19.945312 29.953125 19.910156 29.933594 19.875 C 29.921875 19.855469 29.910156 19.832031 29.902344 19.808594 C 29.882812 19.777344 29.867188 19.742188 29.851562 19.710938 C 29.839844 19.683594 29.828125 19.65625 29.816406 19.625 C 29.800781 19.597656 29.789062 19.566406 29.773438 19.53125 C 29.761719 19.496094 29.746094 19.460938 29.734375 19.425781 C 29.722656 19.398438 29.714844 19.371094 29.703125 19.347656 C 29.683594 19.28125 29.660156 19.214844 29.640625 19.148438 C 29.421875 18.402344 29.429688 17.6875 29.628906 17.238281 C 29.730469 17.003906 29.878906 16.84375 30.078125 16.785156 L 30.121094 16.777344 C 30.148438 16.773438 30.175781 16.765625 30.207031 16.765625 C 30.226562 16.765625 30.25 16.765625 30.273438 16.765625 C 30.296875 16.765625 30.324219 16.769531 30.351562 16.777344 C 30.375 16.78125 30.398438 16.785156 30.421875 16.789062 C 30.460938 16.800781 30.503906 16.816406 30.542969 16.832031 C 30.5625 16.84375 30.585938 16.855469 30.605469 16.867188 C 30.636719 16.882812 30.667969 16.902344 30.699219 16.921875 L 30.730469 16.941406 L 30.734375 16.941406 L 30.753906 16.957031 L 30.78125 16.980469 C 30.8125 17 30.839844 17.023438 30.867188 17.050781 L 30.894531 17.074219 C 30.921875 17.101562 30.953125 17.128906 30.984375 17.160156 L 31 17.175781 C 31.152344 17.339844 31.296875 17.542969 31.421875 17.785156 C 31.460938 17.773438 31.496094 17.777344 31.527344 17.804688 C 31.855469 16.679688 32.359375 15.652344 33.054688 14.648438 C 34.019531 13.226562 35.332031 12.203125 36.582031 11.007812 C 37.390625 10.195312 38.015625 9.589844 38.40625 8.832031 L 38.40625 8.824219 C 38.796875 9.585938 39.421875 10.195312 40.234375 11.007812 C 41.488281 12.203125 42.796875 13.226562 43.761719 14.648438 C 44.027344 15.03125 44.261719 15.414062 44.46875 15.808594 C 44.53125 15.859375 44.585938 15.914062 44.632812 15.964844 C 44.703125 16.039062 44.753906 16.117188 44.796875 16.171875 C 44.875 16.296875 44.917969 16.371094 44.917969 16.371094 C 44.949219 16.429688 44.925781 16.5 44.867188 16.535156 L 44.832031 16.542969 C 45.078125 17.101562 45.269531 17.675781 45.417969 18.28125 C 45.449219 18.261719 45.492188 18.261719 45.523438 18.285156 L 45.527344 18.289062 C 45.535156 18.265625 45.542969 18.242188 45.550781 18.21875 L 45.554688 18.210938 C 45.585938 18.128906 45.617188 18.054688 45.652344 17.976562 L 45.65625 17.972656 C 45.722656 17.824219 45.796875 17.6875 45.878906 17.5625 C 45.890625 17.542969 45.90625 17.519531 45.921875 17.5 C 45.941406 17.464844 45.964844 17.433594 45.988281 17.398438 C 46.011719 17.371094 46.03125 17.34375 46.050781 17.320312 C 46.066406 17.296875 46.085938 17.277344 46.101562 17.257812 C 46.210938 17.128906 46.324219 17.019531 46.4375 16.9375 L 46.441406 16.9375 C 46.460938 16.921875 46.484375 16.914062 46.503906 16.898438 L 46.546875 16.875 C 46.578125 16.859375 46.609375 16.84375 46.636719 16.832031 C 46.667969 16.816406 46.703125 16.804688 46.734375 16.796875 C 46.765625 16.785156 46.792969 16.78125 46.824219 16.773438 C 46.851562 16.769531 46.875 16.765625 46.902344 16.765625 C 46.925781 16.765625 46.945312 16.765625 46.96875 16.765625 C 46.996094 16.765625 47.023438 16.773438 47.050781 16.777344 L 47.097656 16.785156 C 47.46875 16.894531 47.679688 17.375 47.695312 18.003906 C 47.703125 18.351562 47.652344 18.746094 47.53125 19.148438 C 47.4375 19.464844 47.3125 19.75 47.171875 19.996094 L 47.164062 20.011719 C 47.136719 20.054688 47.109375 20.097656 47.082031 20.140625 L 47.070312 20.160156 C 47.042969 20.203125 47.015625 20.238281 46.988281 20.277344 L 46.972656 20.296875 C 46.945312 20.335938 46.917969 20.371094 46.890625 20.402344 L 46.882812 20.414062 C 46.792969 20.519531 46.703125 20.609375 46.609375 20.683594 L 46.582031 20.703125 C 46.558594 20.722656 46.53125 20.738281 46.507812 20.753906 L 46.472656 20.777344 C 46.449219 20.792969 46.425781 20.804688 46.398438 20.820312 L 46.367188 20.835938 C 46.339844 20.847656 46.3125 20.859375 46.285156 20.867188 L 46.261719 20.878906 C 46.234375 20.886719 46.203125 20.894531 46.175781 20.902344 L 46.164062 20.902344 L 46.164062 20.949219 C 45.742188 22.375 45.296875 23.34375 44.925781 23.984375 L 44.917969 23.996094 C 44.578125 24.625 44.191406 25.203125 43.761719 25.722656 C 43.203125 26.449219 42.515625 27.058594 41.742188 27.511719 C 41.761719 27.734375 41.78125 27.964844 41.800781 28.195312 C 41.820312 28.410156 41.84375 28.628906 41.863281 28.855469 C 41.890625 29.167969 41.929688 29.507812 41.96875 29.855469 C 41.976562 29.902344 41.988281 29.941406 42 29.984375 C 42.03125 29.996094 42.0625 30.011719 42.09375 30.023438 C 42.242188 30.074219 42.386719 30.125 42.527344 30.183594 C 42.542969 30.1875 42.554688 30.195312 42.570312 30.203125 C 43.742188 30.691406 44.652344 31.363281 45.367188 32.191406 L 46.316406 32.453125 C 46.441406 32.484375 46.558594 32.511719 46.675781 32.542969 C 46.707031 32.550781 46.738281 32.558594 46.769531 32.566406 C 46.824219 32.578125 46.875 32.589844 46.921875 32.605469 L 47 32.625 C 47.15625 32.664062 47.308594 32.707031 47.46875 32.753906 C 47.507812 32.761719 47.542969 32.773438 47.582031 32.785156 C 47.941406 32.890625 48.304688 33.007812 48.671875 33.140625 L 48.6875 33.148438 C 49.078125 33.289062 49.46875 33.449219 49.851562 33.625 C 49.878906 33.640625 49.90625 33.652344 49.933594 33.664062 C 50.003906 33.695312 50.070312 33.730469 50.140625 33.761719 C 50.199219 33.792969 50.257812 33.824219 50.320312 33.855469 C 50.386719 33.890625 50.457031 33.925781 50.523438 33.960938 C 50.613281 34.007812 50.703125 34.058594 50.792969 34.113281 C 50.84375 34.140625 50.890625 34.167969 50.9375 34.195312 L 50.992188 34.226562 C 50.710938 30.246094 49.195312 21.425781 48.890625 17.925781 C 48.847656 17.464844 48.785156 17.066406 48.722656 16.59375 C 48.703125 16.179688 48.660156 15.773438 48.597656 15.375 C 48.519531 14.867188 48.40625 14.375 48.261719 13.910156 C 48.097656 13.382812 47.894531 12.824219 47.65625 12.253906 C 46.238281 8.859375 43.535156 5.015625 39.835938 4.917969 C 39.300781 4.917969 38.796875 4.949219 38.40625 5.101562 C 38.023438 4.949219 37.515625 4.917969 36.980469 4.917969 C 32.652344 5.03125 29.695312 10.265625 28.554688 13.910156 C 28.15625 15.171875 28.011719 16.644531 28.089844 18.058594 L 28.089844 18.066406 C 28.140625 18.847656 27.777344 28.011719 27.808594 33.332031 C 28.054688 33.230469 28.304688 33.140625 28.550781 33.054688 L 28.5625 33.050781 " fill-opacity="1" fill-rule="nonzero"/></g><path fill="#f1b6af" d="M 41.96875 29.855469 C 41.929688 29.507812 41.890625 29.167969 41.863281 28.855469 C 41.84375 28.628906 41.820312 28.414062 41.800781 28.195312 L 41.800781 28.199219 C 41.847656 28.773438 41.875 29.347656 41.96875 29.855469 " fill-opacity="1" fill-rule="nonzero"/><path fill="#f7c1ab" d="M 52.265625 75.414062 L 52.253906 75.414062 L 52.265625 75.417969 C 52.566406 75.214844 51.363281 72.835938 51.414062 64.632812 C 51.363281 72.835938 52.566406 75.214844 52.265625 75.414062 " fill-opacity="1" fill-rule="nonzero"/><path fill="#f7c1ab" d="M 25.308594 34.683594 C 25.269531 34.710938 25.230469 34.742188 25.191406 34.773438 L 25.230469 34.742188 C 25.257812 34.722656 25.28125 34.703125 25.308594 34.683594 " fill-opacity="1" fill-rule="nonzero"/><path fill="#f7c1ab" d="M 52.699219 35.609375 L 52.65625 35.558594 L 52.695312 35.609375 Z M 52.699219 35.609375 " fill-opacity="1" fill-rule="nonzero"/><path fill="#f7c1ab" d="M 51.175781 34.34375 C 51.113281 34.304688 51.050781 34.265625 50.992188 34.226562 L 50.9375 34.195312 C 51.015625 34.242188 51.097656 34.292969 51.175781 34.34375 " fill-opacity="1" fill-rule="nonzero"/><path fill="#f7c1ab" d="M 35.148438 29.972656 L 35.144531 29.992188 C 35.132812 30.046875 35.121094 30.101562 35.105469 30.152344 L 35.101562 30.160156 C 35.070312 30.269531 35.03125 30.375 34.980469 30.472656 L 34.972656 30.488281 C 34.953125 30.527344 34.929688 30.566406 34.90625 30.605469 L 34.878906 30.648438 C 34.859375 30.675781 34.839844 30.703125 34.816406 30.730469 L 34.773438 30.78125 C 34.757812 30.804688 34.738281 30.824219 34.71875 30.84375 C 34.699219 30.863281 34.679688 30.882812 34.65625 30.902344 L 34.636719 30.921875 C 34.609375 30.945312 34.582031 30.96875 34.554688 30.988281 C 34.484375 31.042969 34.414062 31.089844 34.339844 31.140625 C 35.175781 32.652344 38.957031 38.65625 38.957031 38.65625 C 38.957031 38.65625 41.84375 33.238281 42.652344 31.167969 C 42.566406 31.121094 42.488281 31.066406 42.425781 30.988281 C 42.375 30.929688 42.332031 30.863281 42.292969 30.796875 L 42.265625 30.753906 C 42.230469 30.683594 42.195312 30.617188 42.164062 30.542969 L 42.148438 30.503906 C 42.121094 30.433594 42.09375 30.367188 42.074219 30.292969 L 42.0625 30.253906 C 42.035156 30.167969 42.011719 30.078125 41.996094 29.984375 C 41.996094 29.984375 41.996094 29.984375 42 29.984375 C 41.988281 29.941406 41.976562 29.902344 41.96875 29.855469 C 41.875 29.347656 41.847656 28.773438 41.800781 28.199219 C 40.714844 28.679688 39.707031 28.996094 38.511719 29.261719 C 37.382812 29.507812 36.316406 29.65625 35.21875 29.675781 C 35.25 29.234375 35.277344 28.722656 35.300781 28.179688 C 35.257812 28.796875 35.261719 29.378906 35.167969 29.878906 C 35.164062 29.910156 35.15625 29.941406 35.148438 29.972656 " fill-opacity="1" fill-rule="nonzero"/><path fill="#f7c1ab" d="M 28.550781 33.054688 L 28.5625 33.050781 Z M 28.550781 33.054688 " fill-opacity="1" fill-rule="nonzero"/><path fill="#69cee2" d="M 30.046875 32.609375 L 30.097656 32.59375 L 30.066406 32.601562 Z M 30.046875 32.609375 " fill-opacity="1" fill-rule="nonzero"/><path fill="#69cee2" d="M 29.203125 32.84375 C 29.285156 32.816406 29.371094 32.792969 29.453125 32.769531 C 29.425781 32.777344 29.394531 32.785156 29.363281 32.792969 C 29.308594 32.808594 29.257812 32.828125 29.203125 32.84375 " fill-opacity="1" fill-rule="nonzero"/><path fill="#69cee2" d="M 30.859375 32.40625 C 30.894531 32.398438 30.925781 32.390625 30.960938 32.382812 C 30.925781 32.390625 30.894531 32.398438 30.859375 32.40625 " fill-opacity="1" fill-rule="nonzero"/><path fill="#69cee2" d="M 46.921875 32.605469 C 46.875 32.589844 46.820312 32.578125 46.769531 32.566406 C 46.832031 32.582031 46.894531 32.597656 46.953125 32.613281 L 46.921875 32.605469 " fill-opacity="1" fill-rule="nonzero"/><path fill="#69cee2" d="M 46.675781 32.542969 C 46.558594 32.511719 46.441406 32.484375 46.316406 32.453125 L 46.324219 32.453125 C 46.441406 32.484375 46.5625 32.511719 46.675781 32.542969 " fill-opacity="1" fill-rule="nonzero"/><path fill="#69cee2" d="M 33.082031 31.757812 L 33.050781 31.769531 L 33.085938 31.757812 L 33.09375 31.753906 L 38.878906 40.789062 L 44.105469 32.125 C 43.8125 31.871094 43.496094 31.636719 43.140625 31.429688 L 43.117188 31.414062 C 43.050781 31.382812 42.984375 31.347656 42.917969 31.3125 C 42.832031 31.265625 42.738281 31.21875 42.652344 31.167969 C 41.84375 33.238281 38.957031 38.65625 38.957031 38.65625 C 38.957031 38.65625 35.175781 32.652344 34.339844 31.140625 C 34.25 31.203125 34.15625 31.257812 34.0625 31.3125 C 33.757812 31.484375 33.425781 31.628906 33.082031 31.757812 " fill-opacity="1" fill-rule="nonzero"/><path fill="#ecf4f2" d="M 50.566406 62.566406 C 50.480469 62.542969 50.394531 62.527344 50.3125 62.5 L 50.058594 62.421875 C 49.890625 62.371094 49.722656 62.316406 49.5625 62.25 L 49.316406 62.152344 C 49.234375 62.117188 49.152344 62.089844 49.074219 62.050781 L 48.601562 61.8125 C 48.523438 61.769531 48.441406 61.738281 48.367188 61.691406 L 48.140625 61.550781 L 47.71875 61.28125 C 47.289062 61.773438 46.660156 62.082031 45.957031 62.082031 C 44.667969 62.082031 43.621094 61.039062 43.621094 59.746094 C 43.621094 59.605469 43.632812 59.46875 43.660156 59.332031 L 42.667969 59.304688 C 42.546875 59.453125 42.382812 59.558594 42.125 59.5625 L 42.132812 59.578125 L 42.117188 59.589844 C 42.222656 60.46875 41.242188 60.472656 40.640625 60.644531 C 39.992188 60.847656 39.554688 61.050781 38.933594 61.105469 C 38.953125 61.230469 38.96875 61.351562 38.992188 61.472656 C 39.039062 61.796875 39.105469 62.121094 39.167969 62.441406 L 39.167969 62.445312 C 39.179688 62.484375 39.15625 62.523438 39.121094 62.539062 C 38.59375 62.761719 38.0625 62.964844 37.523438 63.152344 C 37.40625 63.195312 37.285156 63.234375 37.167969 63.273438 C 37.359375 64.839844 37.691406 68.339844 37.066406 69.535156 C 36.519531 70.589844 33.171875 72.257812 33.171875 72.257812 L 32.945312 72.414062 L 32.714844 72.257812 C 32.714844 72.257812 29.371094 70.589844 28.820312 69.535156 C 28.367188 68.667969 28.417969 66.589844 28.554688 64.917969 L 28.335938 64.921875 L 28.121094 64.925781 L 27.90625 64.917969 L 27.480469 64.898438 C 27.195312 64.886719 26.910156 64.882812 26.628906 64.84375 L 25.78125 64.746094 L 25.761719 64.722656 L 25.765625 64.722656 C 25.703125 64.710938 25.644531 64.703125 25.582031 64.691406 C 25.648438 72.503906 24.59375 75.003906 24.769531 75.378906 L 24.800781 75.414062 L 52.265625 75.414062 C 52.566406 75.214844 51.363281 72.835938 51.414062 64.632812 C 51.417969 64.050781 51.425781 63.441406 51.441406 62.804688 C 51.183594 62.746094 50.925781 62.675781 50.671875 62.589844 C 50.636719 62.582031 50.601562 62.574219 50.566406 62.566406 " fill-opacity="1" fill-rule="nonzero"/><path fill="#ecf4f2" d="M 33.09375 31.753906 L 33.085938 31.757812 L 38.875 40.792969 L 38.878906 40.789062 L 33.09375 31.753906 " fill-opacity="1" fill-rule="nonzero"/><path fill="#cedfeb" d="M 35.898438 63.679688 C 35.625 63.765625 35.351562 63.835938 35.074219 63.914062 C 34.800781 63.992188 34.527344 64.058594 34.25 64.128906 C 33.972656 64.195312 33.695312 64.265625 33.417969 64.320312 C 33.136719 64.378906 32.859375 64.445312 32.578125 64.492188 L 31.738281 64.640625 C 31.457031 64.6875 31.171875 64.71875 30.890625 64.757812 L 30.46875 64.808594 L 30.042969 64.84375 C 29.757812 64.863281 29.472656 64.894531 29.1875 64.902344 L 28.554688 64.917969 C 28.417969 66.589844 28.367188 68.667969 28.820312 69.535156 C 29.371094 70.589844 32.714844 72.257812 32.714844 72.257812 L 32.945312 72.414062 L 33.171875 72.257812 C 33.171875 72.257812 36.519531 70.589844 37.066406 69.535156 C 37.691406 68.339844 37.359375 64.839844 37.167969 63.273438 C 37.015625 63.324219 36.867188 63.375 36.714844 63.425781 C 36.445312 63.519531 36.167969 63.59375 35.898438 63.679688 " fill-opacity="1" fill-rule="nonzero"/><path fill="#f5a686" d="M 38.511719 29.261719 C 39.707031 28.996094 40.714844 28.679688 41.800781 28.199219 L 41.800781 28.195312 C 41.78125 27.964844 41.761719 27.734375 41.742188 27.511719 C 40.78125 28.074219 39.679688 28.394531 38.511719 28.394531 C 37.359375 28.394531 36.277344 28.085938 35.324219 27.539062 C 35.316406 27.757812 35.308594 27.972656 35.300781 28.179688 C 35.277344 28.722656 35.25 29.234375 35.21875 29.675781 C 36.316406 29.65625 37.382812 29.507812 38.511719 29.261719 " fill-opacity="1" fill-rule="nonzero"/><path fill="#d4ecf1" d="M 38.875 40.792969 L 33.085938 31.757812 L 33.050781 31.769531 C 32.96875 31.800781 32.886719 31.828125 32.804688 31.855469 L 32.792969 31.863281 C 32.265625 32.238281 31.820312 32.667969 31.445312 33.121094 L 37.679688 42.777344 L 38.875 40.792969 " fill-opacity="1" fill-rule="nonzero"/><path fill="#b8e3f0" d="M 45.996094 33.042969 L 46.324219 32.453125 L 46.316406 32.453125 L 45.367188 32.191406 L 45.394531 32.222656 C 45.617188 32.480469 45.8125 32.753906 45.996094 33.042969 " fill-opacity="1" fill-rule="nonzero"/><path fill="#b8e3f0" d="M 38.875 40.792969 L 37.679688 42.777344 L 37.675781 42.78125 L 39.144531 45.425781 L 45.527344 33.886719 C 45.152344 33.21875 44.683594 32.628906 44.105469 32.125 L 38.878906 40.789062 L 38.875 40.792969 " fill-opacity="1" fill-rule="nonzero"/><path fill="#ecf4f2" d="M 43.863281 20.9375 C 43.925781 20.941406 44 20.949219 44.085938 20.957031 C 44.09375 20.941406 44.101562 20.925781 44.113281 20.90625 C 44.335938 20.460938 44.835938 19.503906 45.417969 18.625 C 45.460938 18.558594 45.507812 18.492188 45.550781 18.429688 C 45.582031 18.382812 45.570312 18.320312 45.527344 18.289062 L 45.523438 18.285156 C 45.492188 18.261719 45.449219 18.261719 45.417969 18.277344 L 45.378906 18.3125 C 44.664062 19.351562 44.054688 20.550781 43.863281 20.9375 " fill-opacity="1" fill-rule="nonzero"/><path fill="#ecf4f2" d="M 46.09375 20.820312 C 46.039062 20.804688 45.980469 20.835938 45.964844 20.890625 L 45.957031 20.90625 C 45.609375 22.078125 45.25 22.929688 44.929688 23.542969 C 44.777344 23.984375 44.589844 24.402344 44.367188 24.800781 C 44.519531 24.621094 44.707031 24.359375 44.917969 23.996094 L 44.925781 23.984375 C 45.296875 23.34375 45.742188 22.375 46.164062 20.949219 L 46.164062 20.902344 C 46.160156 20.863281 46.132812 20.832031 46.09375 20.820312 " fill-opacity="1" fill-rule="nonzero"/><path fill="#ecf4f2" d="M 31.152344 20.925781 L 31.148438 20.914062 C 31.125 20.867188 31.074219 20.839844 31.023438 20.855469 C 31.003906 20.863281 30.984375 20.875 30.972656 20.894531 C 30.953125 20.917969 30.945312 20.953125 30.953125 20.984375 C 31.28125 22.089844 31.613281 22.925781 31.914062 23.554688 C 32.253906 24.269531 32.546875 24.710938 32.746094 24.964844 C 32.429688 24.429688 32.175781 23.84375 31.992188 23.226562 C 31.726562 22.640625 31.4375 21.886719 31.152344 20.925781 " fill-opacity="1" fill-rule="nonzero"/><path fill="#ecf4f2" d="M 31.398438 17.796875 C 31.351562 17.832031 31.339844 17.894531 31.375 17.941406 C 31.484375 18.089844 31.589844 18.25 31.691406 18.417969 C 32.03125 18.964844 32.335938 19.574219 32.566406 20.089844 C 32.71875 20.425781 32.84375 20.71875 32.925781 20.929688 L 32.945312 20.980469 C 33.019531 20.972656 33.078125 20.96875 33.105469 20.964844 L 33.160156 20.957031 C 32.933594 20.382812 32.308594 18.878906 31.542969 17.820312 L 31.527344 17.804688 C 31.496094 17.777344 31.460938 17.773438 31.421875 17.785156 L 31.398438 17.796875 " fill-opacity="1" fill-rule="nonzero"/><path fill="#f471b3" d="M 47.703125 61.273438 L 46.984375 60.828125 L 46.730469 60.671875 C 46.519531 60.847656 46.253906 60.953125 45.957031 60.953125 C 45.292969 60.953125 44.75 60.414062 44.75 59.746094 C 44.75 59.613281 44.773438 59.484375 44.8125 59.367188 L 43.660156 59.332031 C 43.632812 59.46875 43.621094 59.605469 43.621094 59.746094 C 43.621094 61.039062 44.667969 62.082031 45.957031 62.082031 C 46.660156 62.082031 47.289062 61.773438 47.71875 61.28125 L 47.695312 61.269531 L 47.703125 61.273438 " fill-opacity="1" fill-rule="nonzero"/><path fill="#ecf4f2" d="M 44.75 59.746094 C 44.75 60.414062 45.292969 60.953125 45.957031 60.953125 C 46.253906 60.953125 46.519531 60.847656 46.730469 60.671875 L 46.625 60.605469 L 46.277344 60.371094 C 46.105469 60.253906 45.933594 60.136719 45.761719 60.019531 C 45.734375 60.003906 45.707031 59.988281 45.683594 59.972656 C 45.484375 59.851562 45.304688 59.722656 45.144531 59.589844 C 45.058594 59.527344 44.972656 59.46875 44.890625 59.410156 L 44.886719 59.378906 L 44.90625 59.375 L 44.902344 59.367188 L 44.8125 59.367188 C 44.773438 59.484375 44.75 59.613281 44.75 59.746094 " fill-opacity="1" fill-rule="nonzero"/><path fill="#f471b3" d="M 42 29.984375 C 41.996094 29.984375 41.996094 29.984375 41.996094 29.984375 C 42.011719 30.078125 42.035156 30.167969 42.0625 30.253906 L 42.074219 30.292969 C 42.09375 30.367188 42.121094 30.433594 42.148438 30.503906 L 42.164062 30.542969 C 42.195312 30.617188 42.230469 30.683594 42.265625 30.753906 L 42.292969 30.796875 C 42.332031 30.863281 42.378906 30.929688 42.425781 30.988281 C 42.484375 31.058594 42.558594 31.113281 42.640625 31.160156 L 42.648438 31.164062 C 42.8125 31.242188 42.964844 31.328125 43.117188 31.414062 L 43.140625 31.429688 C 43.496094 31.636719 43.8125 31.871094 44.105469 32.125 C 44.683594 32.628906 45.152344 33.21875 45.527344 33.886719 C 46.171875 35.023438 46.566406 36.386719 46.832031 37.914062 L 47.671875 37.84375 C 47.355469 36.019531 46.863281 34.382812 45.996094 33.042969 C 45.8125 32.753906 45.617188 32.480469 45.394531 32.222656 L 45.367188 32.191406 C 44.652344 31.363281 43.742188 30.691406 42.570312 30.203125 C 42.554688 30.195312 42.542969 30.1875 42.527344 30.183594 C 42.386719 30.125 42.242188 30.074219 42.09375 30.023438 C 42.0625 30.011719 42.03125 29.996094 42 29.984375 " fill-opacity="1" fill-rule="nonzero"/><path fill="#f78f71" d="M 39.3125 17.464844 C 39.210938 17.066406 39.109375 16.785156 39.109375 16.78125 C 39.074219 16.6875 38.96875 16.636719 38.875 16.671875 C 38.777344 16.707031 38.730469 16.8125 38.765625 16.90625 L 38.769531 16.917969 C 38.789062 16.976562 38.882812 17.257812 38.976562 17.628906 C 39.066406 18 39.148438 18.460938 39.148438 18.878906 C 39.148438 18.925781 39.148438 18.976562 39.144531 19.023438 C 39.265625 19.039062 39.386719 19.0625 39.507812 19.089844 C 39.511719 19.019531 39.515625 18.949219 39.515625 18.878906 C 39.515625 18.382812 39.414062 17.863281 39.3125 17.464844 " fill-opacity="1" fill-rule="nonzero"/><path fill="#653026" d="M 32.457031 16.570312 L 32.460938 16.566406 C 32.460938 16.566406 32.507812 16.507812 32.589844 16.417969 C 32.636719 16.375 32.6875 16.320312 32.757812 16.269531 C 32.828125 16.21875 32.910156 16.167969 33.003906 16.121094 C 33.191406 16.023438 33.425781 15.953125 33.691406 15.921875 C 33.824219 15.90625 33.960938 15.902344 34.101562 15.902344 C 34.242188 15.90625 34.386719 15.910156 34.53125 15.925781 C 34.820312 15.945312 35.101562 16.039062 35.371094 16.078125 C 35.636719 16.117188 35.898438 16.117188 36.125 16.113281 C 36.351562 16.105469 36.550781 16.085938 36.691406 16.066406 C 36.835938 16.046875 36.921875 16.023438 36.921875 16.023438 L 36.925781 16.019531 C 36.945312 16.015625 36.964844 16.003906 36.984375 15.992188 C 37.039062 15.9375 37.046875 15.851562 36.996094 15.792969 C 36.996094 15.792969 36.933594 15.722656 36.816406 15.628906 C 36.695312 15.535156 36.519531 15.417969 36.292969 15.316406 C 36.066406 15.21875 35.792969 15.121094 35.488281 15.089844 C 35.179688 15.0625 34.84375 15.117188 34.511719 15.152344 C 34.347656 15.171875 34.183594 15.199219 34.019531 15.238281 C 33.859375 15.277344 33.703125 15.320312 33.554688 15.378906 C 33.402344 15.429688 33.265625 15.5 33.136719 15.570312 C 33.007812 15.636719 32.890625 15.714844 32.789062 15.792969 C 32.691406 15.875 32.605469 15.953125 32.535156 16.035156 C 32.464844 16.109375 32.417969 16.1875 32.371094 16.242188 C 32.292969 16.367188 32.253906 16.441406 32.253906 16.441406 C 32.226562 16.488281 32.242188 16.554688 32.285156 16.589844 C 32.339844 16.632812 32.414062 16.625 32.457031 16.570312 " fill-opacity="1" fill-rule="nonzero"/><path fill="#653026" d="M 44.03125 15.503906 C 43.902344 15.4375 43.761719 15.367188 43.613281 15.316406 C 43.460938 15.257812 43.304688 15.214844 43.144531 15.175781 C 42.984375 15.136719 42.816406 15.113281 42.652344 15.09375 C 42.320312 15.0625 41.984375 15.011719 41.679688 15.039062 C 41.371094 15.074219 41.097656 15.171875 40.875 15.269531 C 40.648438 15.375 40.472656 15.492188 40.355469 15.585938 C 40.238281 15.679688 40.175781 15.75 40.175781 15.75 C 40.160156 15.765625 40.148438 15.785156 40.144531 15.804688 C 40.125 15.878906 40.167969 15.957031 40.246094 15.976562 L 40.25 15.980469 C 40.25 15.980469 40.335938 16 40.476562 16.019531 C 40.621094 16.042969 40.816406 16.058594 41.046875 16.0625 C 41.273438 16.066406 41.53125 16.066406 41.800781 16.027344 C 42.070312 15.984375 42.351562 15.890625 42.640625 15.867188 C 42.78125 15.851562 42.925781 15.847656 43.066406 15.84375 C 43.207031 15.84375 43.347656 15.84375 43.476562 15.863281 C 43.742188 15.886719 43.980469 15.960938 44.167969 16.054688 C 44.261719 16.101562 44.34375 16.152344 44.410156 16.203125 C 44.484375 16.253906 44.535156 16.308594 44.582031 16.351562 C 44.664062 16.441406 44.710938 16.496094 44.710938 16.496094 L 44.714844 16.503906 C 44.742188 16.539062 44.789062 16.554688 44.832031 16.542969 L 44.867188 16.535156 C 44.925781 16.5 44.949219 16.429688 44.917969 16.371094 C 44.917969 16.371094 44.878906 16.296875 44.796875 16.171875 C 44.753906 16.117188 44.703125 16.039062 44.632812 15.964844 C 44.585938 15.914062 44.53125 15.859375 44.472656 15.808594 C 44.441406 15.78125 44.410156 15.753906 44.378906 15.726562 C 44.277344 15.648438 44.160156 15.570312 44.03125 15.503906 " fill-opacity="1" fill-rule="nonzero"/><path fill="#985039" d="M 34.914062 17.351562 C 34.636719 17.351562 34.414062 17.722656 34.414062 18.179688 C 34.414062 18.636719 34.636719 19.007812 34.914062 19.007812 C 35.1875 19.007812 35.410156 18.636719 35.410156 18.179688 C 35.410156 17.722656 35.1875 17.351562 34.914062 17.351562 " fill-opacity="1" fill-rule="nonzero"/><path fill="#985039" d="M 42.195312 19.007812 C 42.472656 19.007812 42.695312 18.636719 42.695312 18.179688 C 42.695312 17.722656 42.472656 17.351562 42.195312 17.351562 C 41.921875 17.351562 41.699219 17.722656 41.699219 18.179688 C 41.699219 18.636719 41.921875 19.007812 42.195312 19.007812 " fill-opacity="1" fill-rule="nonzero"/><path fill="#ecf4f2" d="M 41.742188 27.511719 C 42.515625 27.058594 43.203125 26.449219 43.761719 25.722656 C 43.984375 25.433594 44.1875 25.125 44.367188 24.800781 C 44.589844 24.402344 44.777344 23.984375 44.929688 23.542969 C 45.121094 22.984375 45.257812 22.394531 45.320312 21.777344 L 45.324219 21.734375 C 45.328125 21.714844 45.328125 21.695312 45.328125 21.675781 C 45.328125 21.328125 45.089844 21.042969 44.785156 21.003906 L 44.78125 21.003906 C 44.746094 21.003906 44.710938 21 44.675781 21 C 44.476562 20.992188 44.261719 20.976562 44.085938 20.957031 C 44 20.949219 43.925781 20.941406 43.863281 20.9375 C 43.761719 20.925781 43.691406 20.917969 43.675781 20.914062 C 42.871094 20.753906 42.171875 20.355469 41.46875 19.957031 C 41.082031 19.738281 40.695312 19.519531 40.285156 19.339844 C 40.039062 19.230469 39.777344 19.148438 39.507812 19.089844 C 39.386719 19.0625 39.265625 19.039062 39.144531 19.023438 C 38.367188 18.90625 37.554688 18.964844 36.832031 19.191406 C 36 19.449219 35.324219 19.992188 34.589844 20.46875 C 34.152344 20.75 33.65625 20.886719 33.160156 20.957031 L 33.105469 20.964844 C 33.078125 20.96875 33.019531 20.972656 32.945312 20.980469 C 32.792969 20.992188 32.558594 21.007812 32.332031 21.011719 C 32.316406 21.011719 32.296875 21.011719 32.277344 21.011719 C 31.953125 21.027344 31.695312 21.320312 31.691406 21.683594 C 31.699219 21.738281 31.703125 21.792969 31.710938 21.847656 C 31.761719 22.324219 31.859375 22.785156 31.992188 23.226562 C 32.175781 23.84375 32.429688 24.429688 32.746094 24.964844 C 33.386719 26.046875 34.273438 26.933594 35.324219 27.539062 C 36.277344 28.085938 37.359375 28.394531 38.511719 28.394531 C 39.679688 28.394531 40.78125 28.074219 41.742188 27.511719 " fill-opacity="1" fill-rule="nonzero"/><path fill="#9dded4" d="M 41.402344 55.054688 L 41.261719 55.589844 C 41.566406 55.605469 41.878906 55.605469 42.199219 55.585938 C 42.675781 55.585938 43.28125 55.410156 43.714844 55.671875 C 44.269531 55.972656 44.273438 56.652344 43.6875 56.917969 L 43.699219 56.929688 L 43.683594 56.945312 C 44.132812 57.699219 43.632812 57.835938 43.207031 58.296875 L 43.222656 58.3125 L 43.195312 58.339844 L 43.167969 58.34375 C 42.964844 58.625 42.882812 59.035156 42.667969 59.304688 L 43.660156 59.332031 L 44.8125 59.367188 L 44.902344 59.367188 C 43.976562 58.46875 43.78125 57.339844 44.515625 56.082031 C 44.574219 55.984375 44.628906 55.894531 44.679688 55.808594 C 44.003906 55.714844 43.171875 55.285156 42.566406 55.171875 C 42.144531 55.113281 41.761719 55.109375 41.402344 55.054688 " fill-opacity="1" fill-rule="nonzero"/><path fill="#9dded4" d="M 49.824219 38.5625 C 49.910156 38.304688 50.035156 37.976562 50.195312 37.632812 L 47.671875 37.84375 L 46.832031 37.914062 L 45.964844 37.984375 L 43.238281 48.015625 L 43.222656 48.082031 C 43.949219 48.179688 44.664062 48.371094 44.902344 48.492188 C 45.859375 48.898438 46.355469 49.570312 46.511719 50.375 C 46.691406 49.988281 46.945312 49.730469 47.332031 49.753906 C 48.175781 49.816406 49.769531 51.691406 50.546875 52.082031 C 51.6875 52.5625 53.507812 53.535156 53.71875 52.503906 L 53.722656 52.507812 L 56.640625 42.929688 L 58.464844 36.945312 L 54.347656 37.289062 L 54.519531 38.195312 C 53.011719 38.367188 51.488281 38.574219 49.824219 38.5625 " fill-opacity="1" fill-rule="nonzero"/><path fill="#a7a5a6" d="M 52.488281 35.59375 C 52.246094 35.59375 52.003906 35.632812 51.777344 35.726562 C 51.40625 35.871094 51.070312 36.203125 50.785156 36.601562 C 50.554688 36.921875 50.359375 37.285156 50.195312 37.632812 C 50.035156 37.976562 49.910156 38.304688 49.824219 38.5625 C 51.488281 38.574219 53.011719 38.367188 54.519531 38.195312 L 54.347656 37.289062 L 54.304688 37.046875 C 54.222656 36.257812 53.484375 35.703125 52.699219 35.609375 L 52.695312 35.609375 C 52.628906 35.601562 52.558594 35.597656 52.488281 35.59375 " fill-opacity="1" fill-rule="nonzero"/><path fill="#f7c1ab" d="M 41.660156 49.140625 L 41.667969 49.109375 C 41.667969 49.109375 41.707031 49.113281 41.769531 49.125 C 41.832031 49.132812 41.925781 49.148438 42.035156 49.164062 C 42.253906 49.195312 42.539062 49.265625 42.824219 49.324219 C 42.96875 49.355469 43.109375 49.390625 43.242188 49.425781 C 43.375 49.464844 43.5 49.480469 43.605469 49.511719 C 43.820312 49.5625 43.964844 49.605469 43.964844 49.605469 L 43.960938 49.648438 C 43.960938 49.648438 43.8125 49.652344 43.589844 49.644531 C 43.476562 49.636719 43.34375 49.636719 43.207031 49.609375 C 43.070312 49.589844 42.925781 49.558594 42.777344 49.53125 C 42.636719 49.496094 42.488281 49.464844 42.355469 49.421875 C 42.222656 49.382812 42.101562 49.34375 41.996094 49.308594 C 41.785156 49.234375 41.652344 49.171875 41.652344 49.171875 L 41.660156 49.140625 C 41.335938 48.945312 40.621094 48.492188 40.230469 48.6875 C 39.777344 49.011719 39.972656 49.726562 40.363281 49.984375 L 40.378906 49.960938 C 40.699219 50.144531 41.003906 50.351562 41.300781 50.566406 C 41.589844 50.78125 41.875 51.003906 42.152344 51.238281 C 42.355469 51.28125 42.5625 51.332031 42.765625 51.390625 L 42.757812 51.433594 C 42.539062 51.429688 42.320312 51.414062 42.101562 51.394531 L 42.085938 51.394531 L 42.0625 51.378906 C 41.757812 51.175781 41.464844 50.957031 41.175781 50.730469 C 40.886719 50.503906 40.605469 50.269531 40.34375 50.011719 L 40.363281 49.984375 C 39.582031 49.855469 39.582031 50.699219 40.035156 51.085938 L 40.0625 51.066406 C 40.277344 51.257812 40.476562 51.460938 40.664062 51.671875 C 40.851562 51.878906 41.03125 52.09375 41.203125 52.316406 C 41.40625 52.429688 41.605469 52.554688 41.796875 52.691406 L 41.78125 52.726562 C 41.546875 52.652344 41.320312 52.566406 41.097656 52.46875 L 41.085938 52.460938 L 41.070312 52.445312 C 40.875 52.238281 40.691406 52.023438 40.511719 51.800781 C 40.332031 51.582031 40.164062 51.351562 40.011719 51.109375 L 40.035156 51.085938 C 39.0625 50.894531 39.324219 51.929688 39.84375 52.382812 L 39.863281 52.363281 C 40.078125 52.503906 40.273438 52.660156 40.464844 52.828125 C 40.648438 52.996094 40.828125 53.167969 41 53.351562 C 41.164062 53.433594 41.320312 53.527344 41.472656 53.628906 L 41.457031 53.667969 C 41.269531 53.625 41.085938 53.570312 40.910156 53.503906 L 40.902344 53.5 L 40.882812 53.488281 C 40.691406 53.328125 40.503906 53.15625 40.324219 52.976562 C 40.144531 52.800781 39.976562 52.613281 39.820312 52.40625 L 39.84375 52.382812 C 39 52.773438 39.777344 54.007812 40.230469 54.523438 C 40.613281 54.871094 40.992188 54.996094 41.402344 55.054688 C 41.761719 55.109375 42.144531 55.113281 42.566406 55.171875 C 43.171875 55.285156 44.003906 55.714844 44.679688 55.808594 C 45.304688 54.789062 45.398438 54.738281 45.875 53.421875 C 46.101562 52.753906 46.121094 51.234375 46.511719 50.375 C 46.355469 49.570312 45.859375 48.898438 44.902344 48.492188 C 44.664062 48.371094 43.949219 48.179688 43.222656 48.082031 C 41.988281 47.910156 40.71875 48 41.660156 49.140625 " fill-opacity="1" fill-rule="nonzero"/><g clip-path="url(#776ed1dacf)"><path fill="#ecf4f2" d="M 53.71875 52.503906 C 53.507812 53.535156 51.6875 52.5625 50.546875 52.082031 C 49.769531 51.691406 48.175781 49.816406 47.332031 49.753906 C 46.945312 49.730469 46.691406 49.988281 46.511719 50.375 C 46.121094 51.234375 46.101562 52.753906 45.875 53.421875 C 45.398438 54.738281 45.304688 54.789062 44.679688 55.808594 C 44.628906 55.894531 44.574219 55.984375 44.515625 56.082031 C 43.78125 57.339844 43.976562 58.46875 44.902344 59.367188 L 44.90625 59.375 L 44.914062 59.375 C 45.402344 59.65625 45.882812 59.945312 46.359375 60.238281 C 46.835938 60.53125 47.324219 60.8125 47.804688 61.101562 L 47.808594 61.105469 L 48.25 61.375 L 48.46875 61.511719 C 48.539062 61.5625 48.621094 61.59375 48.695312 61.636719 L 49.15625 61.871094 C 49.230469 61.914062 49.3125 61.941406 49.390625 61.976562 L 49.628906 62.078125 C 49.785156 62.148438 49.949219 62.210938 50.113281 62.265625 L 50.355469 62.355469 C 50.4375 62.386719 50.519531 62.40625 50.605469 62.429688 C 50.769531 62.480469 50.933594 62.535156 51.101562 62.574219 C 51.273438 62.617188 51.4375 62.652344 51.609375 62.6875 L 51.636719 62.722656 L 51.601562 62.746094 C 51.429688 62.734375 51.253906 62.710938 51.082031 62.675781 C 50.941406 62.652344 50.808594 62.625 50.671875 62.589844 C 50.925781 62.675781 51.183594 62.746094 51.441406 62.804688 C 52.230469 62.976562 53.039062 63.011719 53.859375 62.828125 C 56.777344 62.179688 59.4375 60.101562 59.566406 56.796875 C 59.578125 56.609375 59.582031 56.421875 59.585938 56.238281 C 59.585938 56.179688 59.585938 56.121094 59.585938 56.0625 C 59.585938 55.933594 59.585938 55.808594 59.582031 55.683594 C 59.578125 55.609375 59.578125 55.539062 59.574219 55.464844 C 59.570312 55.355469 59.566406 55.246094 59.558594 55.136719 C 59.554688 55.054688 59.550781 54.976562 59.542969 54.894531 C 59.539062 54.792969 59.53125 54.695312 59.523438 54.59375 C 59.515625 54.507812 59.507812 54.421875 59.496094 54.335938 C 59.488281 54.242188 59.476562 54.152344 59.46875 54.058594 C 59.457031 53.96875 59.445312 53.875 59.4375 53.785156 C 59.425781 53.699219 59.414062 53.617188 59.402344 53.535156 C 59.386719 53.433594 59.375 53.335938 59.359375 53.238281 C 59.347656 53.167969 59.339844 53.101562 59.328125 53.03125 C 59.308594 52.917969 59.292969 52.808594 59.273438 52.699219 L 59.269531 52.695312 C 58.980469 51.019531 58.527344 49.371094 58.097656 47.730469 C 57.6875 46.140625 57.21875 44.507812 56.640625 42.929688 L 53.722656 52.507812 L 53.71875 52.503906 " fill-opacity="1" fill-rule="nonzero"/></g><path fill="#ecf4f2" d="M 45.683594 59.972656 C 45.707031 59.988281 45.734375 60.003906 45.761719 60.019531 C 45.554688 59.875 45.347656 59.734375 45.144531 59.589844 C 45.304688 59.722656 45.484375 59.851562 45.683594 59.972656 " fill-opacity="1" fill-rule="nonzero"/><path fill="#f7c1ab" d="M 41.816406 58.464844 L 41.8125 58.464844 L 41.796875 58.460938 C 41.515625 58.402344 41.238281 58.324219 40.964844 58.226562 L 40.953125 58.199219 L 40.972656 58.183594 C 41.257812 58.1875 41.539062 58.21875 41.816406 58.261719 C 42.273438 58.234375 42.734375 58.222656 43.191406 58.277344 L 43.207031 58.296875 C 43.632812 57.835938 44.132812 57.699219 43.683594 56.945312 L 43.671875 56.957031 C 43.351562 57.007812 43.027344 57.039062 42.707031 57.058594 C 42.382812 57.078125 42.0625 57.085938 41.738281 57.085938 L 41.730469 57.085938 L 41.710938 57.082031 C 41.425781 57 41.140625 56.910156 40.859375 56.800781 L 40.847656 56.773438 L 40.867188 56.757812 C 41.164062 56.789062 41.453125 56.839844 41.738281 56.894531 C 42.058594 56.871094 42.378906 56.859375 42.699219 56.859375 C 43.023438 56.855469 43.34375 56.863281 43.667969 56.894531 L 43.6875 56.917969 C 44.273438 56.652344 44.269531 55.972656 43.714844 55.671875 C 43.28125 55.410156 42.675781 55.585938 42.199219 55.585938 C 41.878906 55.605469 41.566406 55.605469 41.261719 55.589844 C 40.394531 55.546875 39.570312 55.378906 38.699219 55.179688 L 38.664062 55.582031 C 38.652344 55.746094 38.625 55.910156 38.625 56.074219 L 38.617188 56.566406 L 38.605469 57.058594 C 38.601562 57.222656 38.597656 57.386719 38.609375 57.550781 L 38.652344 58.535156 C 38.65625 58.699219 38.675781 58.863281 38.691406 59.027344 L 38.734375 59.515625 C 38.75 59.679688 38.757812 59.84375 38.785156 60.007812 L 38.847656 60.496094 C 38.871094 60.699219 38.902344 60.90625 38.933594 61.105469 C 39.554688 61.050781 39.992188 60.847656 40.640625 60.644531 C 41.242188 60.472656 42.222656 60.46875 42.117188 59.589844 L 42.109375 59.59375 C 42.109375 59.59375 42.042969 59.609375 41.945312 59.617188 C 41.847656 59.621094 41.71875 59.613281 41.59375 59.59375 C 41.464844 59.574219 41.339844 59.542969 41.25 59.507812 C 41.15625 59.472656 41.097656 59.4375 41.097656 59.4375 L 41.089844 59.410156 L 41.105469 59.398438 C 41.105469 59.398438 41.171875 59.382812 41.269531 59.375 C 41.367188 59.367188 41.496094 59.371094 41.621094 59.386719 C 41.75 59.402344 41.875 59.433594 41.964844 59.464844 C 42.058594 59.5 42.117188 59.53125 42.117188 59.53125 L 42.125 59.5625 C 42.382812 59.558594 42.546875 59.453125 42.667969 59.304688 C 42.882812 59.035156 42.964844 58.625 43.167969 58.34375 C 42.71875 58.433594 42.269531 58.457031 41.816406 58.464844 " fill-opacity="1" fill-rule="nonzero"/><path fill="#ecf4f2" d="M 50.792969 34.109375 C 50.703125 34.058594 50.613281 34.011719 50.523438 33.960938 C 50.457031 33.925781 50.386719 33.886719 50.320312 33.851562 C 50.257812 33.824219 50.199219 33.792969 50.140625 33.761719 C 50.070312 33.730469 50.003906 33.695312 49.933594 33.664062 C 49.90625 33.652344 49.878906 33.636719 49.851562 33.625 C 49.46875 33.449219 49.078125 33.289062 48.6875 33.148438 L 48.671875 33.140625 C 48.304688 33.007812 47.941406 32.890625 47.582031 32.785156 C 47.542969 32.773438 47.507812 32.761719 47.46875 32.753906 C 47.3125 32.707031 47.15625 32.664062 47 32.625 L 46.953125 32.613281 C 46.894531 32.597656 46.832031 32.582031 46.769531 32.566406 C 46.738281 32.558594 46.707031 32.550781 46.675781 32.542969 C 46.5625 32.511719 46.441406 32.484375 46.324219 32.453125 L 45.996094 33.042969 C 46.863281 34.382812 47.355469 36.019531 47.671875 37.84375 L 50.195312 37.632812 C 50.359375 37.285156 50.554688 36.921875 50.785156 36.601562 C 51.070312 36.203125 51.40625 35.871094 51.777344 35.726562 C 52.003906 35.632812 52.246094 35.59375 52.488281 35.59375 C 52.558594 35.597656 52.628906 35.601562 52.695312 35.609375 L 52.65625 35.558594 L 52.613281 35.511719 C 52.535156 35.433594 52.457031 35.355469 52.378906 35.277344 C 52.347656 35.25 52.316406 35.21875 52.285156 35.191406 C 52.199219 35.109375 52.109375 35.027344 52.015625 34.953125 C 51.988281 34.929688 51.964844 34.910156 51.9375 34.890625 C 51.859375 34.824219 51.777344 34.761719 51.695312 34.699219 C 51.65625 34.671875 51.617188 34.644531 51.582031 34.617188 C 51.484375 34.546875 51.382812 34.476562 51.28125 34.410156 C 51.246094 34.386719 51.210938 34.367188 51.175781 34.34375 C 51.097656 34.292969 51.015625 34.242188 50.9375 34.195312 C 50.890625 34.167969 50.84375 34.140625 50.792969 34.109375 " fill-opacity="1" fill-rule="nonzero"/><path fill="#ecf4f2" d="M 32.054688 43.484375 L 32.054688 43.46875 C 32.050781 43.457031 32.046875 43.441406 32.042969 43.417969 C 32.035156 43.371094 32.019531 43.300781 32 43.214844 C 31.957031 43.039062 31.890625 42.792969 31.796875 42.511719 C 31.609375 41.949219 31.296875 41.246094 30.847656 40.703125 C 30.546875 40.339844 30.195312 40.046875 29.777344 39.886719 C 29.535156 39.792969 29.273438 39.738281 28.976562 39.738281 C 28.339844 39.738281 27.886719 39.90625 27.53125 40.167969 C 27.375 40.28125 27.242188 40.421875 27.117188 40.574219 C 26.964844 40.765625 26.832031 40.980469 26.726562 41.214844 C 26.34375 42.054688 26.269531 43.097656 26.273438 43.664062 C 26.273438 43.894531 26.28125 44.046875 26.285156 44.074219 L 26.285156 44.078125 C 26.300781 44.269531 26.1875 44.4375 26.019531 44.503906 C 25.984375 44.792969 25.941406 45.128906 25.898438 45.503906 C 25.761719 46.738281 25.625 48.394531 25.625 50.050781 C 25.625 51.328125 25.707031 52.605469 25.929688 53.695312 C 25.992188 54.007812 26.066406 54.304688 26.15625 54.578125 C 26.195312 54.453125 26.238281 54.328125 26.273438 54.203125 C 26.34375 53.964844 26.417969 53.726562 26.476562 53.484375 L 26.570312 53.125 C 26.605469 53.003906 26.625 52.882812 26.652344 52.761719 C 26.703125 52.515625 26.765625 52.273438 26.800781 52.027344 L 26.917969 51.292969 C 26.941406 51.167969 26.949219 51.042969 26.960938 50.921875 L 26.992188 50.550781 L 27.027344 50.179688 C 27.035156 50.054688 27.027344 49.929688 27.03125 49.804688 L 27.027344 49.054688 L 27.058594 49.023438 L 27.0625 49.023438 L 27.089844 49.054688 L 27.101562 49.804688 C 27.101562 49.929688 27.113281 50.054688 27.105469 50.179688 L 27.050781 50.929688 C 27.039062 51.054688 27.035156 51.179688 27.015625 51.304688 L 26.90625 52.046875 C 26.875 52.296875 26.8125 52.539062 26.765625 52.785156 C 26.742188 52.90625 26.722656 53.03125 26.691406 53.152344 L 26.601562 53.515625 C 26.542969 53.761719 26.476562 54.003906 26.40625 54.242188 C 26.351562 54.429688 26.292969 54.617188 26.230469 54.800781 L 26.246094 54.851562 L 27.667969 54.722656 C 27.925781 54.703125 28.1875 54.671875 28.449219 54.660156 L 29.234375 54.613281 C 29.757812 54.585938 30.277344 54.542969 30.800781 54.53125 L 32.371094 54.480469 C 32.894531 54.464844 33.421875 54.460938 33.945312 54.453125 C 34.113281 54.449219 34.28125 54.449219 34.449219 54.449219 C 34.582031 53.996094 34.644531 53.460938 34.644531 52.867188 C 34.644531 50.996094 34.042969 48.597656 33.394531 46.589844 C 33.050781 45.511719 32.691406 44.546875 32.414062 43.828125 C 32.234375 43.800781 32.085938 43.667969 32.054688 43.484375 " fill-opacity="1" fill-rule="nonzero"/><path fill="#ecf4f2" d="M 39.144531 45.425781 L 37.675781 42.78125 L 37.679688 42.777344 L 31.445312 33.121094 C 29.675781 35.257812 29.429688 38.011719 29.398438 38.925781 C 29.640625 38.957031 29.871094 39.015625 30.082031 39.097656 C 30.417969 39.230469 30.714844 39.414062 30.972656 39.632812 C 31.496094 40.066406 31.871094 40.625 32.148438 41.171875 C 32.707031 42.261719 32.882812 43.316406 32.890625 43.339844 C 32.910156 43.464844 32.875 43.585938 32.800781 43.675781 C 33.046875 44.3125 33.355469 45.136719 33.660156 46.0625 C 34.359375 48.167969 35.058594 50.78125 35.058594 52.867188 C 35.058594 53.4375 35.007812 53.972656 34.882812 54.445312 C 35.09375 54.445312 35.304688 54.445312 35.515625 54.445312 C 36.5625 54.445312 37.609375 54.460938 38.65625 54.488281 C 38.710938 54.492188 38.753906 54.535156 38.753906 54.589844 L 38.753906 54.605469 L 38.699219 55.179688 C 39.570312 55.378906 40.394531 55.546875 41.261719 55.589844 L 41.402344 55.054688 C 40.992188 54.996094 40.613281 54.871094 40.230469 54.523438 C 39.777344 54.007812 39 52.773438 39.84375 52.382812 C 39.324219 51.929688 39.0625 50.894531 40.035156 51.085938 C 39.582031 50.699219 39.582031 49.855469 40.363281 49.984375 C 39.972656 49.726562 39.777344 49.011719 40.230469 48.6875 C 40.621094 48.492188 41.335938 48.945312 41.660156 49.140625 C 40.71875 48 41.988281 47.910156 43.222656 48.082031 L 43.238281 48.015625 L 45.964844 37.984375 L 46.832031 37.914062 C 46.566406 36.386719 46.171875 35.023438 45.527344 33.886719 L 39.144531 45.425781 " fill-opacity="1" fill-rule="nonzero"/><path fill="#ecf4f2" d="M 21.871094 63.410156 C 23.003906 64.078125 24.269531 64.480469 25.582031 64.691406 C 25.644531 64.703125 25.703125 64.710938 25.765625 64.722656 L 25.785156 64.703125 L 26.632812 64.789062 C 26.917969 64.824219 27.199219 64.824219 27.484375 64.832031 L 27.910156 64.84375 L 28.121094 64.847656 L 28.335938 64.839844 L 29.183594 64.808594 C 29.46875 64.792969 29.75 64.757812 30.03125 64.734375 L 30.453125 64.695312 L 30.875 64.636719 C 31.15625 64.59375 31.4375 64.5625 31.71875 64.515625 L 32.554688 64.363281 C 32.832031 64.3125 33.109375 64.246094 33.386719 64.1875 C 33.664062 64.128906 33.941406 64.0625 34.214844 63.992188 C 34.488281 63.921875 34.765625 63.855469 35.035156 63.773438 C 35.308594 63.695312 35.585938 63.625 35.855469 63.535156 C 36.125 63.449219 36.398438 63.371094 36.664062 63.277344 C 36.933594 63.1875 37.203125 63.097656 37.46875 63 C 37.980469 62.816406 38.488281 62.621094 38.988281 62.40625 C 38.925781 62.105469 38.863281 61.804688 38.816406 61.503906 C 38.761719 61.175781 38.707031 60.851562 38.664062 60.519531 L 38.601562 60.03125 C 38.574219 59.867188 38.566406 59.699219 38.546875 59.535156 L 38.5 59.042969 C 38.484375 58.878906 38.460938 58.714844 38.457031 58.546875 L 38.410156 57.554688 C 38.398438 57.390625 38.402344 57.222656 38.40625 57.058594 L 38.410156 56.5625 L 38.417969 56.0625 C 38.417969 55.898438 38.445312 55.734375 38.457031 55.566406 L 38.542969 54.6875 C 37.535156 54.65625 36.523438 54.632812 35.511719 54.632812 C 35.285156 54.632812 35.058594 54.628906 34.832031 54.628906 C 34.804688 54.707031 34.78125 54.785156 34.75 54.859375 C 34.53125 55.429688 34.167969 55.894531 33.640625 56.167969 C 33.285156 56.347656 32.867188 56.445312 32.378906 56.445312 C 32.292969 56.445312 32.207031 56.4375 32.117188 56.433594 L 32.117188 56.449219 C 32.117188 56.449219 30.855469 56.917969 30.828125 56.332031 C 30.804688 55.855469 30.933594 55.441406 32.148438 55.988281 L 32.148438 56.015625 C 32.226562 56.023438 32.304688 56.027344 32.378906 56.027344 C 32.8125 56.027344 33.164062 55.945312 33.449219 55.796875 C 33.734375 55.648438 33.957031 55.4375 34.132812 55.164062 C 34.234375 55.007812 34.320312 54.828125 34.390625 54.628906 C 34.242188 54.628906 34.09375 54.628906 33.945312 54.632812 C 33.421875 54.636719 32.898438 54.640625 32.375 54.652344 L 30.808594 54.695312 C 30.285156 54.703125 29.765625 54.746094 29.242188 54.769531 L 28.460938 54.8125 C 28.199219 54.820312 27.9375 54.851562 27.679688 54.871094 L 26.300781 54.992188 C 26.5 55.492188 26.746094 55.910156 27.042969 56.199219 C 27.398438 56.546875 27.8125 56.734375 28.347656 56.738281 C 28.605469 56.738281 28.898438 56.6875 29.222656 56.582031 L 29.210938 56.554688 C 30.257812 55.726562 30.480469 56.097656 30.578125 56.566406 C 30.695312 57.140625 29.355469 56.996094 29.355469 56.996094 L 29.351562 56.976562 C 28.992188 57.09375 28.65625 57.152344 28.347656 57.152344 C 27.707031 57.15625 27.167969 56.910156 26.75 56.496094 C 26.332031 56.085938 26.03125 55.515625 25.804688 54.847656 C 25.351562 53.515625 25.210938 51.777344 25.210938 50.050781 C 25.210938 47.859375 25.445312 45.695312 25.609375 44.449219 C 25.515625 44.378906 25.453125 44.273438 25.441406 44.152344 C 25.441406 44.140625 25.425781 43.957031 25.425781 43.664062 C 25.425781 43.308594 25.449219 42.796875 25.550781 42.230469 C 25.648438 41.664062 25.828125 41.046875 26.152344 40.484375 C 26.371094 40.113281 26.65625 39.761719 27.03125 39.488281 C 27.0625 39.464844 27.09375 39.445312 27.125 39.421875 C 27.519531 39.15625 27.996094 38.976562 28.558594 38.917969 C 28.59375 37.878906 28.878906 34.746094 30.960938 32.382812 C 30.925781 32.390625 30.894531 32.398438 30.859375 32.40625 C 30.589844 32.472656 30.335938 32.53125 30.097656 32.59375 L 30.046875 32.609375 C 30.023438 32.613281 30 32.617188 29.980469 32.625 C 29.808594 32.667969 29.632812 32.71875 29.453125 32.769531 C 29.371094 32.792969 29.285156 32.816406 29.203125 32.84375 C 29.160156 32.855469 29.113281 32.871094 29.070312 32.882812 C 28.996094 32.90625 28.921875 32.933594 28.847656 32.957031 C 28.753906 32.984375 28.660156 33.015625 28.570312 33.050781 L 28.5625 33.050781 L 28.550781 33.054688 C 28.304688 33.140625 28.054688 33.234375 27.808594 33.332031 C 27.75 33.355469 27.695312 33.378906 27.636719 33.402344 C 27.582031 33.425781 27.527344 33.449219 27.476562 33.46875 C 27.40625 33.5 27.335938 33.53125 27.269531 33.5625 C 27.203125 33.589844 27.136719 33.621094 27.074219 33.652344 C 27.011719 33.679688 26.949219 33.710938 26.886719 33.738281 C 26.804688 33.777344 26.722656 33.820312 26.640625 33.863281 C 26.597656 33.886719 26.554688 33.90625 26.511719 33.929688 C 26.390625 33.996094 26.269531 34.0625 26.152344 34.128906 C 26.113281 34.152344 26.070312 34.179688 26.03125 34.203125 C 25.949219 34.253906 25.867188 34.304688 25.785156 34.355469 C 25.742188 34.382812 25.699219 34.410156 25.65625 34.441406 C 25.578125 34.492188 25.5 34.546875 25.425781 34.601562 C 25.386719 34.628906 25.347656 34.65625 25.308594 34.683594 C 25.28125 34.703125 25.257812 34.722656 25.230469 34.742188 L 25.191406 34.773438 C 23.804688 35.765625 22.019531 37.550781 21.003906 40.578125 C 19.304688 45.652344 15.382812 59.605469 21.871094 63.410156 " fill-opacity="1" fill-rule="nonzero"/><path fill="#b7d1d7" d="M 26.601562 53.515625 L 26.691406 53.152344 C 26.722656 53.03125 26.742188 52.90625 26.765625 52.785156 C 26.8125 52.539062 26.875 52.296875 26.90625 52.046875 L 27.015625 51.304688 C 27.035156 51.179688 27.039062 51.054688 27.050781 50.929688 L 27.105469 50.179688 C 27.113281 50.054688 27.101562 49.929688 27.101562 49.804688 L 27.089844 49.054688 L 27.0625 49.023438 L 27.058594 49.023438 L 27.027344 49.054688 L 27.03125 49.804688 C 27.027344 49.929688 27.035156 50.054688 27.027344 50.179688 L 26.992188 50.550781 L 26.960938 50.921875 C 26.949219 51.042969 26.941406 51.167969 26.917969 51.292969 L 26.800781 52.027344 C 26.765625 52.273438 26.703125 52.515625 26.652344 52.761719 C 26.625 52.882812 26.605469 53.003906 26.570312 53.125 L 26.476562 53.484375 C 26.417969 53.726562 26.34375 53.964844 26.273438 54.203125 C 26.238281 54.328125 26.195312 54.453125 26.15625 54.578125 C 26.179688 54.652344 26.203125 54.730469 26.230469 54.800781 C 26.292969 54.617188 26.351562 54.429688 26.40625 54.242188 C 26.476562 54.003906 26.542969 53.761719 26.601562 53.515625 " fill-opacity="1" fill-rule="nonzero"/><path fill="#b7d1d7" d="M 33.945312 54.453125 C 33.421875 54.460938 32.894531 54.464844 32.371094 54.480469 L 30.800781 54.53125 C 30.277344 54.542969 29.757812 54.585938 29.234375 54.613281 L 28.449219 54.660156 C 28.1875 54.671875 27.925781 54.703125 27.667969 54.722656 L 26.246094 54.851562 C 26.265625 54.898438 26.285156 54.945312 26.300781 54.992188 L 27.679688 54.871094 C 27.9375 54.851562 28.199219 54.820312 28.460938 54.8125 L 29.242188 54.769531 C 29.765625 54.746094 30.285156 54.703125 30.808594 54.695312 L 32.375 54.652344 C 32.898438 54.640625 33.421875 54.636719 33.945312 54.632812 C 34.09375 54.628906 34.242188 54.628906 34.390625 54.628906 C 34.410156 54.570312 34.433594 54.511719 34.449219 54.449219 C 34.28125 54.449219 34.113281 54.449219 33.945312 54.453125 " fill-opacity="1" fill-rule="nonzero"/><path fill="#b7d1d7" d="M 25.78125 64.746094 L 26.628906 64.84375 C 26.910156 64.882812 27.195312 64.886719 27.480469 64.898438 L 27.90625 64.917969 L 28.121094 64.925781 L 28.335938 64.921875 L 28.554688 64.917969 L 29.1875 64.902344 C 29.472656 64.894531 29.757812 64.863281 30.042969 64.84375 L 30.46875 64.808594 L 30.890625 64.757812 C 31.171875 64.71875 31.457031 64.6875 31.738281 64.640625 L 32.578125 64.492188 C 32.859375 64.445312 33.136719 64.378906 33.417969 64.320312 C 33.695312 64.265625 33.972656 64.195312 34.25 64.128906 C 34.527344 64.058594 34.800781 63.992188 35.074219 63.914062 C 35.351562 63.835938 35.625 63.765625 35.898438 63.679688 C 36.167969 63.59375 36.445312 63.519531 36.714844 63.425781 C 36.867188 63.375 37.015625 63.324219 37.167969 63.273438 C 37.285156 63.234375 37.40625 63.195312 37.523438 63.152344 C 38.0625 62.964844 38.59375 62.761719 39.121094 62.539062 C 39.15625 62.523438 39.179688 62.484375 39.167969 62.445312 L 39.167969 62.441406 C 39.105469 62.121094 39.039062 61.796875 38.992188 61.472656 C 38.96875 61.351562 38.953125 61.230469 38.933594 61.105469 C 38.902344 60.90625 38.871094 60.699219 38.847656 60.496094 L 38.785156 60.007812 C 38.757812 59.84375 38.75 59.679688 38.734375 59.515625 L 38.691406 59.027344 C 38.675781 58.863281 38.65625 58.699219 38.652344 58.535156 L 38.609375 57.550781 C 38.597656 57.386719 38.601562 57.222656 38.605469 57.058594 L 38.617188 56.566406 L 38.625 56.074219 C 38.625 55.910156 38.652344 55.746094 38.664062 55.582031 L 38.699219 55.179688 L 38.753906 54.605469 L 38.753906 54.589844 C 38.753906 54.535156 38.710938 54.492188 38.65625 54.488281 C 37.609375 54.460938 36.5625 54.445312 35.515625 54.445312 C 35.304688 54.445312 35.09375 54.445312 34.882812 54.445312 C 34.867188 54.507812 34.851562 54.570312 34.832031 54.628906 C 35.058594 54.628906 35.285156 54.632812 35.511719 54.632812 C 36.523438 54.632812 37.535156 54.65625 38.542969 54.6875 L 38.457031 55.566406 C 38.445312 55.734375 38.417969 55.898438 38.417969 56.0625 L 38.410156 56.5625 L 38.40625 57.058594 C 38.402344 57.222656 38.398438 57.390625 38.410156 57.554688 L 38.457031 58.546875 C 38.460938 58.714844 38.484375 58.878906 38.5 59.042969 L 38.546875 59.535156 C 38.566406 59.699219 38.574219 59.867188 38.601562 60.03125 L 38.664062 60.519531 C 38.707031 60.851562 38.761719 61.175781 38.816406 61.503906 C 38.863281 61.804688 38.925781 62.105469 38.988281 62.40625 C 38.488281 62.621094 37.980469 62.816406 37.46875 63 C 37.203125 63.097656 36.933594 63.1875 36.664062 63.277344 C 36.398438 63.371094 36.125 63.449219 35.855469 63.535156 C 35.585938 63.625 35.308594 63.695312 35.035156 63.773438 C 34.765625 63.855469 34.488281 63.921875 34.214844 63.992188 C 33.941406 64.0625 33.664062 64.128906 33.386719 64.1875 C 33.109375 64.246094 32.832031 64.3125 32.554688 64.363281 L 31.71875 64.515625 C 31.4375 64.5625 31.15625 64.59375 30.875 64.636719 L 30.453125 64.695312 L 30.03125 64.734375 C 29.75 64.757812 29.46875 64.792969 29.183594 64.808594 L 28.335938 64.839844 L 28.121094 64.847656 L 27.910156 64.84375 L 27.484375 64.832031 C 27.199219 64.824219 26.917969 64.824219 26.632812 64.789062 L 25.785156 64.703125 L 25.765625 64.722656 L 25.761719 64.722656 L 25.78125 64.746094 " fill-opacity="1" fill-rule="nonzero"/><path fill="#9dded4" d="M 26.230469 54.800781 C 26.203125 54.730469 26.179688 54.652344 26.15625 54.578125 C 26.066406 54.304688 25.992188 54.007812 25.929688 53.695312 C 25.707031 52.605469 25.625 51.328125 25.625 50.050781 C 25.625 48.394531 25.761719 46.738281 25.898438 45.503906 C 25.941406 45.128906 25.984375 44.792969 26.019531 44.503906 C 25.984375 44.519531 25.941406 44.53125 25.898438 44.535156 C 25.792969 44.546875 25.6875 44.511719 25.609375 44.449219 C 25.445312 45.695312 25.210938 47.859375 25.210938 50.050781 C 25.210938 51.777344 25.351562 53.515625 25.804688 54.847656 C 26.03125 55.515625 26.332031 56.085938 26.75 56.496094 C 27.167969 56.910156 27.707031 57.15625 28.347656 57.152344 C 28.65625 57.152344 28.992188 57.09375 29.351562 56.976562 L 29.222656 56.582031 C 28.898438 56.6875 28.605469 56.738281 28.347656 56.738281 C 27.8125 56.734375 27.398438 56.546875 27.042969 56.199219 C 26.746094 55.910156 26.5 55.492188 26.300781 54.992188 C 26.285156 54.945312 26.265625 54.898438 26.246094 54.851562 L 26.230469 54.800781 " fill-opacity="1" fill-rule="nonzero"/><path fill="#f471b3" d="M 29.355469 56.996094 C 29.355469 56.996094 30.695312 57.140625 30.578125 56.566406 C 30.480469 56.097656 30.257812 55.726562 29.210938 56.554688 L 29.222656 56.582031 L 29.351562 56.976562 L 29.355469 56.996094 " fill-opacity="1" fill-rule="nonzero"/><path fill="#9dded4" d="M 35.058594 52.867188 C 35.058594 50.78125 34.359375 48.167969 33.660156 46.0625 C 33.355469 45.136719 33.046875 44.3125 32.800781 43.675781 C 32.738281 43.753906 32.648438 43.8125 32.542969 43.828125 C 32.5 43.835938 32.453125 43.835938 32.414062 43.828125 C 32.691406 44.546875 33.050781 45.511719 33.394531 46.589844 C 34.042969 48.597656 34.644531 50.996094 34.644531 52.867188 C 34.644531 53.460938 34.582031 53.996094 34.449219 54.449219 C 34.433594 54.511719 34.410156 54.570312 34.390625 54.628906 C 34.320312 54.828125 34.234375 55.007812 34.132812 55.164062 C 33.957031 55.4375 33.734375 55.648438 33.449219 55.796875 C 33.164062 55.945312 32.8125 56.027344 32.378906 56.027344 C 32.304688 56.027344 32.226562 56.023438 32.148438 56.015625 L 32.117188 56.433594 C 32.207031 56.4375 32.292969 56.445312 32.378906 56.445312 C 32.867188 56.445312 33.285156 56.347656 33.640625 56.167969 C 34.167969 55.894531 34.53125 55.429688 34.75 54.859375 C 34.78125 54.785156 34.804688 54.707031 34.832031 54.628906 C 34.851562 54.570312 34.867188 54.507812 34.882812 54.445312 C 35.007812 53.972656 35.058594 53.4375 35.058594 52.867188 " fill-opacity="1" fill-rule="nonzero"/><path fill="#f471b3" d="M 32.148438 55.988281 C 30.933594 55.441406 30.804688 55.855469 30.828125 56.332031 C 30.855469 56.917969 32.117188 56.449219 32.117188 56.449219 L 32.117188 56.433594 L 32.148438 56.015625 L 32.148438 55.988281 " fill-opacity="1" fill-rule="nonzero"/><path fill="#f471b3" d="M 26.019531 44.503906 C 26.1875 44.4375 26.300781 44.269531 26.285156 44.078125 L 26.285156 44.074219 C 26.28125 44.046875 26.273438 43.894531 26.273438 43.664062 C 26.269531 43.097656 26.34375 42.054688 26.726562 41.214844 C 26.832031 40.980469 26.964844 40.765625 27.117188 40.574219 C 27.242188 40.421875 27.375 40.28125 27.53125 40.167969 C 27.886719 39.90625 28.339844 39.738281 28.976562 39.738281 C 29.273438 39.738281 29.535156 39.792969 29.777344 39.886719 C 30.195312 40.046875 30.546875 40.339844 30.847656 40.703125 C 31.296875 41.246094 31.609375 41.949219 31.796875 42.511719 C 31.890625 42.792969 31.957031 43.039062 32 43.214844 C 32.019531 43.300781 32.035156 43.371094 32.042969 43.417969 C 32.046875 43.441406 32.050781 43.457031 32.054688 43.46875 L 32.054688 43.484375 C 32.085938 43.667969 32.234375 43.800781 32.414062 43.828125 C 32.453125 43.835938 32.5 43.835938 32.542969 43.828125 C 32.648438 43.8125 32.738281 43.753906 32.800781 43.675781 C 32.875 43.585938 32.910156 43.464844 32.890625 43.339844 C 32.882812 43.316406 32.707031 42.261719 32.148438 41.171875 C 31.871094 40.625 31.496094 40.066406 30.972656 39.632812 C 30.714844 39.414062 30.417969 39.230469 30.082031 39.097656 C 29.871094 39.015625 29.640625 38.957031 29.398438 38.925781 C 29.394531 39.117188 29.398438 39.230469 29.398438 39.238281 C 29.40625 39.46875 29.222656 39.667969 28.992188 39.675781 L 28.976562 39.675781 C 28.75 39.675781 28.558594 39.496094 28.554688 39.265625 C 28.554688 39.257812 28.550781 39.128906 28.558594 38.917969 C 27.996094 38.976562 27.519531 39.15625 27.125 39.421875 C 27.09375 39.445312 27.0625 39.464844 27.03125 39.488281 C 26.65625 39.761719 26.371094 40.113281 26.152344 40.484375 C 25.828125 41.046875 25.648438 41.664062 25.550781 42.230469 C 25.449219 42.796875 25.425781 43.308594 25.425781 43.664062 C 25.425781 43.957031 25.441406 44.140625 25.441406 44.152344 C 25.453125 44.273438 25.515625 44.378906 25.609375 44.449219 C 25.6875 44.511719 25.792969 44.546875 25.898438 44.535156 C 25.941406 44.53125 25.984375 44.519531 26.019531 44.503906 " fill-opacity="1" fill-rule="nonzero"/><path fill="#f471b3" d="M 28.554688 39.265625 C 28.558594 39.496094 28.75 39.675781 28.976562 39.675781 L 28.992188 39.675781 C 29.222656 39.667969 29.40625 39.46875 29.398438 39.238281 C 29.398438 39.230469 29.394531 39.117188 29.398438 38.925781 C 29.429688 38.011719 29.675781 35.257812 31.445312 33.121094 C 31.820312 32.667969 32.265625 32.238281 32.792969 31.863281 L 32.804688 31.855469 C 33.328125 31.484375 33.9375 31.164062 34.636719 30.921875 L 34.65625 30.902344 C 34.679688 30.882812 34.699219 30.863281 34.71875 30.84375 C 34.738281 30.824219 34.757812 30.804688 34.773438 30.78125 L 34.816406 30.730469 C 34.839844 30.703125 34.859375 30.675781 34.878906 30.648438 L 34.90625 30.605469 C 34.929688 30.566406 34.953125 30.527344 34.972656 30.488281 L 34.980469 30.472656 C 35.03125 30.375 35.070312 30.269531 35.101562 30.160156 L 35.105469 30.152344 C 35.121094 30.101562 35.132812 30.046875 35.144531 29.992188 L 35.148438 29.972656 C 35.15625 29.941406 35.164062 29.910156 35.167969 29.878906 C 33.277344 30.355469 31.925781 31.285156 30.960938 32.378906 L 30.960938 32.382812 C 28.878906 34.746094 28.59375 37.878906 28.558594 38.917969 C 28.550781 39.128906 28.554688 39.257812 28.554688 39.265625 " fill-opacity="1" fill-rule="nonzero"/><path fill="#b7d1d7" d="M 44.890625 59.410156 C 44.972656 59.46875 45.058594 59.527344 45.144531 59.589844 C 45.347656 59.734375 45.554688 59.875 45.761719 60.019531 C 45.933594 60.136719 46.105469 60.253906 46.277344 60.371094 L 46.625 60.605469 L 46.730469 60.671875 L 46.984375 60.828125 L 47.703125 61.273438 L 47.695312 61.269531 L 47.71875 61.28125 L 48.140625 61.550781 L 48.367188 61.691406 C 48.441406 61.738281 48.523438 61.769531 48.601562 61.8125 L 49.074219 62.050781 C 49.152344 62.089844 49.234375 62.117188 49.316406 62.152344 L 49.5625 62.25 C 49.722656 62.316406 49.890625 62.371094 50.058594 62.421875 L 50.3125 62.5 C 50.394531 62.527344 50.480469 62.542969 50.566406 62.566406 C 50.601562 62.574219 50.636719 62.582031 50.671875 62.589844 C 50.808594 62.625 50.941406 62.652344 51.082031 62.675781 C 51.253906 62.710938 51.429688 62.734375 51.601562 62.746094 L 51.636719 62.722656 L 51.609375 62.6875 C 51.4375 62.652344 51.273438 62.617188 51.101562 62.574219 C 50.933594 62.535156 50.769531 62.480469 50.605469 62.429688 C 50.519531 62.40625 50.4375 62.386719 50.355469 62.355469 L 50.113281 62.265625 C 49.949219 62.210938 49.785156 62.148438 49.628906 62.078125 L 49.390625 61.976562 C 49.3125 61.941406 49.230469 61.914062 49.15625 61.871094 L 48.695312 61.636719 C 48.621094 61.59375 48.539062 61.5625 48.46875 61.511719 L 48.25 61.375 L 47.808594 61.105469 L 47.804688 61.101562 C 47.324219 60.8125 46.835938 60.53125 46.359375 60.238281 C 45.882812 59.945312 45.402344 59.65625 44.914062 59.375 L 44.90625 59.375 L 44.886719 59.378906 L 44.890625 59.410156 " fill-opacity="1" fill-rule="nonzero"/><path fill="#f5ad98" d="M 41.175781 50.730469 C 41.464844 50.957031 41.757812 51.175781 42.0625 51.378906 L 42.085938 51.394531 L 42.101562 51.394531 C 42.320312 51.414062 42.539062 51.429688 42.757812 51.433594 L 42.765625 51.390625 C 42.5625 51.332031 42.355469 51.28125 42.152344 51.238281 C 41.875 51.003906 41.589844 50.78125 41.300781 50.566406 C 41.003906 50.351562 40.699219 50.144531 40.378906 49.960938 L 40.363281 49.984375 L 40.34375 50.011719 C 40.605469 50.269531 40.886719 50.503906 41.175781 50.730469 " fill-opacity="1" fill-rule="nonzero"/><path fill="#f5ad98" d="M 40.511719 51.800781 C 40.691406 52.023438 40.875 52.238281 41.070312 52.445312 L 41.085938 52.460938 L 41.097656 52.46875 C 41.320312 52.566406 41.546875 52.652344 41.78125 52.726562 L 41.796875 52.691406 C 41.605469 52.554688 41.40625 52.429688 41.203125 52.316406 C 41.03125 52.09375 40.851562 51.878906 40.664062 51.671875 C 40.476562 51.460938 40.277344 51.257812 40.0625 51.066406 L 40.035156 51.085938 L 40.011719 51.109375 C 40.164062 51.351562 40.332031 51.582031 40.511719 51.800781 " fill-opacity="1" fill-rule="nonzero"/><path fill="#f5ad98" d="M 40.324219 52.976562 C 40.503906 53.15625 40.691406 53.328125 40.882812 53.488281 L 40.902344 53.5 L 40.910156 53.503906 C 41.085938 53.570312 41.269531 53.625 41.457031 53.667969 L 41.472656 53.628906 C 41.320312 53.527344 41.164062 53.433594 41 53.351562 C 40.828125 53.167969 40.648438 52.996094 40.464844 52.828125 C 40.273438 52.660156 40.078125 52.503906 39.863281 52.363281 L 39.820312 52.40625 C 39.976562 52.613281 40.144531 52.800781 40.324219 52.976562 " fill-opacity="1" fill-rule="nonzero"/><path fill="#f5ad98" d="M 41.996094 49.308594 C 42.101562 49.34375 42.222656 49.382812 42.355469 49.421875 C 42.488281 49.464844 42.636719 49.496094 42.777344 49.53125 C 42.925781 49.558594 43.070312 49.589844 43.207031 49.609375 C 43.34375 49.636719 43.476562 49.636719 43.589844 49.644531 C 43.8125 49.652344 43.960938 49.648438 43.960938 49.648438 L 43.964844 49.605469 C 43.964844 49.605469 43.820312 49.5625 43.605469 49.511719 C 43.5 49.480469 43.375 49.464844 43.242188 49.425781 C 43.109375 49.390625 42.96875 49.355469 42.824219 49.324219 C 42.539062 49.265625 42.253906 49.195312 42.035156 49.164062 C 41.925781 49.148438 41.832031 49.132812 41.769531 49.125 C 41.707031 49.113281 41.667969 49.109375 41.667969 49.109375 L 41.652344 49.171875 C 41.652344 49.171875 41.785156 49.234375 41.996094 49.308594 " fill-opacity="1" fill-rule="nonzero"/><path fill="#f5ad98" d="M 42.699219 56.859375 C 42.378906 56.859375 42.058594 56.871094 41.738281 56.894531 C 41.453125 56.839844 41.164062 56.789062 40.867188 56.757812 L 40.847656 56.773438 L 40.859375 56.800781 C 41.140625 56.910156 41.425781 57 41.710938 57.082031 L 41.730469 57.085938 L 41.738281 57.085938 C 42.0625 57.085938 42.382812 57.078125 42.707031 57.058594 C 43.027344 57.039062 43.351562 57.007812 43.671875 56.957031 L 43.699219 56.929688 L 43.6875 56.917969 L 43.667969 56.894531 C 43.34375 56.863281 43.023438 56.855469 42.699219 56.859375 " fill-opacity="1" fill-rule="nonzero"/><path fill="#f5ad98" d="M 41.816406 58.261719 C 41.539062 58.21875 41.257812 58.1875 40.972656 58.183594 L 40.953125 58.199219 L 40.964844 58.226562 C 41.238281 58.324219 41.515625 58.402344 41.796875 58.460938 L 41.8125 58.464844 L 41.816406 58.464844 C 42.269531 58.457031 42.71875 58.433594 43.167969 58.34375 L 43.195312 58.339844 L 43.222656 58.3125 L 43.207031 58.296875 L 43.191406 58.277344 C 42.734375 58.222656 42.273438 58.234375 41.816406 58.261719 " fill-opacity="1" fill-rule="nonzero"/><path fill="#f5ad98" d="M 41.964844 59.464844 C 41.875 59.433594 41.75 59.402344 41.621094 59.386719 C 41.496094 59.371094 41.367188 59.367188 41.269531 59.375 C 41.171875 59.382812 41.105469 59.398438 41.105469 59.398438 L 41.089844 59.410156 L 41.097656 59.441406 C 41.097656 59.441406 41.15625 59.472656 41.25 59.507812 C 41.339844 59.542969 41.464844 59.574219 41.59375 59.59375 C 41.71875 59.613281 41.847656 59.621094 41.945312 59.617188 C 42.042969 59.609375 42.109375 59.59375 42.109375 59.59375 L 42.117188 59.589844 L 42.132812 59.578125 L 42.125 59.5625 L 42.117188 59.53125 C 42.117188 59.53125 42.058594 59.5 41.964844 59.464844 " fill-opacity="1" fill-rule="nonzero"/></svg>