<svg id="wave" style="transform:rotate(0deg); transition: 0.3s" viewBox="0 0 1440 490" version="1.1" xmlns="http://www.w3.org/2000/svg"><defs><linearGradient id="sw-gradient-0" x1="0" x2="0" y1="1" y2="0"><stop stop-color="rgba(36, 123, 123, 1)" offset="0%"></stop><stop stop-color="rgba(0, 203, 169, 1)" offset="100%"></stop></linearGradient></defs><path style="transform:translate(0, 0px); opacity:1" fill="url(#sw-gradient-0)" d="M0,294L48,285.8C96,278,192,261,288,236.8C384,212,480,180,576,147C672,114,768,82,864,114.3C960,147,1056,245,1152,253.2C1248,261,1344,180,1440,171.5C1536,163,1632,229,1728,228.7C1824,229,1920,163,2016,122.5C2112,82,2208,65,2304,65.3C2400,65,2496,82,2592,147C2688,212,2784,327,2880,351.2C2976,376,3072,310,3168,236.8C3264,163,3360,82,3456,73.5C3552,65,3648,131,3744,204.2C3840,278,3936,359,4032,400.2C4128,441,4224,441,4320,367.5C4416,294,4512,147,4608,130.7C4704,114,4800,229,4896,245C4992,261,5088,180,5184,179.7C5280,180,5376,261,5472,302.2C5568,343,5664,343,5760,302.2C5856,261,5952,180,6048,187.8C6144,196,6240,294,6336,351.2C6432,408,6528,425,6624,359.3C6720,294,6816,147,6864,73.5L6912,0L6912,490L6864,490C6816,490,6720,490,6624,490C6528,490,6432,490,6336,490C6240,490,6144,490,6048,490C5952,490,5856,490,5760,490C5664,490,5568,490,5472,490C5376,490,5280,490,5184,490C5088,490,4992,490,4896,490C4800,490,4704,490,4608,490C4512,490,4416,490,4320,490C4224,490,4128,490,4032,490C3936,490,3840,490,3744,490C3648,490,3552,490,3456,490C3360,490,3264,490,3168,490C3072,490,2976,490,2880,490C2784,490,2688,490,2592,490C2496,490,2400,490,2304,490C2208,490,2112,490,2016,490C1920,490,1824,490,1728,490C1632,490,1536,490,1440,490C1344,490,1248,490,1152,490C1056,490,960,490,864,490C768,490,672,490,576,490C480,490,384,490,288,490C192,490,96,490,48,490L0,490Z"></path><defs><linearGradient id="sw-gradient-1" x1="0" x2="0" y1="1" y2="0"><stop stop-color="rgba(0, 203, 169, 0.47)" offset="0%"></stop><stop stop-color="rgba(0, 203, 169, 0.49)" offset="100%"></stop></linearGradient></defs><path style="transform:translate(0, 50px); opacity:0.9" fill="url(#sw-gradient-1)" d="M0,49L48,49C96,49,192,49,288,106.2C384,163,480,278,576,334.8C672,392,768,392,864,367.5C960,343,1056,294,1152,269.5C1248,245,1344,245,1440,269.5C1536,294,1632,343,1728,343C1824,343,1920,294,2016,253.2C2112,212,2208,180,2304,147C2400,114,2496,82,2592,98C2688,114,2784,180,2880,236.8C2976,294,3072,343,3168,367.5C3264,392,3360,392,3456,351.2C3552,310,3648,229,3744,220.5C3840,212,3936,278,4032,269.5C4128,261,4224,180,4320,122.5C4416,65,4512,33,4608,16.3C4704,0,4800,0,4896,32.7C4992,65,5088,131,5184,179.7C5280,229,5376,261,5472,261.3C5568,261,5664,229,5760,245C5856,261,5952,327,6048,310.3C6144,294,6240,196,6336,204.2C6432,212,6528,327,6624,310.3C6720,294,6816,147,6864,73.5L6912,0L6912,490L6864,490C6816,490,6720,490,6624,490C6528,490,6432,490,6336,490C6240,490,6144,490,6048,490C5952,490,5856,490,5760,490C5664,490,5568,490,5472,490C5376,490,5280,490,5184,490C5088,490,4992,490,4896,490C4800,490,4704,490,4608,490C4512,490,4416,490,4320,490C4224,490,4128,490,4032,490C3936,490,3840,490,3744,490C3648,490,3552,490,3456,490C3360,490,3264,490,3168,490C3072,490,2976,490,2880,490C2784,490,2688,490,2592,490C2496,490,2400,490,2304,490C2208,490,2112,490,2016,490C1920,490,1824,490,1728,490C1632,490,1536,490,1440,490C1344,490,1248,490,1152,490C1056,490,960,490,864,490C768,490,672,490,576,490C480,490,384,490,288,490C192,490,96,490,48,490L0,490Z"></path></svg>